<svg xmlns="http://www.w3.org/2000/svg" viewBox="0 0 815.93 451.17"><defs><style>.cls-1{fill:#333;}.cls-2,.cls-3{fill:#fff;}.cls-3{font-size:36.98px;font-family:Poppins-SemiBold, Poppins;font-weight:600;}.cls-4{fill:#f2f2f2;}</style></defs><title>Asset 10popup-lables</title><g id="Layer_2" data-name="Layer 2"><g id="Layer_1-2" data-name="Layer 1"><rect class="cls-1" width="815.93" height="209.31" rx="32.22"/><rect class="cls-1" y="241.86" width="210.18" height="209.31" rx="32.22"/><rect class="cls-1" x="256.43" y="241.86" width="210.18" height="209.31" rx="32.22"/><path class="cls-2" d="M86.36,121.22V93.93H80.05v-7h15v34.29Z"/><path class="cls-2" d="M127.79,95.79a8,8,0,0,1-4.3,7.09,9.37,9.37,0,0,1,6.11,8.66c0,6.16-5.48,10.07-14,10.07s-14-3.86-14-9.93c0-3.91,2.55-7.24,6.51-8.8a8.6,8.6,0,0,1-4.74-7.34c0-5.48,4.79-9,12.22-9s12.28,3.57,12.28,9.2Zm-18.05,15c0,2.89,2.06,4.5,5.82,4.5s5.87-1.56,5.87-4.5-2.1-4.45-5.87-4.45-5.82,1.62-5.82,4.45Zm.88-14.53c0,2.45,1.76,3.82,4.94,3.82s4.94-1.37,4.94-3.82-1.76-4-4.94-4-4.94,1.42-4.94,4Z"/><path class="cls-2" d="M144.09,90.8a41.41,41.41,0,1,1-26-26V55.61A50.28,50.28,0,1,0,153.31,90.8Z"/><path class="cls-2" d="M141.58,67.32V57.68h-6.93v9.64h-9.58v6.93h9.58v9.64h6.93V74.25h9.64V67.32Z"/><text class="cls-3" transform="translate(203.95 73.21)">Buffalo energy drink is <tspan x="0" y="44.38">age-restricted for individuals </tspan><tspan x="0" y="88.75">over the age of </tspan><tspan x="289.63" y="88.75">16</tspan><tspan x="326.69" y="88.75">.</tspan></text><path class="cls-4" d="M106.93,326.5l7.83-4.54c-.62-1.09-1.2-2.13-1.8-3.16-3.48-6-6.95-12.07-10.47-18.08a14.24,14.24,0,0,0-5.08-5.45,39.08,39.08,0,0,0-3.9-1.71h1c9.54,0,19.08,0,28.62,0a7.22,7.22,0,0,1,6.68,3.63c1.64,2.69,3.18,5.43,4.76,8.15.74,1.26,1.47,2.52,2.28,3.92l7.93-4.57.16.13c-.55,1.15-1.09,2.31-1.65,3.46q-4.68,9.75-9.35,19.52a1.35,1.35,0,0,1-1.58.94c-8.11-.65-16.22-1.26-24.34-1.88l-1-.12Z"/><path class="cls-4" d="M58.82,336.6,51,332l0-.2c.39,0,.77-.09,1.17-.12,8.14-.63,16.29-1.24,24.44-1.89a1.07,1.07,0,0,1,1.23.73q4.22,8.88,8.48,17.72c.88,1.82,1.75,3.64,2.48,5.6l-1-.52c-2-1.16-4-2.31-6-3.5-.67-.4-1-.31-1.45.37-3.86,6.69-7.77,13.36-11.61,20.06a14.47,14.47,0,0,0-2.3,7,39,39,0,0,0,.36,4.41,1.6,1.6,0,0,1-.19-.24q-7.38-12.76-14.75-25.53a6.51,6.51,0,0,1-.27-6.56c1.5-2.91,3.18-5.72,4.79-8.57C57.17,339.43,58,338.09,58.82,336.6Z"/><path class="cls-4" d="M121.68,355.66v1c0,2.39,0,4.77,0,7.16,0,.72.24.92.94.92,7.51,0,15,0,22.52,0a32.39,32.39,0,0,0,6-.75,9.52,9.52,0,0,0,4.88-2.85c.15-.16.32-.31.48-.46s.1,0,.31-.07c-.62,1.07-1.17,2.05-1.73,3-4.33,7.49-8.7,15-13,22.49a7.19,7.19,0,0,1-6.55,4c-4.23.07-8.46.07-12.69,0-.94,0-1.27.21-1.24,1.21.07,2.32,0,4.64,0,7v1.21c-.36-.42-.55-.61-.69-.82-4.63-6.77-9.25-13.56-13.91-20.31a1.42,1.42,0,0,1,0-1.91q7-10.09,13.85-20.23c.15-.22.34-.42.5-.63Z"/><path class="cls-4" d="M90.16,331.56l-22-12.68c.43-.76.83-1.47,1.24-2.17,2.88-5,5.88-9.9,8.61-15,3.3-6.14,10.9-7.19,15.46-5.91a10.68,10.68,0,0,1,5.84,4.25c1.62,2.26,3,4.7,4.48,7.08a1,1,0,0,1,0,.86q-6.67,11.63-13.4,23.22A3.64,3.64,0,0,1,90.16,331.56Z"/><path class="cls-4" d="M125.65,338.6l21.92-12.66a6.45,6.45,0,0,1,.41.56c3.14,5.42,6.3,10.83,9.37,16.29a16.1,16.1,0,0,1,1.71,4.32,12.86,12.86,0,0,1-11,15.22,76.19,76.19,0,0,1-8,.26,1.44,1.44,0,0,1-1-.69c-2-3.4-4-6.82-5.93-10.24L126,339.21C125.87,339.05,125.79,338.88,125.65,338.6Z"/><path class="cls-4" d="M101.38,391.2h-1.13c-6.07,0-12.14,0-18.21,0a16.49,16.49,0,0,1-3.22-.3,12.86,12.86,0,0,1-9.16-17.41,65.79,65.79,0,0,1,3.83-7.23,1.46,1.46,0,0,1,1.11-.46c4.61,0,9.22,0,13.83,0,4,0,8.07,0,12.11,0,.7,0,.93.19.93.91,0,7.92,0,15.83,0,23.75A7.13,7.13,0,0,1,101.38,391.2Z"/><path class="cls-2" d="M366.15,388.58q1.44-9.34,2.89-18.71c1.48-9.61,2.95-19.23,4.48-28.83a1.73,1.73,0,0,1,1.16-1.15c7.16-.4,14.33-.71,21.49-1a6.44,6.44,0,0,1,.89.1q-2.54,25-5.07,49.86l-.23.06q-4-16.15-8.06-32.32l-.59-.05-16.67,32.18Z"/><path class="cls-2" d="M341.74,312.48h10c10.88,0,21.76,0,32.64,0a3,3,0,0,1,2.55,1.25,47.94,47.94,0,0,1,8.76,17.16c.48,1.61.85,3.25,1.32,5.05-1.3.13-2.34.28-3.38.34q-8.55.5-17.11,1c-2.72.14-2.3.27-2.69-2.15a25.78,25.78,0,0,0-3.81-10.36c-2.29-3.44-5.81-4.65-9.53-5.76-6.33-1.89-12.59-4-18.88-6Z"/><path class="cls-2" d="M343.81,390.67c-2.71,0-5.42-.05-8.12,0a1.66,1.66,0,0,1-2-1.63c-1-5.84-2-11.67-3-17.5-1.33-7.81-2.66-15.62-4-23.42-.22-1.24-.8-2.42-1.07-3.66a1.56,1.56,0,0,1,.58-1.24c.3-.22.87-.13,1.32-.13h32.65c.45,0,1-.12,1.32.09s.77,1,.65,1.2c-1.66,3.11-1.55,6.6-2.15,9.91-1.73,9.47-3.28,19-4.9,28.46-.38,2.18-.8,4.34-1.11,6.53a1.35,1.35,0,0,1-1.58,1.36c-2.86,0-5.72,0-8.58,0Zm4.05-31c-.5,0-1,0-1.5,0-1.42-.14-2,.45-1.89,1.89.09,1,0,2,0,3,0,2.07,0,2.1,2.09,2.07,4.65-.05,3.69.58,4.19-3.69C351.21,359.05,351.23,359.71,347.86,359.64Zm.41-7.22a20.26,20.26,0,0,0-2.7,0c-.37.06-1,.53-1,.82,0,1.59.08,3.17.15,4.76l3.66.33c.2,0,.4,0,.6,0,2.27,0,2.28,0,2.55-2.27C352.06,351.78,352.27,352.47,348.27,352.42Zm-5.13,10.77c0-.65-.05-1.3,0-1.95.11-1.15-.33-1.67-1.52-1.61s-2.5,0-3.75,0c-.91,0-1.26.44-1.16,1.33.13,1.09.22,2.19.36,3.28.29,2.31.29,2.31,2.63,2.31C343.15,366.58,343.15,366.58,343.14,363.19Zm-3.63-10.82c-.7,0-1.4,0-2.1,0-1.25-.09-1.7.39-1.51,1.68.78,5.25-.19,4.2,5,4.31,2.28.05,2.28,0,2.29-2.3C343.16,352.4,343.16,352.4,339.51,352.37Zm-.48-6.55c-.75,0-1.51,0-2.25,0s-1.61-.31-1.73.88c-.15,1.48.63,4.17,1.29,4.35a1.54,1.54,0,0,0,.3,0c1.8,0,3.61.06,5.41-.06a1.53,1.53,0,0,0,1-1.07c0-4.76.75-4.07-3.61-4.15Zm9.56.06c-4.57.12-4.06-.88-4.09,3.83,0,.05,0,.1,0,.15,0,.88.42,1.26,1.29,1.25,1.69,0,3.39.05,5.08-.05a1.74,1.74,0,0,0,1.31-.87c1.26-3.61.74-4.32-3-4.31ZM355,359.65c-2.75,0-2.75,0-2.89,2.65l-.06,1.05c-.22,3.41-.22,3.39,3.32,3.25.85,0,1.3-.33,1.41-1.18.19-1.44.4-2.88.66-4.3.19-1.06-.18-1.52-1.24-1.48C355.8,359.66,355.4,359.65,355,359.65Zm-19.23,4.29h0c-.12-1-.26-2-.34-3s-.46-1.34-1.41-1.33c-4.68.09-3.92-.49-3.41,3.86a.77.77,0,0,0,0,.15c.58,3,.59,2.92,3.63,3,1.36,0,1.83-.47,1.56-1.77A6.54,6.54,0,0,1,335.77,363.94Zm8.73,7.13c0,3.27,0,3.28,3.24,3.2.25,0,.56.08.74,0,.4-.28,1-.61,1.06-1a24.39,24.39,0,0,0,.44-4.17c0-.37-.57-.86-1-1.08a3.25,3.25,0,0,0-1.33-.05C344.1,367.92,344.53,367.68,344.5,371.07Zm11.57-18.68c-3.06,0-3-.26-3.13,2.87a10.08,10.08,0,0,1-.21,1.64c-.2,1.07.26,1.47,1.29,1.46,4.52,0,3.68.44,4.41-3.21C359,352.37,359,352.38,356.07,352.39Zm-12.92,18.82c0-3.71.44-3.25-3.28-3.28h-1.05c-1,0-1.32.48-1.18,1.42s.32,2.18.39,3.28.65,1.7,1.92,1.67C343.66,374.2,343.09,374.52,343.15,371.21ZM331.72,352.4l0-.15-2.59.46,1.17,5.53s.09.05.14.05c1.34,0,2.69,0,4-.08.21,0,.53-.69.52-1,0-1.09-.22-2.19-.28-3.28s-.52-1.57-1.6-1.49C332.62,352.42,332.17,352.4,331.72,352.4Zm-1-6.59c-.5,0-1,0-1.5,0-1.34-.1-1.66.53-1.37,1.74.9,3.89.12,3.55,4,3.56,2.4,0,2.4,0,2.1-2.44C333.63,345.83,333.63,345.83,330.71,345.81Zm25.66,5.31c2.89,0,2.89,0,3.26-2.58s.39-2.71-2.39-2.66c-3.07.05-3.07.05-3.5,3-.32,2.17-.28,2.22,1.88,2.25Zm-2.46,16.82c-2.53,0-2.53,0-2.71,2.55,0,.29,0,.59-.05.89-.18,3,.1,3.26,3.13,2.88.05,0,.12,0,.15,0,.34-.3.88-.57,1-.93a31.11,31.11,0,0,0,.67-4.29c0-.34-.46-.86-.83-1A3.27,3.27,0,0,0,353.91,367.94Zm-20,0c-2.41,0-2.41,0-2.06,2.44.07.45.1.9.17,1.34.42,2.62.42,2.62,3.12,2.57h.3c1,.07,1.49-.36,1.34-1.42-.13-.89-.18-1.79-.31-2.68C336.12,367.93,336.11,367.94,333.88,367.93Zm13,7.59c-2.42,0-2.42,0-2.42,2.49v.9c0,2.65.05,2.66,2.66,2.6,1.06,0,1.57-.42,1.65-1.47.05-.74.19-1.48.26-2.23C349.26,375.52,349.26,375.52,346.92,375.52Zm-3.78,3.07h0c0-.65,0-1.3,0-1.94,0-.32-.19-.9-.32-.91-1.32-.06-2.65,0-4,0,0,1.51,0,3,.12,4.5a1.65,1.65,0,0,0,.86,1.2c2.28.77,3.33,0,3.33-2.36Zm-6.92,3.84c-2,0-2.17.06-2.05,1.13.19,1.63.42,3.27.76,4.88s1.67.89,2.61.94,1-.73,1-1.46c-.13-1.19-.4-2.38-.42-3.57C338.06,382.9,337.58,382.14,336.22,382.43Zm13.06,4.94c.17.78-.63,2,1,2.05,2.19.07,2.49,0,2.63-1.67.11-1.24.42-2.45.6-3.69.1-.65.42-1.41-.69-1.62-1.78-.33-2.91,0-3.07,1.09C349.53,384.81,349.42,386.11,349.28,387.37Zm-13.82-5.88c2.21,0,2.29-.08,2.07-2-.1-.89-.31-1.78-.35-2.67s-.5-1.26-1.42-1.28c-3.09-.09-3.09-.12-2.55,3,.07.4.17.79.21,1.18C333.56,381,334.18,381.8,335.46,381.49Zm12.75,3.77c.16-2.93.16-2.88-2.32-2.85-1.06,0-1.42.44-1.4,1.44,0,1.24.07,2.5,0,3.74-.1,1.45.49,2,1.91,1.87,1-.06,1.49-.37,1.56-1.37S348.12,386.2,348.21,385.26Zm4.56-9.72c-2.13,0-2.14,0-2.38,2.09-.06.49-.1,1-.13,1.49-.17,2.43-.08,2.5,2.39,2.38.88,0,1.42-.33,1.53-1.27s.28-1.68.42-2.52C354.93,375.54,354.93,375.54,352.77,375.54Zm-9.63,10.4a15.14,15.14,0,0,1,0-1.65c.17-1.39-.34-2.08-1.82-1.86a2.33,2.33,0,0,1-.59,0c-1.11-.11-1.56.32-1.38,1.47a28.92,28.92,0,0,1,.36,3.72c0,1.42.64,1.87,2,1.85s1.42-.89,1.4-1.89C343.13,387,343.14,386.49,343.14,385.94Z"/><path class="cls-2" d="M387.11,300a9.11,9.11,0,0,1-9.35,9.29,9.36,9.36,0,1,1,.3-18.72A9.11,9.11,0,0,1,387.11,300Z"/><path class="cls-2" d="M337.9,321.93c1,.73,2,1.45,3,2.1a8.07,8.07,0,0,0,10.83-1.22c.92-1,1.37-1,2.35,0a12.91,12.91,0,0,0,3.31,1.84c.36.19.74.36,1.11.54a3.89,3.89,0,0,1-.63,1.09c-2.6,2.34-4.87,4.91-6,8.32a16.17,16.17,0,0,0-.6,2.47c-.14,1-.63,1.15-1.44.71a13.32,13.32,0,0,0-11-.75,8.19,8.19,0,0,1-8-1.12c-1.48-1.14-1.46-1.76,0-2.84,3.46-2.57,5.93-5.79,6.62-10.17a2.67,2.67,0,0,1,.16-.57A2.89,2.89,0,0,1,337.9,321.93ZM331.39,335c.9.5,1.49.86,2.1,1.16,2.19,1.07,4.23.09,6.24-.59a12,12,0,0,1,6.51-.46c1.16.24,2.61,1.16,3.38.74s1-2.12,1.62-3.2c.7-1.3,1.51-2.53,2.4-4h-1.2a28.72,28.72,0,0,1-4.15,0A20.2,20.2,0,0,1,340,325c-1-.66-1.42-.57-1.75.66a16.36,16.36,0,0,1-5.32,8C332.48,334,332.09,334.38,331.39,335Zm24.43-8.82c-2.22-2.28-2.68-2.32-4.88-.9-.7.45-1.52.72-2.28,1.11a9.42,9.42,0,0,0-1,.77C350.7,327.83,353.26,327.79,355.82,326.17Z"/></g></g></svg>