<svg xmlns="http://www.w3.org/2000/svg" viewBox="0 0 1346.68 142.82"><defs><style>.cls-1{fill:#39b54a;}</style></defs><title>Asset 161</title><g id="Layer_2" data-name="Layer 2"><g id="Layer_1-2" data-name="Layer 1"><path class="cls-1" d="M54.77,101q-.37.19-21.85,15.57A129.17,129.17,0,0,1,10.7,129.93a5.05,5.05,0,0,1-2.25.56q-2.61,0-4.85-3.37c-2.24-3-3.43-4.55-3.55-4.67Q-.32,106,2.1,76.62,4.91,45.39,4.91,31.55q0-9.54-.75-18a8.34,8.34,0,0,1,6.16-2.43q7.09,0,8.22,5.23.55,15.32-1.31,45.84t-1.49,45.85a91.48,91.48,0,0,0,13.63-7.84,129.61,129.61,0,0,1,13.26-8.41,24.11,24.11,0,0,0,3.27-.37,24,24,0,0,1,3.45-.37,5.75,5.75,0,0,1,5.42,3C56.26,96.84,56.26,99.16,54.77,101Z"/><path class="cls-1" d="M118.63,29.27a200.17,200.17,0,0,1-20.35,6.54,203.59,203.59,0,0,0-20.36,6.53Q76.24,47.2,75.49,64a19.56,19.56,0,0,0,6.91,1.12,63.75,63.75,0,0,0,8.78-.93,62.58,62.58,0,0,1,8.78-.94,17.15,17.15,0,0,1,9,2.24q2.63,3.73,2.62,4.86a2.28,2.28,0,0,1-1.31,2A22.34,22.34,0,0,0,107.62,75a4.28,4.28,0,0,1-3.74,1.49q-3.91.93-14.38,1.12-8.77.19-14,2.24Q71.95,93.71,72,101.73a20.39,20.39,0,0,0,1.49,8.59q8.78,6.17,30.44,5.23a5.11,5.11,0,0,0,3.18-1.4,4.88,4.88,0,0,1,2.8-1.4q5.22-1.12,6.91,7.84a7.43,7.43,0,0,1-1,5.51,5.56,5.56,0,0,1-4.58,2.71q-22.59.75-39.21-3.55a19.75,19.75,0,0,1-9.53-5.79,16.73,16.73,0,0,1-4.85-10.08,126.28,126.28,0,0,1,0-29.13q-5.24-3.56-4.67-6.91C53,72.22,54,71.2,55.79,70.26s2.83-1.89,3.08-2.89.75-6.91,1.5-17.74Q49.9,47.58,50.1,41.79q.18-5.41,6.53-8.6l12-4.85A94.6,94.6,0,0,1,86.14,22q9-2.43,18.11-4.67a12,12,0,0,1,2.25-.19q5,0,11.76,3.93c.12.49.44,1.43.93,2.8a10,10,0,0,1,.75,3A2.86,2.86,0,0,1,118.63,29.27Z"/><path class="cls-1" d="M211.26,6.3q-1.68,6.72-6.35,7.85-12.14,3-42.2,7.84Q159,68.49,159,99.49q0,11.76.37,23.16a16.77,16.77,0,0,1-.37,5.41c-.62,2-1.87,2.93-3.73,2.8a11.6,11.6,0,0,1-9-4.57,17.21,17.21,0,0,1-3.92-9.81q-.37-6.9-.37-14.56,0-12.33,1.68-39,1.68-25.59,1.49-39a68.24,68.24,0,0,0-14,.93A116.67,116.67,0,0,1,117,26.28q-9.15,0-14.94-4.89c-1.49-3.26-2.24-5-2.24-5.08a4.47,4.47,0,0,1,1.31-2.83q6-2.07,24.46-3.77,16.24-1.7,24.28-6a46.1,46.1,0,0,0,14.94,2.24,61.74,61.74,0,0,0,16.06-2,97.94,97.94,0,0,0,11.39-2.62A31.58,31.58,0,0,1,203.42.14q3.36,0,2.8,2.8Q211.26,2.94,211.26,6.3Z"/><path class="cls-1" d="M220.6,9.66c0,2.5-1.81,4.67-5.42,6.54a4,4,0,0,1-3.17.19c-1.75-.5-2.68-.75-2.8-.75A3.23,3.23,0,0,0,207,16.76a33.53,33.53,0,0,0-10.08,24.65,29.59,29.59,0,0,0,1.68,10.09q.75,2.05,14.19,28.94,9,17.93,9,30.44a41.8,41.8,0,0,1-5,19.8q-1.68,3.16-8.41,8.21-5.42,3.93-9.71,3.93a9,9,0,0,1-3.17-.56q-5.61-2.43-5.61-6.17c0-1.49.94-3.3,2.81-5.41.49-.63,1.68-1,3.54-1.12a4,4,0,0,0,3.74-2.24,38.7,38.7,0,0,0,3.92-16.81q0-12.14-12-35.2T179.7,38.42a44.85,44.85,0,0,1,4.48-20.35A30.67,30.67,0,0,1,198.56,3.31a19.53,19.53,0,0,1,8.4-2q7.84,0,11.77,4.3A6.19,6.19,0,0,1,220.6,9.66Z"/><path class="cls-1" d="M307.81,9.66c0,2.5-1.81,4.67-5.42,6.54a4,4,0,0,1-3.17.19c-1.75-.5-2.68-.75-2.8-.75a3.2,3.2,0,0,0-2.24,1.12,33.5,33.5,0,0,0-10.09,24.65,29.59,29.59,0,0,0,1.68,10.09q.75,2.05,14.19,28.94,9,17.93,9,30.44a41.8,41.8,0,0,1-5,19.8q-1.68,3.16-8.41,8.21-5.42,3.93-9.71,3.93a9,9,0,0,1-3.17-.56q-5.61-2.43-5.61-6.17c0-1.49.94-3.3,2.81-5.41.49-.63,1.68-1,3.54-1.12a4,4,0,0,0,3.74-2.24A38.7,38.7,0,0,0,291,110.51q0-12.14-12-35.2t-12-36.89a44.85,44.85,0,0,1,4.48-20.35A30.72,30.72,0,0,1,285.77,3.31a19.53,19.53,0,0,1,8.41-2c5.22,0,9.15,1.43,11.76,4.3A6.19,6.19,0,0,1,307.81,9.66Z"/><path class="cls-1" d="M381.39,113.68a15.45,15.45,0,0,1,1.12,5.23,8.49,8.49,0,0,1-3.18,6.54q-3.18,2.8-4.29,2.61-9.15-1.68-11.58-14.75a145,145,0,0,0-6.16-23.72l-12.7,1.12q-7.29.95-11.39,4.49a207.1,207.1,0,0,0-5.42,20.54q-3.18,13.62-6.16,20.73-1.5,3.36-6.35,1.86-6.16-2.06-6.54-5.6-.56-7.09,4.11-19,5.59-13.62,6.16-19.42c.12-1.12-.68-2.36-2.43-3.73S314,88.1,314,87.35a3.17,3.17,0,0,1,.84-2c.56-.68,1.87-1.24,3.92-1.68s3.21-1.09,3.46-2q3.36-9.33,10.64-34.74,6.17-22,11-33.8c.75-1.74,2.3-2.61,4.67-2.61a7.18,7.18,0,0,1,4.67,1.68q5.22,4.49,6.72,13.44Q361,33.39,362,41,371.31,85.11,381.39,113.68ZM354.12,78a117.88,117.88,0,0,0-2.43-15.5q-1.86-7.45-3.54-14.94-5.61,15.51-9.72,31Q341.42,78,354.12,78Z"/><path class="cls-1" d="M465.24,15.45q-7.29,13.64-20.73,51-3.93,11-9.34,36.41-5.24,24.29-10.08,36.79a5.17,5.17,0,0,1-3.93,1.87q-2.61,0-6.72-2.8-7.28-17.37-17-57.15-9.17-37.9-18.31-57.7,2.43-4.66,4.11-4.67a5.62,5.62,0,0,1,3-.93q3,0,10.46,5.6a283.15,283.15,0,0,1,12.89,37.53q4.85,19.24,9.89,38.29,6.91-22.79,13.82-45.76A393,393,0,0,1,450.11,9.48q2.81-4.86,9.71-3.18a4.51,4.51,0,0,1,1.87,1.4A4,4,0,0,0,464.49,9c1.12.06,1.68,1,1.68,2.71A8.29,8.29,0,0,1,465.24,15.45Z"/><path class="cls-1" d="M527.42,29.27a200.17,200.17,0,0,1-20.35,6.54,203.59,203.59,0,0,0-20.36,6.53Q485,47.2,484.28,64a19.56,19.56,0,0,0,6.91,1.12A63.75,63.75,0,0,0,500,64.2a62.58,62.58,0,0,1,8.78-.94,17.15,17.15,0,0,1,9,2.24c1.74,2.49,2.62,4.11,2.62,4.86a2.28,2.28,0,0,1-1.31,2A22.34,22.34,0,0,0,516.41,75a4.28,4.28,0,0,1-3.74,1.49q-3.91.93-14.38,1.12-8.78.19-14,2.24-3.54,13.83-3.54,21.85a20.39,20.39,0,0,0,1.49,8.59q8.77,6.17,30.44,5.23a5.13,5.13,0,0,0,3.18-1.4,4.88,4.88,0,0,1,2.8-1.4q5.22-1.12,6.91,7.84a7.43,7.43,0,0,1-1,5.51,5.56,5.56,0,0,1-4.58,2.71q-22.59.75-39.21-3.55a19.75,19.75,0,0,1-9.53-5.79,16.73,16.73,0,0,1-4.85-10.08,126.28,126.28,0,0,1,0-29.13q-5.24-3.56-4.67-6.91c.12-1.13,1.09-2.15,2.89-3.09s2.83-1.89,3.08-2.89.75-6.91,1.5-17.74q-10.47-2.06-10.27-7.84.18-5.41,6.53-8.6l11.95-4.85A94.72,94.72,0,0,1,494.93,22q9-2.43,18.11-4.67a12,12,0,0,1,2.24-.19q5.06,0,11.77,3.93c.12.49.43,1.43.93,2.8a10,10,0,0,1,.75,3A2.86,2.86,0,0,1,527.42,29.27Z"/><path class="cls-1" d="M659.08,125.82c.5,2.49-1.31,3.86-5.41,4.11q-4.11.18-8.41-3.55-3.54-3.18-5.6-10.27-1.87-6.52-2.24-18.49-.37-13.44-1.31-18.49-2.43,8.41-8,25-3.36,9.15-4.11,10.46-3,5.79-7.47,5.23a21.1,21.1,0,0,1-13.82-10.09q-3.18-5.22-6-16.62-3-12.51-5.05-16.81-8,39-17.18,58.27-1.31,2.81-7.84-.37-5.42-2.62-5.42-7.47,0-1.68,3.93-12,1.68-4.47,13.07-43.13,3.91-13.45,8.22-47.25a23.61,23.61,0,0,0,1.86-3.92,3.41,3.41,0,0,1,3.36-2.62c4.24,0,7.16.81,8.78,2.43a134.53,134.53,0,0,0,1.78,17.46A136.67,136.67,0,0,1,604,56q1.68,10.46,3.18,21.1,2,12,7.46,19.61,17.94-49.86,22.79-78.81.74-3,5.6-3,6.91,0,7.84,4.49a81.9,81.9,0,0,1,1.31,15.5q0,2.79-.37,12.13-.19,7.85,0,12.7Q653.48,99.12,659.08,125.82Z"/><path class="cls-1" d="M726.12,82.31q-11,24.84-31.18,29.51a21.77,21.77,0,0,1-4.86.56q-10.65,0-21.48-11.58-7.27-7.85-7.28-20.36,0-13.81,8.22-29.69a45.21,45.21,0,0,1,8.59-11.58q5.79-5.79,11-5.79a8.5,8.5,0,0,1,5.6,2.24q2.61,2.25,14,6,9,3,12.69,10.08Q728,64.21,728,73.16A21.79,21.79,0,0,1,726.12,82.31ZM711.18,70.73q-1.3-13.64-7.28-16.25a4.79,4.79,0,0,0-1.68-.37c-1.5,0-3.36,1.25-5.6,3.74-2.5,2.86-4.42,4.54-5.79,5-.88.37-2.12,0-3.74-1.12s-2.68-1.68-3.17-1.68a1.27,1.27,0,0,0-.94.37q-6.54,5.61-6.53,17.37a24,24,0,0,0,3.73,13.63q5.24,7.67,8.78,7.66,8.22,0,15.87-10.27Q712.12,79.13,711.18,70.73Z"/><path class="cls-1" d="M822.86,6.3q-1.68,6.72-6.35,7.85-12.15,3-42.21,7.84-3.74,46.5-3.73,77.5,0,11.76.37,23.16a17.06,17.06,0,0,1-.37,5.41c-.63,2-1.87,2.93-3.74,2.8a11.59,11.59,0,0,1-9-4.57,17.07,17.07,0,0,1-3.92-9.81q-.39-6.9-.38-14.56,0-12.33,1.68-39,1.68-25.59,1.5-39a68.36,68.36,0,0,0-14,.93,116.76,116.76,0,0,1-14.19,1.49q-9.15,0-14.94-4.89c-1.5-3.26-2.24-5-2.24-5.08a4.45,4.45,0,0,1,1.3-2.83q6-2.07,24.47-3.77,16.25-1.7,24.28-6a46,46,0,0,0,14.94,2.24,61.74,61.74,0,0,0,16.06-2,98.42,98.42,0,0,0,11.39-2.62A31.55,31.55,0,0,1,815,.14c2.24,0,3.18.93,2.8,2.8Q822.87,2.94,822.86,6.3Z"/><path class="cls-1" d="M856.28,18.26q-.37,16.62-5.41,52.66-4.67,34.17-4.67,52.47c0,3.86.12,7.54.37,11a3.69,3.69,0,0,1-1.12,2.52,3.45,3.45,0,0,1-2.61,1.22q-5.24,0-6.91-.94-7.11-4.11-7.1-15.5c0-1.49.1-3.82.28-7s.28-5.51.28-7a102.26,102.26,0,0,1,.94-11.39,105.27,105.27,0,0,0,.93-11.77,27.64,27.64,0,0,1-7.19-.75,37.82,37.82,0,0,0-6.63-.93,14.64,14.64,0,0,0-4.67.75q-4.49,14.75-5.23,43.51a13.87,13.87,0,0,1-12.32-.56q-4.31-2.23-4.3-9a40.26,40.26,0,0,1,.28-4c.19-1.68.28-2.71.28-3.08q.57-10.08,4.3-40,3.16-25,3-39.77c0-1.37,1-2.24,2.89-2.62s3-.74,3.27-1.12q1.13,1.3,5.41,2.24,3.55.75,4.3,3.36a34.46,34.46,0,0,1,1.49,10.46,106.86,106.86,0,0,1-1.21,13,108.41,108.41,0,0,0-1.22,13.54,11.28,11.28,0,0,0,5.61,2.06,31.78,31.78,0,0,0,6.35.18q5.42-.37,6.53-.37,4.66-19.61,8.22-50.8c.5-4.35,2.05-6.53,4.67-6.53Q855,13.2,856.28,18.26Z"/><path class="cls-1" d="M926.69,29.27a201.37,201.37,0,0,1-20.36,6.54A203.23,203.23,0,0,0,886,42.34Q884.3,47.2,883.55,64a19.52,19.52,0,0,0,6.91,1.12,63.8,63.8,0,0,0,8.77-.93,62.72,62.72,0,0,1,8.78-.94,17.18,17.18,0,0,1,9,2.24q2.61,3.73,2.61,4.86a2.28,2.28,0,0,1-1.31,2A22.34,22.34,0,0,0,915.67,75a4.27,4.27,0,0,1-3.74,1.49q-3.91.93-14.38,1.12-8.77.19-14,2.24Q880,93.71,880,101.73a20.54,20.54,0,0,0,1.49,8.59q8.78,6.17,30.44,5.23a5.11,5.11,0,0,0,3.18-1.4,4.88,4.88,0,0,1,2.8-1.4q5.22-1.12,6.91,7.84a7.43,7.43,0,0,1-1,5.51,5.54,5.54,0,0,1-4.57,2.71q-22.61.75-39.22-3.55a19.73,19.73,0,0,1-9.52-5.79,16.69,16.69,0,0,1-4.86-10.08,126.28,126.28,0,0,1,0-29.13q-5.24-3.56-4.67-6.91c.12-1.13,1.09-2.15,2.9-3.09s2.83-1.89,3.08-2.89.74-6.91,1.49-17.74Q858,47.58,858.15,41.79q.18-5.41,6.54-8.6l11.95-4.85A94.6,94.6,0,0,1,894.19,22q9-2.43,18.12-4.67a11.92,11.92,0,0,1,2.24-.19q5,0,11.76,3.93c.13.49.44,1.43.94,2.8a10.27,10.27,0,0,1,.74,3A2.85,2.85,0,0,1,926.69,29.27Z"/><path class="cls-1" d="M1001.39,124a2.72,2.72,0,0,1,.56,1.68q0,4.29-9,6.53-9.9-7.65-24.65-23.53Q951.89,90.9,943.87,84q-.57,4.86-2.06,25.4-.93,15.49-3.36,24.65a9.83,9.83,0,0,0-2.33.93,4.76,4.76,0,0,1-3.27.56q-8.22-1.86-8.22-11.39a49.65,49.65,0,0,1,.75-7.47c.49-3.61.81-5.85.93-6.72q.75-10.83.94-25.77V63.82q0-25.4,2.8-42.76,1.86-11.58,21.85-10.65,10.08.38,17.55,10.09a31.14,31.14,0,0,1,6.91,19.42q0,8.78-6.53,17.55A41,41,0,0,1,956,69.8c-2.24,1.24-3.37,2.61-3.37,4.11s1.31,3.54,3.93,5.79l6,4.85q.19.2,20.55,18.68Q996,114.81,1001.39,124ZM962,40.1a25.51,25.51,0,0,0,.38-6,13.87,13.87,0,0,0-3.27-7.1c-1.81-2.11-4.7-3.17-8.69-3.17q-4.47,0-5.6,2.8a54.79,54.79,0,0,0-.93,10.64q0,2.43.56,12.52a103.13,103.13,0,0,1,0,12.51Q959.93,50.75,962,40.1Z"/><path class="cls-1" d="M1091.4,29.27A200.52,200.52,0,0,1,1071,35.81a203.23,203.23,0,0,0-20.35,6.53Q1049,47.2,1048.26,64a19.52,19.52,0,0,0,6.91,1.12,63.8,63.8,0,0,0,8.77-.93,62.87,62.87,0,0,1,8.78-.94,17.18,17.18,0,0,1,9,2.24q2.61,3.73,2.61,4.86a2.28,2.28,0,0,1-1.31,2,22.34,22.34,0,0,0-2.61,2.62,4.27,4.27,0,0,1-3.74,1.49q-3.92.93-14.38,1.12-8.77.19-14,2.24-3.55,13.83-3.55,21.85a20.54,20.54,0,0,0,1.49,8.59q8.77,6.17,30.44,5.23a5.11,5.11,0,0,0,3.18-1.4,4.88,4.88,0,0,1,2.8-1.4q5.22-1.12,6.91,7.84a7.43,7.43,0,0,1-1,5.51,5.54,5.54,0,0,1-4.57,2.71q-22.61.75-39.22-3.55a19.73,19.73,0,0,1-9.52-5.79,16.69,16.69,0,0,1-4.86-10.08,126.28,126.28,0,0,1,0-29.13q-5.24-3.56-4.67-6.91c.12-1.13,1.09-2.15,2.9-3.09s2.83-1.89,3.08-2.89.74-6.91,1.49-17.74q-10.46-2.06-10.27-7.84.18-5.41,6.54-8.6l11.95-4.85A94.6,94.6,0,0,1,1058.9,22q9-2.43,18.12-4.67a11.92,11.92,0,0,1,2.24-.19q5,0,11.76,3.93c.13.49.44,1.43.94,2.8a10.27,10.27,0,0,1,.74,3A2.85,2.85,0,0,1,1091.4,29.27Z"/><path class="cls-1" d="M1157.32,113.68a15.21,15.21,0,0,1,1.12,5.23,8.51,8.51,0,0,1-3.17,6.54q-3.18,2.8-4.3,2.61-9.15-1.68-11.58-14.75a144,144,0,0,0-6.16-23.72l-12.7,1.12q-7.29.95-11.39,4.49a210,210,0,0,0-5.42,20.54q-3.18,13.62-6.16,20.73c-1,2.24-3.11,2.86-6.35,1.86q-6.17-2.06-6.54-5.6-.56-7.09,4.11-19,5.61-13.62,6.16-19.42.19-1.68-2.42-3.73c-1.75-1.37-2.62-2.43-2.62-3.18a3.17,3.17,0,0,1,.84-2q.84-1,3.93-1.68c2-.43,3.2-1.09,3.45-2q3.36-9.33,10.65-34.74,6.15-22,11-33.8,1.13-2.61,4.67-2.61a7.18,7.18,0,0,1,4.67,1.68q5.24,4.49,6.72,13.44Q1137,33.39,1137.9,41,1147.23,85.11,1157.32,113.68ZM1130.05,78a119.41,119.41,0,0,0-2.42-15.5q-1.87-7.45-3.55-14.94-5.61,15.51-9.71,31Q1117.36,78,1130.05,78Z"/><path class="cls-1" d="M1234.45,124a2.72,2.72,0,0,1,.56,1.68q0,4.29-9,6.53-9.9-7.65-24.65-23.53Q1185,90.9,1176.93,84q-.57,4.86-2.06,25.4-.93,15.49-3.36,24.65a9.83,9.83,0,0,0-2.33.93,4.76,4.76,0,0,1-3.27.56q-8.22-1.86-8.22-11.39a49.65,49.65,0,0,1,.75-7.47l.93-6.72q.75-10.83.94-25.77V63.82q0-25.4,2.8-42.76Q1165,9.48,1185,10.41q10.08.38,17.55,10.09a31.14,31.14,0,0,1,6.91,19.42q0,8.78-6.53,17.55a41,41,0,0,1-13.82,12.33c-2.24,1.24-3.37,2.61-3.37,4.11s1.31,3.54,3.93,5.79l6,4.85q.2.2,20.55,18.68Q1229,114.81,1234.45,124ZM1195,40.1a25.51,25.51,0,0,0,.38-6,13.87,13.87,0,0,0-3.27-7.1c-1.81-2.11-4.7-3.17-8.69-3.17q-4.47,0-5.6,2.8a54.79,54.79,0,0,0-.93,10.64q0,2.43.56,12.52a103.13,103.13,0,0,1,0,12.51Q1193,50.75,1195,40.1Z"/><path class="cls-1" d="M1313.25,6.3q-1.68,6.72-6.35,7.85-12.14,3-42.2,7.84-3.75,46.5-3.74,77.5,0,11.76.38,23.16a16.72,16.72,0,0,1-.38,5.41c-.62,2-1.86,2.93-3.73,2.8a11.6,11.6,0,0,1-9-4.57,17.21,17.21,0,0,1-3.92-9.81q-.37-6.9-.37-14.56,0-12.33,1.68-39,1.68-25.59,1.49-39a68.24,68.24,0,0,0-14,.93,116.67,116.67,0,0,1-14.2,1.49q-9.14,0-14.94-4.89c-1.49-3.26-2.24-5-2.24-5.08a4.47,4.47,0,0,1,1.31-2.83q6-2.07,24.46-3.77,16.26-1.7,24.28-6a46.1,46.1,0,0,0,14.94,2.24,61.69,61.69,0,0,0,16.06-2,97.94,97.94,0,0,0,11.39-2.62A31.6,31.6,0,0,1,1305.41.14q3.36,0,2.8,2.8Q1313.25,2.94,1313.25,6.3Z"/><path class="cls-1" d="M1346.68,18.26q-.37,16.62-5.42,52.66-4.66,34.17-4.66,52.47c0,3.86.12,7.54.37,11a3.69,3.69,0,0,1-1.12,2.52,3.47,3.47,0,0,1-2.62,1.22c-3.48,0-5.79-.31-6.91-.94q-7.1-4.11-7.09-15.5,0-2.23.28-7c.18-3.17.28-5.51.28-7a104.17,104.17,0,0,1,.93-11.39,105.78,105.78,0,0,0,.94-11.77,27.6,27.6,0,0,1-7.19-.75,38.06,38.06,0,0,0-6.63-.93,14.6,14.6,0,0,0-4.67.75q-4.49,14.75-5.23,43.51a13.89,13.89,0,0,1-12.33-.56q-4.29-2.23-4.29-9a37.44,37.44,0,0,1,.28-4c.18-1.68.28-2.71.28-3.08q.55-10.08,4.29-40,3.18-25,3-39.77c0-1.37,1-2.24,2.9-2.62s3-.74,3.26-1.12c.75.87,2.55,1.62,5.42,2.24,2.36.5,3.8,1.62,4.29,3.36a34.14,34.14,0,0,1,1.5,10.46,107.39,107.39,0,0,1-1.22,13,108,108,0,0,0-1.21,13.54,11.25,11.25,0,0,0,5.6,2.06,31.81,31.81,0,0,0,6.35.18q5.42-.37,6.54-.37,4.67-19.61,8.22-50.8c.49-4.35,2-6.53,4.66-6.53Q1345.37,13.2,1346.68,18.26Z"/></g></g></svg>