<svg xmlns="http://www.w3.org/2000/svg" viewBox="0 0 1401.61 164.99"><defs><style>.cls-1{fill:#39b54a;}</style></defs><title>Asset 101</title><g id="Layer_2" data-name="Layer 2"><g id="Layer_1-2" data-name="Layer 1"><path class="cls-1" d="M54.77,123.21q-.37.18-21.85,15.57A128.4,128.4,0,0,1,10.7,152.1a4.94,4.94,0,0,1-2.25.57c-1.74,0-3.36-1.13-4.85-3.37-2.24-3-3.43-4.55-3.55-4.67Q-.32,128.16,2.1,98.8,4.91,67.57,4.91,53.72q0-9.54-.75-17.95a8.35,8.35,0,0,1,6.16-2.44q7.09,0,8.22,5.23.55,15.31-1.31,45.85t-1.49,45.85a91.71,91.71,0,0,0,13.63-7.85A127.24,127.24,0,0,1,42.63,114a24.11,24.11,0,0,0,3.27-.37,24.35,24.35,0,0,1,3.45-.38,5.74,5.74,0,0,1,5.42,3Q57,120.4,54.77,123.21Z"/><path class="cls-1" d="M118.63,51.45A200.17,200.17,0,0,1,98.28,58a201,201,0,0,0-20.36,6.53q-1.68,4.86-2.43,21.66a19.55,19.55,0,0,0,6.91,1.13,62.58,62.58,0,0,0,8.78-.94,63.75,63.75,0,0,1,8.78-.93,17.05,17.05,0,0,1,9,2.24c1.74,2.49,2.62,4.11,2.62,4.85a2.29,2.29,0,0,1-1.31,2.06,21.78,21.78,0,0,0-2.61,2.61,4.31,4.31,0,0,1-3.74,1.5q-3.91.93-14.38,1.12-8.77.18-14,2.24Q71.95,115.88,72,123.91a20.42,20.42,0,0,0,1.49,8.59q8.78,6.17,30.44,5.23a5.13,5.13,0,0,0,3.18-1.4,4.82,4.82,0,0,1,2.8-1.4q5.22-1.12,6.91,7.84a7.43,7.43,0,0,1-1,5.51,5.56,5.56,0,0,1-4.58,2.71q-22.59.73-39.21-3.55a19.75,19.75,0,0,1-9.53-5.79,16.73,16.73,0,0,1-4.85-10.08,126.36,126.36,0,0,1,0-29.14q-5.24-3.54-4.67-6.91C53,94.4,54,93.37,55.79,92.44s2.83-1.9,3.08-2.89.75-6.91,1.5-17.75Q49.9,69.76,50.1,64q.18-5.41,6.53-8.59l11.95-4.85a93.3,93.3,0,0,1,17.56-6.35q9-2.43,18.11-4.67a11.21,11.21,0,0,1,2.24-.19q5.06,0,11.77,3.92c.12.5.43,1.44.93,2.8a10.16,10.16,0,0,1,.75,3A2.86,2.86,0,0,1,118.63,51.45Z"/><path class="cls-1" d="M211.26,28.48q-1.68,6.72-6.35,7.84-12.14,3-42.2,7.85Q159,90.67,159,121.67q0,11.76.37,23.15a16.84,16.84,0,0,1-.37,5.42c-.62,2-1.87,2.92-3.73,2.8a11.6,11.6,0,0,1-9-4.57,17.23,17.23,0,0,1-3.92-9.81q-.37-6.9-.37-14.57,0-12.32,1.68-39,1.68-25.57,1.49-39a69.11,69.11,0,0,0-14,.94A116.67,116.67,0,0,1,117,48.46q-9.15,0-14.94-4.89c-1.49-3.27-2.24-5-2.24-5.09a4.45,4.45,0,0,1,1.31-2.82q6-2.07,24.46-3.77,16.24-1.7,24.28-6a45.82,45.82,0,0,0,14.94,2.25,61.74,61.74,0,0,0,16.06-2.06,94.8,94.8,0,0,0,11.39-2.61,31.35,31.35,0,0,1,11.21-1.12q3.36,0,2.8,2.8Q211.26,25.12,211.26,28.48Z"/><path class="cls-1" d="M222.74,64.41a1.25,1.25,0,0,1-1.91.61,6,6,0,0,1-1.91-2.3q-6.42-11.89-2.25-29.14L226.09,4.5a5.75,5.75,0,0,1,4.8-4.45,3.53,3.53,0,0,1,3.46,1.26q.48.59,2.24,7.12c.58,2.26.26,5.11-1,8.53Q233.9,21.3,232,25.5q-2.28,5.76-4.45,20.14Q225.66,58.86,222.74,64.41Z"/><path class="cls-1" d="M275.53,31.84q0,3.73-5.42,6.54a4,4,0,0,1-3.17.18c-1.75-.49-2.68-.74-2.8-.74a3.2,3.2,0,0,0-2.24,1.12,33.5,33.5,0,0,0-10.09,24.65,29.53,29.53,0,0,0,1.68,10.08q.75,2.06,14.2,29,9,17.92,9,30.44a41.76,41.76,0,0,1-5,19.79q-1.68,3.18-8.4,8.22c-3.62,2.62-6.85,3.92-9.72,3.92a8.78,8.78,0,0,1-3.17-.56c-3.74-1.62-5.6-3.67-5.6-6.16q0-2.24,2.8-5.42c.49-.62,1.68-1,3.55-1.12a4,4,0,0,0,3.73-2.24,38.51,38.51,0,0,0,3.92-16.8q0-12.15-12-35.21T234.63,60.6a45,45,0,0,1,4.48-20.36,30.78,30.78,0,0,1,14.38-14.75,19.42,19.42,0,0,1,8.41-2q7.85,0,11.76,4.29A6.15,6.15,0,0,1,275.53,31.84Z"/><path class="cls-1" d="M362.74,31.84c0,2.49-1.81,4.67-5.41,6.54a4,4,0,0,1-3.18.18c-1.74-.49-2.68-.74-2.8-.74a3.21,3.21,0,0,0-2.24,1.12A33.54,33.54,0,0,0,339,63.59a29.53,29.53,0,0,0,1.68,10.08q.75,2.06,14.2,29,9,17.92,9,30.44a41.76,41.76,0,0,1-5,19.79q-1.68,3.18-8.4,8.22c-3.62,2.62-6.85,3.92-9.72,3.92a8.78,8.78,0,0,1-3.17-.56c-3.74-1.62-5.6-3.67-5.6-6.16q0-2.24,2.8-5.42c.49-.62,1.68-1,3.55-1.12a4,4,0,0,0,3.73-2.24,38.51,38.51,0,0,0,3.92-16.8q0-12.15-12-35.21T321.84,60.6a45,45,0,0,1,4.48-20.36A30.78,30.78,0,0,1,340.7,25.49a19.42,19.42,0,0,1,8.41-2q7.84,0,11.76,4.29A6.15,6.15,0,0,1,362.74,31.84Z"/><path class="cls-1" d="M436.32,135.86a15.16,15.16,0,0,1,1.12,5.23,8.46,8.46,0,0,1-3.18,6.53q-3.17,2.81-4.29,2.62-9.15-1.68-11.58-14.75a144,144,0,0,0-6.16-23.72l-12.7,1.12q-7.29.93-11.39,4.48a210.82,210.82,0,0,0-5.42,20.54q-3.18,13.64-6.16,20.73c-1,2.24-3.11,2.87-6.35,1.87q-6.16-2.06-6.54-5.6-.56-7.09,4.11-19,5.61-13.64,6.16-19.42c.13-1.12-.68-2.36-2.42-3.74s-2.62-2.42-2.62-3.17a3.15,3.15,0,0,1,.84-2c.56-.69,1.87-1.25,3.92-1.68s3.21-1.09,3.46-2q3.36-9.34,10.64-34.74,6.17-22,11-33.8c.75-1.74,2.3-2.62,4.67-2.62a7.14,7.14,0,0,1,4.67,1.69q5.22,4.47,6.72,13.44,1.13,7.66,2.06,15.31Q426.23,107.29,436.32,135.86Zm-27.27-35.67a119.41,119.41,0,0,0-2.42-15.5q-1.87-7.47-3.55-14.94-5.61,15.51-9.71,31Q396.36,100.2,409.05,100.19Z"/><path class="cls-1" d="M520.17,37.63q-7.29,13.63-20.73,51-3.92,11-9.34,36.42Q484.88,149.3,480,161.82a5.15,5.15,0,0,1-3.92,1.87q-2.62,0-6.73-2.81-7.28-17.35-17-57.14-9.15-37.9-18.3-57.71c1.61-3.11,3-4.66,4.11-4.66a5.52,5.52,0,0,1,3-.94q3,0,10.46,5.6a283.34,283.34,0,0,1,12.89,37.54q4.85,19.23,9.9,38.28,6.9-22.77,13.81-45.75A393.27,393.27,0,0,1,505,31.65q2.81-4.84,9.71-3.17a4.42,4.42,0,0,1,1.87,1.4,4,4,0,0,0,2.8,1.31q1.68.09,1.68,2.7A8.3,8.3,0,0,1,520.17,37.63Z"/><path class="cls-1" d="M582.36,51.45A201.37,201.37,0,0,1,562,58a201.83,201.83,0,0,0-20.36,6.53q-1.68,4.86-2.42,21.66a19.51,19.51,0,0,0,6.91,1.13,62.62,62.62,0,0,0,8.77-.94,63.9,63.9,0,0,1,8.78-.93,17.05,17.05,0,0,1,9,2.24q2.63,3.73,2.62,4.85A2.29,2.29,0,0,1,574,94.59a21.78,21.78,0,0,0-2.61,2.61,4.3,4.3,0,0,1-3.74,1.5q-3.92.93-14.38,1.12-8.78.18-14,2.24-3.56,13.81-3.55,21.85a20.42,20.42,0,0,0,1.49,8.59q8.77,6.17,30.44,5.23a5.11,5.11,0,0,0,3.18-1.4,4.82,4.82,0,0,1,2.8-1.4q5.22-1.12,6.91,7.84a7.43,7.43,0,0,1-1,5.51,5.54,5.54,0,0,1-4.57,2.71q-22.6.73-39.22-3.55a19.8,19.8,0,0,1-9.53-5.79,16.73,16.73,0,0,1-4.85-10.08,126.36,126.36,0,0,1,0-29.14q-5.24-3.54-4.67-6.91c.12-1.12,1.09-2.15,2.89-3.08s2.83-1.9,3.09-2.89.74-6.91,1.49-17.75q-10.46-2-10.27-7.84.18-5.41,6.54-8.59l11.95-4.85a93.18,93.18,0,0,1,17.55-6.35q9-2.43,18.12-4.67a11.07,11.07,0,0,1,2.24-.19q5,0,11.76,3.92c.12.5.44,1.44.94,2.8a10.38,10.38,0,0,1,.74,3A2.85,2.85,0,0,1,582.36,51.45Z"/><path class="cls-1" d="M714,148q.75,3.74-5.41,4.11-4.11.18-8.41-3.55-3.54-3.18-5.6-10.27-1.86-6.54-2.24-18.49Q692,106.36,691,101.31q-2.43,8.4-8,25-3.36,9.15-4.11,10.45-3,5.79-7.46,5.23a21.07,21.07,0,0,1-13.82-10.08q-3.18-5.24-6-16.62-3-12.51-5-16.81-8,39-17.18,58.27-1.32,2.79-7.85-.38-5.42-2.61-5.41-7.47,0-1.68,3.92-12,1.68-4.48,13.07-43.14,3.93-13.44,8.22-47.25a22.31,22.31,0,0,0,1.87-3.92,3.4,3.4,0,0,1,3.36-2.61c4.23,0,7.16.81,8.77,2.43A134.53,134.53,0,0,0,657.15,60a136.7,136.7,0,0,1,1.77,18.2q1.68,10.47,3.18,21.11,2.05,12,7.47,19.61Q687.49,69,692.35,40.06c.5-2,2.36-3,5.6-3q6.91,0,7.85,4.48a82,82,0,0,1,1.3,15.5q0,2.81-.37,12.14-.18,7.84,0,12.7Q708.41,121.29,714,148Z"/><path class="cls-1" d="M781.06,104.49q-11,24.84-31.19,29.5a21.2,21.2,0,0,1-4.86.56q-10.63,0-21.47-11.58-7.29-7.83-7.29-20.35,0-13.82,8.22-29.69a45,45,0,0,1,8.59-11.58q5.79-5.79,11-5.79a8.43,8.43,0,0,1,5.6,2.24q2.61,2.23,14,6,9,3,12.7,10.09,6.52,12.51,6.53,21.48A21.94,21.94,0,0,1,781.06,104.49ZM766.12,92.91q-1.32-13.64-7.29-16.25a4.53,4.53,0,0,0-1.68-.37q-2.24,0-5.6,3.73-3.74,4.31-5.79,5c-.87.38-2.12,0-3.73-1.12s-2.68-1.68-3.18-1.68a1.25,1.25,0,0,0-.93.38q-6.54,5.6-6.54,17.36a24,24,0,0,0,3.74,13.64q5.22,7.65,8.77,7.65,8.22,0,15.88-10.27Q767,101.32,766.12,92.91Z"/><path class="cls-1" d="M877.79,28.48q-1.68,6.72-6.35,7.84-12.13,3-42.21,7.85-3.74,46.5-3.73,77.5,0,11.76.37,23.15a16.84,16.84,0,0,1-.37,5.42q-.93,3-3.74,2.8a11.59,11.59,0,0,1-9-4.57,17.16,17.16,0,0,1-3.92-9.81q-.37-6.9-.37-14.57,0-12.32,1.68-39,1.68-25.57,1.49-39a69.24,69.24,0,0,0-14,.94,116.57,116.57,0,0,1-14.19,1.49q-9.15,0-14.94-4.89c-1.49-3.27-2.24-5-2.24-5.09a4.45,4.45,0,0,1,1.31-2.82q6-2.07,24.46-3.77,16.24-1.7,24.28-6a45.82,45.82,0,0,0,14.94,2.25,61.74,61.74,0,0,0,16.06-2.06,95.24,95.24,0,0,0,11.39-2.61A31.35,31.35,0,0,1,870,22.32q3.36,0,2.8,2.8Q877.79,25.12,877.79,28.48Z"/><path class="cls-1" d="M911.22,40.43q-.37,16.62-5.42,52.66-4.66,34.18-4.67,52.48c0,3.86.12,7.53.38,11a3.73,3.73,0,0,1-1.12,2.52,3.46,3.46,0,0,1-2.62,1.21q-5.24,0-6.91-.93-7.1-4.11-7.1-15.5c0-1.49.1-3.83.28-7s.28-5.51.28-7a102.62,102.62,0,0,1,.94-11.39,105,105,0,0,0,.93-11.76A28.55,28.55,0,0,1,879,106a37.82,37.82,0,0,0-6.63-.93,14.92,14.92,0,0,0-4.67.74q-4.47,14.76-5.22,43.52a13.89,13.89,0,0,1-12.33-.56q-4.3-2.25-4.3-9c0-1,.1-2.33.28-4s.28-2.71.28-3.08q.57-10.09,4.3-40,3.16-25,3-39.78c0-1.36,1-2.24,2.89-2.61s3-.75,3.27-1.12c.75.87,2.55,1.62,5.42,2.24q3.54.75,4.29,3.36a34.09,34.09,0,0,1,1.5,10.46,107.39,107.39,0,0,1-1.22,13,107.84,107.84,0,0,0-1.21,13.54,11.2,11.2,0,0,0,5.6,2,32.41,32.41,0,0,0,6.35.19q5.42-.37,6.54-.37,4.67-19.62,8.21-50.8.75-6.54,4.67-6.54Q909.91,35.39,911.22,40.43Z"/><path class="cls-1" d="M981.62,51.45A200.52,200.52,0,0,1,961.26,58a200.63,200.63,0,0,0-20.35,6.53q-1.68,4.86-2.43,21.66a19.55,19.55,0,0,0,6.91,1.13,62.72,62.72,0,0,0,8.78-.94,63.8,63.8,0,0,1,8.77-.93,17.06,17.06,0,0,1,9,2.24q2.61,3.73,2.61,4.85a2.3,2.3,0,0,1-1.3,2.06,22.28,22.28,0,0,0-2.62,2.61,4.29,4.29,0,0,1-3.73,1.5q-3.93.93-14.38,1.12-8.79.18-14,2.24-3.56,13.81-3.55,21.85a20.4,20.4,0,0,0,1.5,8.59q8.77,6.17,30.44,5.23a5.11,5.11,0,0,0,3.17-1.4,4.84,4.84,0,0,1,2.8-1.4q5.24-1.12,6.91,7.84a7.43,7.43,0,0,1-1,5.51,5.56,5.56,0,0,1-4.58,2.71q-22.6.73-39.22-3.55a19.73,19.73,0,0,1-9.52-5.79,16.75,16.75,0,0,1-4.86-10.08,126.36,126.36,0,0,1,0-29.14q-5.22-3.54-4.67-6.91c.13-1.12,1.09-2.15,2.9-3.08s2.83-1.9,3.08-2.89.75-6.91,1.49-17.75q-10.46-2-10.27-7.84.18-5.41,6.54-8.59l12-4.85a93,93,0,0,1,17.56-6.35q9-2.43,18.11-4.67a11.14,11.14,0,0,1,2.24-.19q5,0,11.77,3.92c.12.5.43,1.44.93,2.8a10.16,10.16,0,0,1,.75,3A2.86,2.86,0,0,1,981.62,51.45Z"/><path class="cls-1" d="M1056.32,146.13a2.76,2.76,0,0,1,.56,1.68q0,4.29-9,6.54-9.89-7.66-24.65-23.53-16.43-17.75-24.46-24.65-.56,4.86-2,25.4-.94,15.5-3.37,24.65a10,10,0,0,0-2.33.93,4.76,4.76,0,0,1-3.27.56q-8.22-1.87-8.21-11.39a49.29,49.29,0,0,1,.74-7.47q.75-5.41.94-6.73.74-10.82.93-25.77V86q0-25.4,2.8-42.77,1.86-11.58,21.85-10.64,10.08.38,17.56,10.08a31.2,31.2,0,0,1,6.9,19.42q0,8.79-6.53,17.56A40.8,40.8,0,0,1,1010.94,92q-3.36,1.88-3.36,4.11c0,1.62,1.3,3.55,3.92,5.79l6,4.86q.18.18,20.54,18.67Q1050.9,137,1056.32,146.13Zm-39.41-83.85a25.56,25.56,0,0,0,.38-6,13.87,13.87,0,0,0-3.27-7.09q-2.71-3.18-8.68-3.18c-3,0-4.86.94-5.61,2.8a55,55,0,0,0-.93,10.65q0,2.43.56,12.51a103.1,103.1,0,0,1,0,12.51Q1014.86,72.94,1016.91,62.28Z"/><path class="cls-1" d="M1146.33,51.45A200.52,200.52,0,0,1,1126,58a200.63,200.63,0,0,0-20.35,6.53q-1.68,4.86-2.43,21.66a19.55,19.55,0,0,0,6.91,1.13,62.72,62.72,0,0,0,8.78-.94,63.8,63.8,0,0,1,8.77-.93,17.06,17.06,0,0,1,9,2.24q2.61,3.73,2.61,4.85a2.28,2.28,0,0,1-1.3,2.06,22.28,22.28,0,0,0-2.62,2.61,4.29,4.29,0,0,1-3.73,1.5q-3.93.93-14.38,1.12-8.79.18-14,2.24-3.56,13.81-3.55,21.85a20.4,20.4,0,0,0,1.5,8.59q8.77,6.17,30.44,5.23a5.11,5.11,0,0,0,3.17-1.4,4.84,4.84,0,0,1,2.8-1.4q5.23-1.12,6.91,7.84a7.43,7.43,0,0,1-1,5.51,5.56,5.56,0,0,1-4.58,2.71q-22.6.73-39.22-3.55a19.73,19.73,0,0,1-9.52-5.79,16.75,16.75,0,0,1-4.86-10.08,126.36,126.36,0,0,1,0-29.14q-5.22-3.54-4.67-6.91c.13-1.12,1.09-2.15,2.9-3.08s2.83-1.9,3.08-2.89.75-6.91,1.49-17.75q-10.45-2-10.27-7.84.18-5.41,6.54-8.59l12-4.85a93,93,0,0,1,17.56-6.35q9-2.43,18.11-4.67a11.14,11.14,0,0,1,2.24-.19q5,0,11.77,3.92c.12.5.43,1.44.93,2.8a10.16,10.16,0,0,1,.75,3A2.86,2.86,0,0,1,1146.33,51.45Z"/><path class="cls-1" d="M1212.25,135.86a15.16,15.16,0,0,1,1.12,5.23,8.48,8.48,0,0,1-3.17,6.53q-3.18,2.81-4.3,2.62-9.15-1.68-11.58-14.75a143,143,0,0,0-6.16-23.72l-12.7,1.12q-7.28.93-11.39,4.48-2.05,5.79-5.42,20.54a135.61,135.61,0,0,1-6.16,20.73c-1,2.24-3.11,2.87-6.35,1.87q-6.17-2.06-6.53-5.6-.57-7.09,4.11-19,5.6-13.64,6.16-19.42c.12-1.12-.69-2.36-2.43-3.74s-2.61-2.42-2.61-3.17a3.15,3.15,0,0,1,.84-2c.56-.69,1.86-1.25,3.92-1.68s3.2-1.09,3.45-2q3.36-9.34,10.65-34.74,6.16-22,11-33.8c.74-1.74,2.3-2.62,4.66-2.62a7.12,7.12,0,0,1,4.67,1.69q5.23,4.47,6.73,13.44,1.11,7.66,2,15.31Q1202.16,107.29,1212.25,135.86ZM1185,100.19a121.32,121.32,0,0,0-2.43-15.5q-1.87-7.47-3.55-14.94-5.6,15.51-9.71,31Q1172.28,100.2,1185,100.19Z"/><path class="cls-1" d="M1289.38,146.13a2.76,2.76,0,0,1,.56,1.68q0,4.29-9,6.54-9.92-7.66-24.66-23.53-16.42-17.75-24.46-24.65-.55,4.86-2,25.4-.94,15.5-3.37,24.65a10,10,0,0,0-2.33.93,4.76,4.76,0,0,1-3.27.56q-8.22-1.87-8.21-11.39a49.29,49.29,0,0,1,.74-7.47q.75-5.41.94-6.73.74-10.82.93-25.77V86q0-25.4,2.8-42.77,1.86-11.58,21.85-10.64,10.08.38,17.55,10.08a31.16,31.16,0,0,1,6.91,19.42q0,8.79-6.53,17.56A40.8,40.8,0,0,1,1244,92q-3.36,1.88-3.36,4.11c0,1.62,1.3,3.55,3.92,5.79l6,4.86q.18.18,20.54,18.67Q1284,137,1289.38,146.13ZM1250,62.28a26.06,26.06,0,0,0,.37-6,13.79,13.79,0,0,0-3.27-7.09Q1244.37,46,1238.4,46c-3,0-4.86.94-5.61,2.8a55,55,0,0,0-.93,10.65q0,2.43.56,12.51a103.1,103.1,0,0,1,0,12.51Q1247.92,72.94,1250,62.28Z"/><path class="cls-1" d="M1368.18,28.48q-1.67,6.72-6.34,7.84-12.15,3-42.21,7.85-3.74,46.5-3.73,77.5,0,11.76.37,23.15a17.13,17.13,0,0,1-.37,5.42c-.63,2-1.87,2.92-3.74,2.8a11.59,11.59,0,0,1-9-4.57,17.18,17.18,0,0,1-3.93-9.81q-.37-6.9-.37-14.57,0-12.32,1.68-39,1.68-25.57,1.49-39a69.15,69.15,0,0,0-14,.94,116.76,116.76,0,0,1-14.19,1.49q-9.15,0-14.94-4.89c-1.5-3.27-2.24-5-2.24-5.09a4.43,4.43,0,0,1,1.3-2.82q6-2.07,24.47-3.77,16.24-1.7,24.27-6a45.82,45.82,0,0,0,14.94,2.25,61.63,61.63,0,0,0,16.06-2.06,95.22,95.22,0,0,0,11.4-2.61,31.3,31.3,0,0,1,11.2-1.12c2.24,0,3.18.93,2.8,2.8Q1368.18,25.12,1368.18,28.48Z"/><path class="cls-1" d="M1401.61,40.43q-.37,16.62-5.41,52.66-4.68,34.18-4.67,52.48,0,5.79.37,11a3.69,3.69,0,0,1-1.12,2.52,3.45,3.45,0,0,1-2.61,1.21q-5.24,0-6.91-.93-7.11-4.11-7.1-15.5c0-1.49.09-3.83.28-7s.28-5.51.28-7a104.54,104.54,0,0,1,.93-11.39,103.08,103.08,0,0,0,.94-11.76,28.51,28.51,0,0,1-7.19-.75,37.82,37.82,0,0,0-6.63-.93,14.87,14.87,0,0,0-4.67.74q-4.49,14.76-5.23,43.52a13.87,13.87,0,0,1-12.32-.56q-4.3-2.25-4.3-9a37.45,37.45,0,0,1,.28-4c.19-1.68.28-2.71.28-3.08q.56-10.09,4.3-40,3.17-25,3-39.78c0-1.36,1-2.24,2.9-2.61s3-.75,3.27-1.12c.74.87,2.55,1.62,5.41,2.24q3.55.75,4.3,3.36a34.41,34.41,0,0,1,1.49,10.46,106.86,106.86,0,0,1-1.21,13A108.26,108.26,0,0,0,1359,91.79a11.28,11.28,0,0,0,5.61,2A32.3,32.3,0,0,0,1371,94q5.41-.37,6.54-.37,4.67-19.62,8.22-50.8.73-6.54,4.67-6.54Q1400.3,35.39,1401.61,40.43Z"/></g></g></svg>