<svg xmlns="http://www.w3.org/2000/svg" viewBox="0 0 557.89 88.01"><defs><style>.cls-1{fill:#333;}.cls-2{fill:#fff;}.cls-3{fill:#f2f2f2;}</style></defs><title>Asset 13popup-lables</title><g id="Layer_2" data-name="Layer 2"><g id="Layer_1-2" data-name="Layer 1"><rect class="cls-1" width="343.09" height="88.01" rx="13.55"/><rect class="cls-1" x="361.69" width="88.38" height="88.01" rx="13.55"/><rect class="cls-1" x="469.51" width="88.38" height="88.01" rx="13.55"/><path class="cls-2" d="M36.31,51V39.5H33.66v-3H40V51Z"/><path class="cls-2" d="M60.59,38.18A17.38,17.38,0,1,1,49.67,27.26V23.38a21.39,21.39,0,0,0-5.59-.74A21.14,21.14,0,1,0,65.22,43.77a21.46,21.46,0,0,0-.75-5.59Z"/><path class="cls-2" d="M59.53,28.31V24.25H56.62v4.06h-4v2.91h4v4.05h2.91V31.22h4.06V28.31Z"/><path class="cls-2" d="M94.5,26.13a2.71,2.71,0,0,1,.59,1.71,2.77,2.77,0,0,1-.43,1.54,2.83,2.83,0,0,1-1.24,1,4.49,4.49,0,0,1-1.91.37H86.83V19.93h4.48a4.6,4.6,0,0,1,1.9.36,2.7,2.7,0,0,1,1.22,1,2.67,2.67,0,0,1,.41,1.45,2.44,2.44,0,0,1-.51,1.58,2.66,2.66,0,0,1-1.34.91A2.47,2.47,0,0,1,94.5,26.13ZM89,24.41h2a1.85,1.85,0,0,0,1.2-.35,1.25,1.25,0,0,0,.42-1,1.26,1.26,0,0,0-.42-1,1.85,1.85,0,0,0-1.2-.35H89Zm3.43,4.23a1.32,1.32,0,0,0,.44-1.06,1.38,1.38,0,0,0-.47-1.1,1.9,1.9,0,0,0-1.26-.39H89V29H91.2A1.87,1.87,0,0,0,92.44,28.64Z"/><path class="cls-2" d="M105,22.17v8.61h-2.19V29.69a2.81,2.81,0,0,1-1.1.88,3.44,3.44,0,0,1-1.47.32,3.55,3.55,0,0,1-1.78-.43,3,3,0,0,1-1.23-1.26,4.19,4.19,0,0,1-.44-2v-5h2.18v4.74a2.24,2.24,0,0,0,.51,1.58,1.81,1.81,0,0,0,1.4.55,1.85,1.85,0,0,0,1.42-.55,2.24,2.24,0,0,0,.51-1.58V22.17Z"/><path class="cls-2" d="M111.06,24h-1.51v6.82h-2.21V24h-1V22.17h1v-.44a2.87,2.87,0,0,1,.9-2.33,4,4,0,0,1,2.72-.7v1.84a1.56,1.56,0,0,0-1.1.26,1.31,1.31,0,0,0-.31,1v.36h1.51Z"/><path class="cls-2" d="M116.42,24h-1.51v6.82h-2.2V24h-1V22.17h1v-.44a2.87,2.87,0,0,1,.9-2.33,4,4,0,0,1,2.72-.7v1.84a1.57,1.57,0,0,0-1.11.26,1.35,1.35,0,0,0-.31,1v.36h1.51Z"/><path class="cls-2" d="M117.8,24.13a3.7,3.7,0,0,1,3.41-2.1,3.51,3.51,0,0,1,1.69.39,3.39,3.39,0,0,1,1.16,1V22.17h2.19v8.61h-2.19V29.52a3.28,3.28,0,0,1-1.16,1,3.58,3.58,0,0,1-1.7.39,3.63,3.63,0,0,1-2-.56,4,4,0,0,1-1.41-1.58,5,5,0,0,1-.52-2.34A4.92,4.92,0,0,1,117.8,24.13Zm6,1a2.34,2.34,0,0,0-.84-.87,2.29,2.29,0,0,0-1.14-.3,2.19,2.19,0,0,0-1.12.3,2.15,2.15,0,0,0-.83.86,2.74,2.74,0,0,0-.32,1.34,2.86,2.86,0,0,0,.32,1.37,2.33,2.33,0,0,0,.84.89,2.12,2.12,0,0,0,1.11.31,2.29,2.29,0,0,0,1.14-.3,2.34,2.34,0,0,0,.84-.87,3.16,3.16,0,0,0,0-2.73Z"/><path class="cls-2" d="M130.56,19.28v11.5h-2.18V19.28Z"/><path class="cls-2" d="M134.29,30.37a4,4,0,0,1-1.56-1.56,4.69,4.69,0,0,1-.57-2.34,4.58,4.58,0,0,1,.58-2.33,4.11,4.11,0,0,1,1.59-1.56,4.64,4.64,0,0,1,2.26-.55,4.57,4.57,0,0,1,2.25.55,4.07,4.07,0,0,1,1.6,1.56,4.58,4.58,0,0,1,.58,2.33,4.5,4.5,0,0,1-.6,2.34,4.23,4.23,0,0,1-1.61,1.56,4.69,4.69,0,0,1-2.28.55A4.51,4.51,0,0,1,134.29,30.37Zm3.35-1.63a2.06,2.06,0,0,0,.83-.87,2.87,2.87,0,0,0,.31-1.4,2.58,2.58,0,0,0-.64-1.88,2.13,2.13,0,0,0-1.58-.66,2.07,2.07,0,0,0-1.56.66,2.62,2.62,0,0,0-.63,1.88,2.67,2.67,0,0,0,.61,1.89,2,2,0,0,0,1.55.67A2.3,2.3,0,0,0,137.64,28.74Z"/><path class="cls-2" d="M154.27,27.13H148a2.11,2.11,0,0,0,.66,1.46,2,2,0,0,0,1.41.53,1.79,1.79,0,0,0,1.73-1h2.34a3.82,3.82,0,0,1-1.43,2,4.12,4.12,0,0,1-2.59.8,4.44,4.44,0,0,1-2.23-.55,3.85,3.85,0,0,1-1.54-1.56,4.79,4.79,0,0,1-.56-2.34,4.87,4.87,0,0,1,.55-2.34,3.75,3.75,0,0,1,1.52-1.56,4.63,4.63,0,0,1,2.26-.54,4.45,4.45,0,0,1,2.2.53,3.7,3.7,0,0,1,1.51,1.5,4.62,4.62,0,0,1,.53,2.23A5.35,5.35,0,0,1,154.27,27.13Zm-2.19-1.46a1.76,1.76,0,0,0-.61-1.35,2.13,2.13,0,0,0-1.45-.5,2,2,0,0,0-1.36.49,2.16,2.16,0,0,0-.67,1.36Z"/><path class="cls-2" d="M163.18,23a3.75,3.75,0,0,1,.95,2.72v5.05H162V26a2.21,2.21,0,0,0-.51-1.57,1.82,1.82,0,0,0-1.4-.56,1.84,1.84,0,0,0-1.42.56A2.17,2.17,0,0,0,158.1,26v4.76h-2.18V22.17h2.18v1.07a3,3,0,0,1,1.11-.88,3.45,3.45,0,0,1,1.48-.32A3.34,3.34,0,0,1,163.18,23Z"/><path class="cls-2" d="M174.14,27.13h-6.3a2.15,2.15,0,0,0,.66,1.46,2,2,0,0,0,1.41.53,1.79,1.79,0,0,0,1.73-1H174a3.93,3.93,0,0,1-1.43,2,4.15,4.15,0,0,1-2.6.8,4.47,4.47,0,0,1-2.23-.55,3.92,3.92,0,0,1-1.54-1.56,4.79,4.79,0,0,1-.55-2.34,4.87,4.87,0,0,1,.54-2.34,3.71,3.71,0,0,1,1.53-1.56A4.57,4.57,0,0,1,170,22a4.45,4.45,0,0,1,2.2.53,3.7,3.7,0,0,1,1.51,1.5,4.51,4.51,0,0,1,.53,2.23A5.35,5.35,0,0,1,174.14,27.13ZM172,25.67a1.72,1.72,0,0,0-.61-1.35,2.11,2.11,0,0,0-1.44-.5,1.94,1.94,0,0,0-1.36.49,2.12,2.12,0,0,0-.68,1.36Z"/><path class="cls-2" d="M179.06,22.43a3.08,3.08,0,0,1,1.55-.39v2.29H180a2.21,2.21,0,0,0-1.55.48,2.21,2.21,0,0,0-.52,1.68v4.29h-2.18V22.17H178v1.34A3,3,0,0,1,179.06,22.43Z"/><path class="cls-2" d="M187.14,22.41a3,3,0,0,1,1.15,1V22.17h2.2v8.68A4.61,4.61,0,0,1,190,33a3.58,3.58,0,0,1-1.44,1.5,4.74,4.74,0,0,1-2.34.55,5,5,0,0,1-3-.86,3.14,3.14,0,0,1-1.33-2.33h2.16a1.59,1.59,0,0,0,.74.94,2.56,2.56,0,0,0,1.37.35,2.12,2.12,0,0,0,1.54-.57,2.25,2.25,0,0,0,.59-1.71V29.51a3.29,3.29,0,0,1-1.16,1,3.42,3.42,0,0,1-1.68.4,3.63,3.63,0,0,1-2-.56A3.92,3.92,0,0,1,182,28.78a5.11,5.11,0,0,1-.52-2.34,5,5,0,0,1,.52-2.31,3.73,3.73,0,0,1,3.42-2.1A3.54,3.54,0,0,1,187.14,22.41Zm.84,2.7a2.34,2.34,0,0,0-.84-.87,2.25,2.25,0,0,0-1.13-.3,2.2,2.2,0,0,0-1.95,1.16,2.63,2.63,0,0,0-.32,1.34,2.75,2.75,0,0,0,.32,1.37,2.33,2.33,0,0,0,.84.89A2.07,2.07,0,0,0,186,29a2.25,2.25,0,0,0,1.13-.3,2.34,2.34,0,0,0,.84-.87,3.16,3.16,0,0,0,0-2.73Z"/><path class="cls-2" d="M200.86,22.17l-5.34,12.69h-2.31l1.86-4.3-3.45-8.39h2.44l2.23,6,2.25-6Z"/><path class="cls-2" d="M205.69,24.13a3.71,3.71,0,0,1,1.42-1.56,3.82,3.82,0,0,1,2-.54,3.75,3.75,0,0,1,1.61.36,3.27,3.27,0,0,1,1.21,1V19.28h2.21v11.5h-2.21V29.51a3,3,0,0,1-1.14,1,3.51,3.51,0,0,1-1.69.39,3.63,3.63,0,0,1-2-.56,3.83,3.83,0,0,1-1.42-1.58,5,5,0,0,1-.53-2.34A4.92,4.92,0,0,1,205.69,24.13Zm5.94,1a2.2,2.2,0,0,0-.84-.87,2.25,2.25,0,0,0-1.13-.3,2.2,2.2,0,0,0-1.95,1.16,2.63,2.63,0,0,0-.32,1.34,2.75,2.75,0,0,0,.32,1.37,2.33,2.33,0,0,0,.84.89,2.07,2.07,0,0,0,1.11.31,2.25,2.25,0,0,0,1.13-.3,2.2,2.2,0,0,0,.84-.87,3.16,3.16,0,0,0,0-2.73Z"/><path class="cls-2" d="M219.54,22.43a3.05,3.05,0,0,1,1.55-.39v2.29h-.58a1.82,1.82,0,0,0-2.07,2.16v4.29h-2.17V22.17h2.17v1.34A3.07,3.07,0,0,1,219.54,22.43Z"/><path class="cls-2" d="M222.7,20.78a1.2,1.2,0,0,1-.38-.91,1.17,1.17,0,0,1,.38-.91,1.42,1.42,0,0,1,1.91,0,1.21,1.21,0,0,1,.38.91,1.24,1.24,0,0,1-.38.91,1.45,1.45,0,0,1-1.91,0Zm2,1.39v8.61h-2.18V22.17Z"/><path class="cls-2" d="M234.13,23a3.71,3.71,0,0,1,1,2.72v5.05h-2.17V26a2.22,2.22,0,0,0-.52-1.57,1.82,1.82,0,0,0-1.4-.56,1.86,1.86,0,0,0-1.42.56,2.17,2.17,0,0,0-.52,1.57v4.76h-2.18V22.17h2.18v1.07a3,3,0,0,1,1.11-.88,3.49,3.49,0,0,1,1.49-.32A3.34,3.34,0,0,1,234.13,23Z"/><path class="cls-2" d="M242.25,30.78l-2.92-3.67v3.67h-2.18V19.28h2.18v6.54l2.89-3.65h2.83l-3.79,4.32,3.82,4.29Z"/><path class="cls-2" d="M250.08,20.78a1.24,1.24,0,0,1-.38-.91,1.21,1.21,0,0,1,.38-.91A1.42,1.42,0,0,1,252,19a1.17,1.17,0,0,1,.38.91,1.2,1.2,0,0,1-.38.91,1.45,1.45,0,0,1-1.91,0Zm2,1.39v8.61h-2.18V22.17Z"/><path class="cls-2" d="M255.66,30.54a3.31,3.31,0,0,1-1.33-1,2.61,2.61,0,0,1-.54-1.45H256a1.23,1.23,0,0,0,.49.83,1.76,1.76,0,0,0,1.07.32,1.62,1.62,0,0,0,1-.25.74.74,0,0,0,.35-.63.67.67,0,0,0-.43-.63,7.43,7.43,0,0,0-1.36-.46,13.47,13.47,0,0,1-1.58-.48,2.76,2.76,0,0,1-1.06-.77,2.06,2.06,0,0,1-.44-1.38,2.28,2.28,0,0,1,.41-1.31,2.85,2.85,0,0,1,1.18-.93A4.45,4.45,0,0,1,257.4,22a3.65,3.65,0,0,1,2.45.77,2.8,2.8,0,0,1,1,2.07h-2.08a1.09,1.09,0,0,0-.43-.81,1.53,1.53,0,0,0-1-.31,1.67,1.67,0,0,0-.91.22.74.74,0,0,0,.12,1.27,7.06,7.06,0,0,0,1.35.46,9.83,9.83,0,0,1,1.54.48,2.66,2.66,0,0,1,1.05.77,2.1,2.1,0,0,1,.46,1.38,2.3,2.3,0,0,1-.41,1.33,2.65,2.65,0,0,1-1.18.93,4.55,4.55,0,0,1-1.8.33A4.4,4.4,0,0,1,255.66,30.54Z"/><path class="cls-2" d="M86.79,42.79a3.84,3.84,0,0,1,1.42-1.56,3.77,3.77,0,0,1,2-.54,3.47,3.47,0,0,1,1.68.39,3.39,3.39,0,0,1,1.16,1V40.83h2.19v8.61H93.05V48.18a3.28,3.28,0,0,1-1.16,1A3.83,3.83,0,0,1,88.21,49a3.9,3.9,0,0,1-1.42-1.58,5,5,0,0,1-.52-2.34A4.92,4.92,0,0,1,86.79,42.79Zm5.95,1a2.34,2.34,0,0,0-.84-.87,2.25,2.25,0,0,0-1.13-.3,2.23,2.23,0,0,0-2,1.16,2.74,2.74,0,0,0-.32,1.34,2.86,2.86,0,0,0,.32,1.37,2.48,2.48,0,0,0,.84.89,2.13,2.13,0,0,0,1.12.31,2.25,2.25,0,0,0,1.13-.3,2.34,2.34,0,0,0,.84-.87,3.16,3.16,0,0,0,0-2.73Z"/><path class="cls-2" d="M102.44,41.07a3,3,0,0,1,1.15,1V40.83h2.2v8.68a4.49,4.49,0,0,1-.49,2.13,3.58,3.58,0,0,1-1.44,1.5,4.7,4.7,0,0,1-2.33.55,5,5,0,0,1-3-.86,3.14,3.14,0,0,1-1.33-2.33h2.16a1.59,1.59,0,0,0,.74.94,2.58,2.58,0,0,0,1.37.35,2.11,2.11,0,0,0,1.54-.57,2.23,2.23,0,0,0,.59-1.71V48.17a3.35,3.35,0,0,1-1.15,1,3.49,3.49,0,0,1-1.69.4,3.63,3.63,0,0,1-2-.56,3.92,3.92,0,0,1-1.43-1.58,5.11,5.11,0,0,1-.52-2.34,5,5,0,0,1,.52-2.31,3.84,3.84,0,0,1,1.42-1.56,3.8,3.8,0,0,1,2-.54A3.51,3.51,0,0,1,102.44,41.07Zm.84,2.7a2.2,2.2,0,0,0-.84-.87,2.25,2.25,0,0,0-1.13-.3,2.2,2.2,0,0,0-2,1.16A2.63,2.63,0,0,0,99,45.1a2.75,2.75,0,0,0,.32,1.37,2.33,2.33,0,0,0,.84.89,2.07,2.07,0,0,0,1.11.31,2.25,2.25,0,0,0,1.13-.3,2.2,2.2,0,0,0,.84-.87,3.16,3.16,0,0,0,0-2.73Z"/><path class="cls-2" d="M115.86,45.79h-6.3a2.15,2.15,0,0,0,.66,1.46,2,2,0,0,0,1.41.53,1.79,1.79,0,0,0,1.73-1h2.35a3.93,3.93,0,0,1-1.43,2,4.15,4.15,0,0,1-2.6.8,4.47,4.47,0,0,1-2.23-.55,3.92,3.92,0,0,1-1.54-1.56,4.78,4.78,0,0,1-.55-2.33,4.88,4.88,0,0,1,.54-2.35,3.81,3.81,0,0,1,1.52-1.56,4.63,4.63,0,0,1,2.26-.54,4.45,4.45,0,0,1,2.2.53,3.7,3.7,0,0,1,1.51,1.5,4.51,4.51,0,0,1,.53,2.23A5.35,5.35,0,0,1,115.86,45.79Zm-2.19-1.46a1.72,1.72,0,0,0-.61-1.35,2.11,2.11,0,0,0-1.44-.5,1.94,1.94,0,0,0-1.36.49,2.12,2.12,0,0,0-.68,1.36Z"/><path class="cls-2" d="M124.13,43v1.84h-6.59V43Z"/><path class="cls-2" d="M129.85,41.09a3.05,3.05,0,0,1,1.55-.39V43h-.58a1.81,1.81,0,0,0-2.07,2.16v4.29h-2.17V40.83h2.17v1.34A3.07,3.07,0,0,1,129.85,41.09Z"/><path class="cls-2" d="M140.8,45.79h-6.29a2.14,2.14,0,0,0,.65,1.46,2,2,0,0,0,1.41.53,1.79,1.79,0,0,0,1.73-1h2.35a3.93,3.93,0,0,1-1.43,2,4.15,4.15,0,0,1-2.6.8,4.47,4.47,0,0,1-2.23-.55,3.92,3.92,0,0,1-1.54-1.56,4.78,4.78,0,0,1-.55-2.33,4.88,4.88,0,0,1,.54-2.35,3.83,3.83,0,0,1,1.53-1.56,4.57,4.57,0,0,1,2.25-.54,4.45,4.45,0,0,1,2.2.53,3.7,3.7,0,0,1,1.51,1.5,4.52,4.52,0,0,1,.54,2.23A4.32,4.32,0,0,1,140.8,45.79Zm-2.19-1.46A1.75,1.75,0,0,0,138,43a2.15,2.15,0,0,0-1.45-.5,2,2,0,0,0-1.36.49,2.16,2.16,0,0,0-.68,1.36Z"/><path class="cls-2" d="M143.85,49.2a3.38,3.38,0,0,1-1.33-1,2.68,2.68,0,0,1-.53-1.45h2.19a1.19,1.19,0,0,0,.49.83,1.73,1.73,0,0,0,1.06.32,1.65,1.65,0,0,0,1-.25.74.74,0,0,0,.35-.63.68.68,0,0,0-.43-.63,7.71,7.71,0,0,0-1.36-.46,12.9,12.9,0,0,1-1.58-.48,2.76,2.76,0,0,1-1.06-.77,2.06,2.06,0,0,1-.44-1.38A2.28,2.28,0,0,1,142.6,42a2.79,2.79,0,0,1,1.18-.93,4.4,4.4,0,0,1,1.81-.34,3.66,3.66,0,0,1,2.46.77,2.83,2.83,0,0,1,1,2.07H147a1.13,1.13,0,0,0-.43-.81,1.53,1.53,0,0,0-1-.31,1.65,1.65,0,0,0-.91.22.73.73,0,0,0,.12,1.27,7.06,7.06,0,0,0,1.35.46,10.18,10.18,0,0,1,1.54.48,2.8,2.8,0,0,1,1.05.77,2.1,2.1,0,0,1,.46,1.38,2.3,2.3,0,0,1-.41,1.33,2.68,2.68,0,0,1-1.19.93,4.5,4.5,0,0,1-1.79.33A4.45,4.45,0,0,1,143.85,49.2Z"/><path class="cls-2" d="M153.46,42.62v4.16a.83.83,0,0,0,.21.63,1,1,0,0,0,.71.2h1v1.83H154c-1.83,0-2.75-.89-2.75-2.67V42.62h-1V40.83h1V38.7h2.19v2.13h1.93v1.79Z"/><path class="cls-2" d="M160.23,41.09a3.05,3.05,0,0,1,1.55-.39V43h-.57a1.81,1.81,0,0,0-2.07,2.16v4.29H157V40.83h2.18v1.34A3,3,0,0,1,160.23,41.09Z"/><path class="cls-2" d="M163.39,39.44a1.24,1.24,0,0,1-.38-.91,1.21,1.21,0,0,1,.38-.91,1.42,1.42,0,0,1,1.91,0,1.17,1.17,0,0,1,.38.91,1.2,1.2,0,0,1-.38.91,1.45,1.45,0,0,1-1.91,0Zm2,1.39v8.61h-2.18V40.83Z"/><path class="cls-2" d="M167.55,42.8a3.91,3.91,0,0,1,1.51-1.56,4.34,4.34,0,0,1,2.21-.55,4.28,4.28,0,0,1,2.65.8,3.82,3.82,0,0,1,1.4,2.25H173a1.75,1.75,0,0,0-.63-.88,2,2,0,0,0-2.58.36,3.65,3.65,0,0,0,0,3.82,1.82,1.82,0,0,0,1.48.68A1.66,1.66,0,0,0,173,46.53h2.34a3.94,3.94,0,0,1-1.41,2.23,4.18,4.18,0,0,1-2.64.82,4.34,4.34,0,0,1-2.21-.55,4,4,0,0,1-1.51-1.55,4.87,4.87,0,0,1-.54-2.34A4.82,4.82,0,0,1,167.55,42.8Z"/><path class="cls-2" d="M179.46,42.62v4.16a.83.83,0,0,0,.21.63,1,1,0,0,0,.71.2h1v1.83H180c-1.83,0-2.75-.89-2.75-2.67V42.62h-1V40.83h1V38.7h2.19v2.13h1.93v1.79Z"/><path class="cls-2" d="M190.91,45.79h-6.3a2.14,2.14,0,0,0,.65,1.46,2,2,0,0,0,1.42.53,1.78,1.78,0,0,0,1.72-1h2.35a3.93,3.93,0,0,1-1.43,2,4.15,4.15,0,0,1-2.6.8,4.47,4.47,0,0,1-2.23-.55A3.92,3.92,0,0,1,183,47.47a4.78,4.78,0,0,1-.55-2.33,4.88,4.88,0,0,1,.54-2.35,3.83,3.83,0,0,1,1.53-1.56,4.57,4.57,0,0,1,2.25-.54,4.45,4.45,0,0,1,2.2.53,3.7,3.7,0,0,1,1.51,1.5A4.52,4.52,0,0,1,191,45,5.35,5.35,0,0,1,190.91,45.79Zm-2.2-1.46a1.75,1.75,0,0,0-.6-1.35,2.15,2.15,0,0,0-1.45-.5,2,2,0,0,0-1.36.49,2.16,2.16,0,0,0-.68,1.36Z"/><path class="cls-2" d="M192.51,42.79a3.86,3.86,0,0,1,1.43-1.56,3.82,3.82,0,0,1,2-.54,3.67,3.67,0,0,1,1.6.36,3.23,3.23,0,0,1,1.22,1V37.94H201v11.5h-2.21V48.17a3,3,0,0,1-1.14,1,3.51,3.51,0,0,1-1.69.39,3.63,3.63,0,0,1-2-.56,3.92,3.92,0,0,1-1.43-1.58A5.11,5.11,0,0,1,192,45.1,5,5,0,0,1,192.51,42.79Zm6,1a2.22,2.22,0,0,0-2-1.17,2.2,2.2,0,0,0-2,1.16,2.63,2.63,0,0,0-.32,1.34,2.75,2.75,0,0,0,.32,1.37,2.33,2.33,0,0,0,.84.89,2.07,2.07,0,0,0,1.11.31,2.22,2.22,0,0,0,2-1.17,3.16,3.16,0,0,0,0-2.73Z"/><path class="cls-2" d="M210.75,42.62h-1.51v6.82H207V42.62h-1V40.83h1v-.44a2.87,2.87,0,0,1,.9-2.33,4,4,0,0,1,2.72-.7V39.2a1.56,1.56,0,0,0-1.1.26,1.31,1.31,0,0,0-.31,1v.36h1.51Z"/><path class="cls-2" d="M213.75,49a3.9,3.9,0,0,1-1.56-1.56,4.68,4.68,0,0,1-.57-2.33,4.59,4.59,0,0,1,.58-2.34,4.11,4.11,0,0,1,1.59-1.56,4.64,4.64,0,0,1,2.26-.55,4.57,4.57,0,0,1,2.25.55,4.07,4.07,0,0,1,1.6,1.56,4.59,4.59,0,0,1,.58,2.34,4.49,4.49,0,0,1-.6,2.33A4.23,4.23,0,0,1,218.27,49a4.69,4.69,0,0,1-2.28.55A4.51,4.51,0,0,1,213.75,49Zm3.35-1.63a2.06,2.06,0,0,0,.83-.87,2.86,2.86,0,0,0,.31-1.39,2.59,2.59,0,0,0-.64-1.89,2.13,2.13,0,0,0-1.58-.66,2.07,2.07,0,0,0-1.56.66,2.63,2.63,0,0,0-.63,1.89,2.66,2.66,0,0,0,.61,1.88,2,2,0,0,0,1.55.67A2.3,2.3,0,0,0,217.1,47.4Z"/><path class="cls-2" d="M225.36,41.09a3,3,0,0,1,1.54-.39V43h-.57a1.81,1.81,0,0,0-2.07,2.16v4.29h-2.18V40.83h2.18v1.34A3,3,0,0,1,225.36,41.09Z"/><path class="cls-2" d="M232.21,39.44a1.24,1.24,0,0,1-.38-.91,1.21,1.21,0,0,1,.38-.91,1.43,1.43,0,0,1,1.92,0,1.21,1.21,0,0,1,.38.91,1.24,1.24,0,0,1-.38.91,1.46,1.46,0,0,1-1.92,0Zm2,1.39v8.61h-2.18V40.83Z"/><path class="cls-2" d="M243.65,41.68a3.71,3.71,0,0,1,.95,2.71v5h-2.18V44.68a2.21,2.21,0,0,0-.51-1.57,1.82,1.82,0,0,0-1.4-.56,1.84,1.84,0,0,0-1.42.56,2.17,2.17,0,0,0-.52,1.57v4.76h-2.18V40.83h2.18V41.9a3,3,0,0,1,1.11-.88,3.45,3.45,0,0,1,1.48-.32A3.31,3.31,0,0,1,243.65,41.68Z"/><path class="cls-2" d="M246.63,42.79a3.73,3.73,0,0,1,3.43-2.1,3.7,3.7,0,0,1,1.6.36,3.2,3.2,0,0,1,1.21,1V37.94h2.21v11.5h-2.21V48.17a3,3,0,0,1-1.13,1,3.58,3.58,0,0,1-1.7.39,3.65,3.65,0,0,1-2-.56,3.9,3.9,0,0,1-1.42-1.58,5,5,0,0,1-.52-2.34A4.92,4.92,0,0,1,246.63,42.79Zm6,1a2.34,2.34,0,0,0-.84-.87,2.29,2.29,0,0,0-1.14-.3,2.19,2.19,0,0,0-1.12.3,2.15,2.15,0,0,0-.83.86,2.74,2.74,0,0,0-.32,1.34,2.86,2.86,0,0,0,.32,1.37,2.33,2.33,0,0,0,.84.89,2.12,2.12,0,0,0,1.11.31,2.29,2.29,0,0,0,1.14-.3,2.34,2.34,0,0,0,.84-.87,3.16,3.16,0,0,0,0-2.73Z"/><path class="cls-2" d="M257.36,39.44a1.2,1.2,0,0,1-.38-.91,1.17,1.17,0,0,1,.38-.91,1.42,1.42,0,0,1,1.91,0,1.21,1.21,0,0,1,.38.91,1.24,1.24,0,0,1-.38.91,1.45,1.45,0,0,1-1.91,0Zm2,1.39v8.61h-2.18V40.83Z"/><path class="cls-2" d="M265.12,47.44l2.18-6.61h2.32l-3.19,8.61h-2.64l-3.18-8.61H263Z"/><path class="cls-2" d="M271,39.44a1.24,1.24,0,0,1-.38-.91,1.21,1.21,0,0,1,.38-.91,1.43,1.43,0,0,1,1.92,0,1.21,1.21,0,0,1,.38.91,1.24,1.24,0,0,1-.38.91,1.46,1.46,0,0,1-1.92,0Zm2,1.39v8.61h-2.17V40.83Z"/><path class="cls-2" d="M275.13,42.79a3.73,3.73,0,0,1,3.43-2.1,3.7,3.7,0,0,1,1.6.36,3.2,3.2,0,0,1,1.21,1V37.94h2.21v11.5h-2.21V48.17a3,3,0,0,1-1.13,1,3.55,3.55,0,0,1-1.7.39,3.65,3.65,0,0,1-2-.56,3.9,3.9,0,0,1-1.42-1.58,5,5,0,0,1-.52-2.34A4.92,4.92,0,0,1,275.13,42.79Zm5.95,1a2.34,2.34,0,0,0-.84-.87,2.26,2.26,0,0,0-1.14-.3,2.21,2.21,0,0,0-1.12.3,2.15,2.15,0,0,0-.83.86,2.74,2.74,0,0,0-.32,1.34,2.86,2.86,0,0,0,.32,1.37,2.33,2.33,0,0,0,.84.89,2.12,2.12,0,0,0,1.11.31,2.26,2.26,0,0,0,1.14-.3,2.34,2.34,0,0,0,.84-.87,3.16,3.16,0,0,0,0-2.73Z"/><path class="cls-2" d="M293.85,40.83v8.61h-2.2V48.35a2.78,2.78,0,0,1-1.09.88,3.44,3.44,0,0,1-1.47.32,3.59,3.59,0,0,1-1.79-.43,2.91,2.91,0,0,1-1.22-1.26,4.08,4.08,0,0,1-.45-2V40.83h2.18v4.74a2.2,2.2,0,0,0,.52,1.58,1.79,1.79,0,0,0,1.39.55,1.82,1.82,0,0,0,1.42-.55,2.24,2.24,0,0,0,.51-1.58V40.83Z"/><path class="cls-2" d="M296,42.79a3.84,3.84,0,0,1,1.42-1.56,3.77,3.77,0,0,1,2-.54,3.47,3.47,0,0,1,1.68.39,3.39,3.39,0,0,1,1.16,1V40.83h2.19v8.61h-2.19V48.18a3.28,3.28,0,0,1-1.16,1,3.83,3.83,0,0,1-3.68-.17A3.9,3.9,0,0,1,296,47.44a5,5,0,0,1-.52-2.34A4.92,4.92,0,0,1,296,42.79Zm5.95,1a2.34,2.34,0,0,0-.84-.87,2.25,2.25,0,0,0-1.13-.3,2.23,2.23,0,0,0-2,1.16,2.74,2.74,0,0,0-.32,1.34,2.86,2.86,0,0,0,.32,1.37,2.48,2.48,0,0,0,.84.89,2.13,2.13,0,0,0,1.12.31,2.25,2.25,0,0,0,1.13-.3,2.34,2.34,0,0,0,.84-.87,3.16,3.16,0,0,0,0-2.73Z"/><path class="cls-2" d="M308.71,37.94v11.5h-2.18V37.94Z"/><path class="cls-2" d="M312.26,49.2a3.31,3.31,0,0,1-1.33-1,2.61,2.61,0,0,1-.54-1.45h2.19a1.23,1.23,0,0,0,.49.83,1.76,1.76,0,0,0,1.07.32,1.62,1.62,0,0,0,1-.25.74.74,0,0,0,.35-.63.67.67,0,0,0-.43-.63,7.43,7.43,0,0,0-1.36-.46,13.47,13.47,0,0,1-1.58-.48,2.66,2.66,0,0,1-1-.77,2,2,0,0,1-.45-1.38A2.28,2.28,0,0,1,311,42a2.82,2.82,0,0,1,1.19-.93,4.36,4.36,0,0,1,1.81-.34,3.65,3.65,0,0,1,2.45.77,2.84,2.84,0,0,1,1,2.07h-2.09a1.09,1.09,0,0,0-.43-.81,1.52,1.52,0,0,0-1-.31,1.63,1.63,0,0,0-.91.22.69.69,0,0,0-.32.61.71.71,0,0,0,.43.66,7,7,0,0,0,1.36.46,10,10,0,0,1,1.53.48,2.66,2.66,0,0,1,1.05.77,2.1,2.1,0,0,1,.46,1.38,2.23,2.23,0,0,1-.41,1.33,2.65,2.65,0,0,1-1.18.93,4.52,4.52,0,0,1-1.8.33A4.43,4.43,0,0,1,312.26,49.2Z"/><path class="cls-2" d="M88.42,67.69a4,4,0,0,1-1.57-1.56,4.78,4.78,0,0,1-.56-2.33,4.59,4.59,0,0,1,.58-2.34,4.11,4.11,0,0,1,1.59-1.56,4.64,4.64,0,0,1,2.26-.55A4.57,4.57,0,0,1,93,59.9a4.07,4.07,0,0,1,1.6,1.56,4.59,4.59,0,0,1,.58,2.34,4.49,4.49,0,0,1-.6,2.33,4.19,4.19,0,0,1-1.62,1.56,4.65,4.65,0,0,1-2.27.55A4.51,4.51,0,0,1,88.42,67.69Zm3.35-1.63a2.06,2.06,0,0,0,.83-.87,2.83,2.83,0,0,0,.31-1.39,2.59,2.59,0,0,0-.64-1.89,2.15,2.15,0,0,0-1.58-.66,2.08,2.08,0,0,0-1.57.66,2.63,2.63,0,0,0-.63,1.89,2.66,2.66,0,0,0,.62,1.88,2,2,0,0,0,1.55.67A2.3,2.3,0,0,0,91.77,66.06Z"/><path class="cls-2" d="M100.34,66.1l2.18-6.61h2.32l-3.19,8.61H99l-3.18-8.61h2.34Z"/><path class="cls-2" d="M114,64.45h-6.3a2.15,2.15,0,0,0,.66,1.46,2,2,0,0,0,1.41.53,1.79,1.79,0,0,0,1.73-1h2.35a3.93,3.93,0,0,1-1.43,2,4.15,4.15,0,0,1-2.6.8,4.47,4.47,0,0,1-2.23-.55,3.92,3.92,0,0,1-1.54-1.56,4.78,4.78,0,0,1-.55-2.33,4.88,4.88,0,0,1,.54-2.35,3.81,3.81,0,0,1,1.52-1.56,4.63,4.63,0,0,1,2.26-.54,4.45,4.45,0,0,1,2.2.53,3.7,3.7,0,0,1,1.51,1.5,4.51,4.51,0,0,1,.53,2.23A5.35,5.35,0,0,1,114,64.45ZM111.82,63a1.72,1.72,0,0,0-.61-1.35,2.16,2.16,0,0,0-1.44-.5,1.94,1.94,0,0,0-1.36.49,2.12,2.12,0,0,0-.68,1.36Z"/><path class="cls-2" d="M118.93,59.75a3.05,3.05,0,0,1,1.55-.39v2.29h-.58a1.81,1.81,0,0,0-2.06,2.16V68.1h-2.18V59.49h2.18v1.34A3,3,0,0,1,118.93,59.75Z"/><path class="cls-2" d="M128.18,61.28v4.16a.83.83,0,0,0,.21.63,1,1,0,0,0,.7.2h1V68.1h-1.37q-2.76,0-2.76-2.67V61.28h-1V59.49h1V57.36h2.2v2.13h1.93v1.79Z"/><path class="cls-2" d="M138.27,59.79a3,3,0,0,1,1.19,1.26,4.41,4.41,0,0,1,.43,2v5h-2.18V63.34a2.21,2.21,0,0,0-.51-1.57,1.83,1.83,0,0,0-1.4-.56,1.88,1.88,0,0,0-1.43.56,2.22,2.22,0,0,0-.52,1.57V68.1h-2.17V56.6h2.17v4a2.9,2.9,0,0,1,1.12-.88,3.78,3.78,0,0,1,1.56-.32A3.56,3.56,0,0,1,138.27,59.79Z"/><path class="cls-2" d="M149.9,64.45h-6.3a2.11,2.11,0,0,0,.66,1.46,2,2,0,0,0,1.41.53,1.79,1.79,0,0,0,1.73-1h2.35a3.89,3.89,0,0,1-1.44,2,4.12,4.12,0,0,1-2.59.8,4.44,4.44,0,0,1-2.23-.55A3.85,3.85,0,0,1,142,66.13a4.78,4.78,0,0,1-.55-2.33,4.88,4.88,0,0,1,.54-2.35,3.81,3.81,0,0,1,1.52-1.56,4.63,4.63,0,0,1,2.26-.54,4.45,4.45,0,0,1,2.2.53,3.7,3.7,0,0,1,1.51,1.5,4.62,4.62,0,0,1,.53,2.23A5.35,5.35,0,0,1,149.9,64.45ZM147.71,63a1.72,1.72,0,0,0-.61-1.35,2.16,2.16,0,0,0-1.44-.5,2,2,0,0,0-1.37.49,2.16,2.16,0,0,0-.67,1.36Z"/><path class="cls-2" d="M155.21,61.45a3.84,3.84,0,0,1,1.42-1.56,3.76,3.76,0,0,1,2-.54,3.49,3.49,0,0,1,1.69.39,3.39,3.39,0,0,1,1.16,1V59.49h2.19V68.1h-2.19V66.84a3.28,3.28,0,0,1-1.16,1,3.83,3.83,0,0,1-3.68-.17,3.9,3.9,0,0,1-1.42-1.58,5,5,0,0,1-.52-2.34A4.92,4.92,0,0,1,155.21,61.45Zm5.95,1a2.34,2.34,0,0,0-.84-.87,2.26,2.26,0,0,0-1.14-.3,2.21,2.21,0,0,0-1.12.3,2.15,2.15,0,0,0-.83.86,2.74,2.74,0,0,0-.32,1.34,2.86,2.86,0,0,0,.32,1.37,2.33,2.33,0,0,0,.84.89,2.12,2.12,0,0,0,1.11.31,2.26,2.26,0,0,0,1.14-.3,2.34,2.34,0,0,0,.84-.87,3.16,3.16,0,0,0,0-2.73Z"/><path class="cls-2" d="M170.86,59.73a3,3,0,0,1,1.15,1V59.49h2.19v8.68a4.61,4.61,0,0,1-.48,2.13,3.58,3.58,0,0,1-1.44,1.5,4.74,4.74,0,0,1-2.34.55,5,5,0,0,1-3-.86,3.14,3.14,0,0,1-1.33-2.33h2.16a1.59,1.59,0,0,0,.74.94,2.56,2.56,0,0,0,1.37.35,2.12,2.12,0,0,0,1.54-.57,2.27,2.27,0,0,0,.59-1.71V66.83a3.29,3.29,0,0,1-1.16,1,3.42,3.42,0,0,1-1.68.4,3.63,3.63,0,0,1-2-.56,3.85,3.85,0,0,1-1.43-1.58,5.11,5.11,0,0,1-.52-2.34,5,5,0,0,1,.52-2.31,3.84,3.84,0,0,1,1.42-1.56,3.77,3.77,0,0,1,2-.54A3.54,3.54,0,0,1,170.86,59.73Zm.84,2.7a2.34,2.34,0,0,0-.84-.87,2.25,2.25,0,0,0-1.13-.3,2.23,2.23,0,0,0-2,1.16,2.73,2.73,0,0,0-.31,1.34,2.86,2.86,0,0,0,.31,1.37,2.48,2.48,0,0,0,.84.89,2.13,2.13,0,0,0,1.12.31,2.25,2.25,0,0,0,1.13-.3,2.34,2.34,0,0,0,.84-.87,3.16,3.16,0,0,0,0-2.73Z"/><path class="cls-2" d="M184.28,64.45H178a2.15,2.15,0,0,0,.66,1.46,2,2,0,0,0,1.41.53,1.79,1.79,0,0,0,1.73-1h2.35a3.93,3.93,0,0,1-1.43,2,4.17,4.17,0,0,1-2.6.8,4.44,4.44,0,0,1-2.23-.55,3.92,3.92,0,0,1-1.54-1.56,4.78,4.78,0,0,1-.55-2.33,4.88,4.88,0,0,1,.54-2.35,3.81,3.81,0,0,1,1.52-1.56,4.63,4.63,0,0,1,2.26-.54,4.45,4.45,0,0,1,2.2.53,3.7,3.7,0,0,1,1.51,1.5,4.62,4.62,0,0,1,.53,2.23A5.35,5.35,0,0,1,184.28,64.45ZM182.09,63a1.72,1.72,0,0,0-.61-1.35,2.16,2.16,0,0,0-1.44-.5,1.94,1.94,0,0,0-1.36.49A2.12,2.12,0,0,0,178,63Z"/><path class="cls-2" d="M191.22,67.69a4,4,0,0,1-1.57-1.56,4.67,4.67,0,0,1-.56-2.33,4.59,4.59,0,0,1,.58-2.34,4.11,4.11,0,0,1,1.59-1.56,4.64,4.64,0,0,1,2.26-.55,4.57,4.57,0,0,1,2.25.55,4.07,4.07,0,0,1,1.6,1.56A4.69,4.69,0,0,1,198,63.8a4.49,4.49,0,0,1-.6,2.33,4.19,4.19,0,0,1-1.62,1.56,4.68,4.68,0,0,1-2.27.55A4.51,4.51,0,0,1,191.22,67.69Zm3.35-1.63a2.12,2.12,0,0,0,.83-.87,2.83,2.83,0,0,0,.31-1.39,2.6,2.6,0,0,0-.65-1.89,2.11,2.11,0,0,0-1.57-.66,2.08,2.08,0,0,0-1.57.66,2.63,2.63,0,0,0-.63,1.89,2.66,2.66,0,0,0,.62,1.88,2,2,0,0,0,1.55.67A2.3,2.3,0,0,0,194.57,66.06Z"/><path class="cls-2" d="M203.5,61.28H202V68.1h-2.21V61.28h-1V59.49h1v-.44a2.84,2.84,0,0,1,.91-2.33,4,4,0,0,1,2.72-.7v1.84a1.62,1.62,0,0,0-1.11.26,1.35,1.35,0,0,0-.31,1v.36h1.51Z"/><path class="cls-2" d="M208.1,58.77v-2h3.75V68.1h-2.24V58.77Z"/><path class="cls-2" d="M219.34,58.62a1.64,1.64,0,0,0-1.1-.33,1.72,1.72,0,0,0-1.58.86,6,6,0,0,0-.52,2.81,2.52,2.52,0,0,1,1.09-1,3.78,3.78,0,0,1,3.34.08,3.05,3.05,0,0,1,1.22,1.27,4.28,4.28,0,0,1,.43,2,4.33,4.33,0,0,1-.44,2,3.23,3.23,0,0,1-1.3,1.34,4.1,4.1,0,0,1-2,.48,4.06,4.06,0,0,1-2.54-.71,3.69,3.69,0,0,1-1.29-2,11.9,11.9,0,0,1-.36-3.16,7.66,7.66,0,0,1,1-4.3,4,4,0,0,1,5.62-.57,3.52,3.52,0,0,1,1.05,2.21h-2A1.78,1.78,0,0,0,219.34,58.62Zm-2.44,4.29a1.76,1.76,0,0,0-.56,1.4,2,2,0,0,0,.53,1.45,2,2,0,0,0,1.46.52,1.75,1.75,0,0,0,1.33-.51,1.89,1.89,0,0,0,.49-1.38,2,2,0,0,0-.47-1.43,1.75,1.75,0,0,0-1.39-.53A2.08,2.08,0,0,0,216.9,62.91Z"/><path class="cls-2" d="M224.19,67.85a1.24,1.24,0,0,1-.38-.91,1.21,1.21,0,0,1,.38-.91,1.32,1.32,0,0,1,1-.37,1.29,1.29,0,0,1,1,.37,1.2,1.2,0,0,1,.37.91,1.23,1.23,0,0,1-.37.91,1.32,1.32,0,0,1-1,.36A1.35,1.35,0,0,1,224.19,67.85Z"/><path class="cls-3" d="M406.65,35.59l3.29-1.91c-.26-.46-.5-.9-.75-1.33-1.47-2.53-2.93-5.07-4.41-7.6a5.94,5.94,0,0,0-2.13-2.29,17.61,17.61,0,0,0-1.64-.72h.4c4,0,8,0,12,0a3,3,0,0,1,2.81,1.52c.69,1.13,1.34,2.29,2,3.43l.95,1.65,3.34-1.92.06.05-.69,1.45c-1.31,2.74-2.63,5.47-3.93,8.21a.57.57,0,0,1-.66.4c-3.41-.28-6.83-.53-10.24-.79l-.43,0Z"/><path class="cls-3" d="M386.42,39.83l-3.31-1.92,0-.08.49,0c3.42-.27,6.85-.52,10.27-.8a.45.45,0,0,1,.52.31c1.18,2.49,2.38,5,3.57,7.45a25.14,25.14,0,0,1,1,2.36l-.4-.22c-.85-.49-1.69-1-2.53-1.47-.28-.17-.44-.13-.61.15-1.62,2.82-3.27,5.62-4.88,8.44a6.15,6.15,0,0,0-1,2.94,18.43,18.43,0,0,0,.15,1.86s0,0-.08-.11c-2.06-3.57-4.13-7.16-6.2-10.73a2.76,2.76,0,0,1-.11-2.76c.63-1.22,1.33-2.4,2-3.6C385.72,41,386.06,40.46,386.42,39.83Z"/><path class="cls-3" d="M412.85,47.85v.42c0,1,0,2,0,3,0,.3.1.38.39.38,3.16,0,6.31,0,9.47,0a13.68,13.68,0,0,0,2.54-.32,4,4,0,0,0,2.05-1.2l.2-.19.13,0-.73,1.27c-1.82,3.15-3.66,6.29-5.44,9.46a3,3,0,0,1-2.76,1.68c-1.78,0-3.56,0-5.34,0-.39,0-.53.09-.52.5,0,1,0,2,0,2.93v.51a3.86,3.86,0,0,1-.29-.34c-1.95-2.85-3.89-5.7-5.85-8.54a.6.6,0,0,1,0-.8q2.92-4.24,5.83-8.51a2.65,2.65,0,0,1,.21-.26Z"/><path class="cls-3" d="M399.6,37.71l-9.23-5.33.52-.91c1.21-2.09,2.47-4.16,3.62-6.29,1.39-2.59,4.58-3,6.5-2.49a4.54,4.54,0,0,1,2.46,1.79c.68.95,1.27,2,1.88,3a.45.45,0,0,1,0,.36q-2.8,4.89-5.63,9.76Z"/><path class="cls-3" d="M414.52,40.67l9.22-5.32a2.22,2.22,0,0,1,.17.24c1.32,2.28,2.65,4.55,3.94,6.85a6.71,6.71,0,0,1,.72,1.81,5.42,5.42,0,0,1-4.63,6.41,31.46,31.46,0,0,1-3.37.1c-.13,0-.32-.15-.4-.29-.85-1.42-1.67-2.86-2.5-4.3-1-1.75-2-3.49-3-5.24C414.61,40.87,414.58,40.79,414.52,40.67Z"/><path class="cls-3" d="M404.32,62.79h-8.14a6.12,6.12,0,0,1-1.35-.13A5.41,5.41,0,0,1,391,55.34a28.55,28.55,0,0,1,1.61-3,.65.65,0,0,1,.47-.19H404c.3,0,.39.08.39.38,0,3.33,0,6.66,0,10C404.35,62.56,404.33,62.65,404.32,62.79Z"/><path class="cls-2" d="M515.65,61.69c.4-2.62.81-5.24,1.21-7.86.63-4,1.24-8.09,1.89-12.13a.72.72,0,0,1,.48-.48c3-.17,6-.3,9-.43a2.21,2.21,0,0,1,.38,0q-1.08,10.52-2.14,21l-.09,0q-1.7-6.8-3.4-13.59l-.24,0-7,13.53Z"/><path class="cls-2" d="M505.38,29.69h4.22q6.87,0,13.73,0a1.29,1.29,0,0,1,1.07.53,20.1,20.1,0,0,1,3.68,7.22c.2.67.36,1.36.56,2.12-.55.06-1,.12-1.42.14l-7.2.41c-1.14.06-1,.11-1.13-.91a10.86,10.86,0,0,0-1.6-4.35c-1-1.45-2.45-2-4-2.43-2.66-.79-5.3-1.68-7.94-2.53Z"/><path class="cls-2" d="M506.25,62.57c-1.13,0-2.27,0-3.41,0a.7.7,0,0,1-.85-.69c-.4-2.45-.82-4.9-1.24-7.35-.56-3.29-1.12-6.57-1.7-9.85-.09-.52-.34-1-.45-1.54a.65.65,0,0,1,.25-.52c.12-.1.36-.05.55-.05h13.73c.19,0,.42,0,.55,0s.33.4.28.5c-.7,1.31-.66,2.77-.91,4.17-.73,4-1.38,8-2.06,12-.16.92-.33,1.83-.47,2.75-.06.42-.25.58-.66.57Zm1.71-13c-.21,0-.43,0-.63,0-.6-.06-.85.19-.8.79,0,.42,0,.84,0,1.26,0,.87,0,.88.88.87,1.95,0,1.55.24,1.76-1.55C509.37,49.28,509.37,49.55,508,49.52Zm.17-3a8.51,8.51,0,0,0-1.13,0c-.16,0-.42.22-.42.35,0,.66,0,1.33.06,2l1.54.14h.26c.95,0,.95,0,1.07-1C509.72,46.22,509.81,46.51,508.13,46.49ZM506,51a7.45,7.45,0,0,1,0-.82c0-.49-.15-.7-.64-.68s-1.06,0-1.58,0-.53.19-.49.56.09.92.15,1.38c.12,1,.13,1,1.11,1C506,52.44,506,52.44,506,51Zm-1.53-4.55h-.88c-.52,0-.71.16-.63.7.33,2.21-.08,1.77,2.08,1.82,1,0,1,0,1-1C506,46.48,506,46.48,504.44,46.47Zm-.2-2.76c-.31,0-.63,0-.94,0s-.68-.13-.73.37.27,1.76.54,1.83l.13,0c.76,0,1.52,0,2.27,0a.63.63,0,0,0,.44-.45c0-2,.32-1.71-1.52-1.74Zm4,0c-1.92,0-1.71-.37-1.72,1.61,0,0,0,0,0,.06,0,.37.18.53.54.53.71,0,1.43,0,2.14,0a.78.78,0,0,0,.55-.37c.53-1.52.31-1.82-1.27-1.81Zm2.7,5.79c-1.16,0-1.16,0-1.22,1.11,0,.15,0,.3,0,.44-.09,1.44-.09,1.43,1.39,1.37.36,0,.55-.14.6-.5.08-.6.16-1.21.27-1.8s-.07-.64-.52-.63Zm-8.09,1.8h0c-.05-.42-.11-.83-.14-1.25s-.19-.56-.59-.55c-2,0-1.65-.21-1.44,1.62,0,0,0,0,0,.06.25,1.25.25,1.23,1.53,1.24.57,0,.76-.2.65-.74C502.88,51.59,502.88,51.46,502.87,51.33Zm3.67,3c0,1.38,0,1.38,1.37,1.35.1,0,.23,0,.31,0s.41-.26.44-.42a10.41,10.41,0,0,0,.19-1.76c0-.15-.24-.36-.42-.45a1.48,1.48,0,0,0-.56,0C506.37,53,506.56,52.9,506.54,54.33Zm4.87-7.86c-1.29,0-1.26-.1-1.32,1.21a4.08,4.08,0,0,1-.09.69c-.08.45.11.62.55.62,1.9,0,1.55.18,1.85-1.35C512.63,46.47,512.63,46.47,511.41,46.47ZM506,54.39c0-1.56.19-1.37-1.37-1.38-.15,0-.3,0-.44,0-.43,0-.56.2-.5.6s.13.91.16,1.37.28.72.81.71C506.19,55.65,506,55.78,506,54.39Zm-4.8-7.91v-.07l-1.09.2c.16.78.32,1.55.49,2.32l.06,0c.56,0,1.13,0,1.69,0,.09,0,.22-.29.22-.44,0-.46-.09-.92-.12-1.38s-.22-.66-.67-.62C501.55,46.49,501.36,46.48,501.17,46.48Zm-.42-2.77h-.63c-.57,0-.7.22-.58.73.38,1.64,0,1.49,1.69,1.5,1,0,1,0,.89-1C502,43.72,502,43.72,500.75,43.71Zm10.78,2.23c1.22,0,1.22,0,1.38-1.08s.16-1.14-1-1.12-1.29,0-1.47,1.25c-.14.92-.12.94.79.95Zm-1,7.07c-1.06,0-1.06,0-1.14,1.07,0,.13,0,.26,0,.38-.08,1.26,0,1.37,1.32,1.21h.06c.14-.12.37-.24.41-.39a13.74,13.74,0,0,0,.28-1.8c0-.14-.2-.36-.35-.44A1.48,1.48,0,0,0,510.5,53Zm-8.42,0c-1,0-1,0-.87,1,0,.18,0,.37.07.56.18,1.1.18,1.1,1.31,1.08h.13c.43,0,.63-.16.56-.6s-.07-.76-.12-1.13C503,53,503,53,502.08,53Zm5.48,3.19c-1,0-1,0-1,1v.38c0,1.11,0,1.11,1.12,1.09.45,0,.66-.18.69-.62s.09-.62.11-.93C508.55,56.2,508.54,56.2,507.56,56.2ZM506,57.49h0a7.3,7.3,0,0,0,0-.81c0-.14-.08-.38-.13-.38-.56,0-1.11,0-1.67,0,0,.63,0,1.26,0,1.89a.7.7,0,0,0,.36.5c1,.33,1.4,0,1.4-1Zm-2.91,1.62c-.84,0-.91,0-.86.47.08.69.18,1.38.32,2.05s.7.38,1.1.4.43-.31.4-.62c0-.5-.17-1-.18-1.5S503.63,59,503.06,59.11Zm5.49,2.07c.08.33-.26.84.41.86.92,0,1.05,0,1.11-.7,0-.52.17-1,.25-1.55,0-.27.18-.59-.29-.68-.75-.14-1.22,0-1.29.46S508.61,60.65,508.55,61.18Zm-5.81-2.47c.93,0,1,0,.87-.85,0-.37-.13-.75-.15-1.12s-.2-.53-.59-.54c-1.3,0-1.3-.05-1.07,1.25,0,.16.07.33.09.49C501.94,58.52,502.2,58.84,502.74,58.71Zm5.36,1.59c.07-1.23.07-1.21-1-1.2-.45,0-.6.18-.59.6s0,1,0,1.58.21.82.81.78c.41,0,.62-.15.65-.57S508.06,60.69,508.1,60.3ZM510,56.21c-.9,0-.9,0-1,.88,0,.21,0,.42-.06.63-.07,1,0,1.05,1,1,.37,0,.6-.14.64-.54s.12-.7.18-1.06C510.93,56.21,510.93,56.21,510,56.21Zm-4,4.37a5.3,5.3,0,0,1,0-.69c.07-.59-.15-.88-.77-.78H505c-.46,0-.65.13-.58.61a11.91,11.91,0,0,1,.15,1.57c0,.6.27.79.86.78s.6-.38.58-.8Z"/><path class="cls-2" d="M524.46,24.45a3.83,3.83,0,0,1-3.93,3.9,3.94,3.94,0,1,1,.12-7.87A3.83,3.83,0,0,1,524.46,24.45Z"/><path class="cls-2" d="M503.77,33.67c.43.31.83.61,1.25.88a3.4,3.4,0,0,0,4.56-.51c.38-.42.57-.42,1,0a5.65,5.65,0,0,0,1.39.77l.47.23a1.89,1.89,0,0,1-.26.46A8.12,8.12,0,0,0,509.64,39a6.3,6.3,0,0,0-.25,1c-.06.44-.27.49-.61.3a5.57,5.57,0,0,0-4.64-.31,3.48,3.48,0,0,1-3.36-.47c-.62-.49-.61-.74,0-1.2a6.5,6.5,0,0,0,2.78-4.28,1.09,1.09,0,0,1,.07-.24A1.21,1.21,0,0,1,503.77,33.67ZM501,39.16c.38.21.63.36.88.48a3.23,3.23,0,0,0,2.63-.24,5.09,5.09,0,0,1,2.73-.2c.49.11,1.1.49,1.43.32s.43-.89.68-1.35.63-1.06,1-1.68h-.51a12.62,12.62,0,0,1-1.74,0A8.49,8.49,0,0,1,504.63,35c-.41-.27-.59-.24-.73.28a6.85,6.85,0,0,1-2.24,3.37Zm10.27-3.71c-.93-1-1.12-1-2.05-.38a9.5,9.5,0,0,1-1,.47c-.11.06-.2.15-.43.32A4.23,4.23,0,0,0,511.3,35.45Z"/></g></g></svg>