<svg xmlns="http://www.w3.org/2000/svg" viewBox="0 0 555.67 87.66"><defs><style>.cls-1{fill:#333;}.cls-2,.cls-3{fill:#fff;}.cls-3{font-size:15.49px;font-family:Poppins-SemiBold, Poppins;font-weight:600;}.cls-4{fill:#f2f2f2;}</style></defs><title>Asset 11</title><g id="Layer_2" data-name="Layer 2"><g id="Layer_1-2" data-name="Layer 1"><rect class="cls-1" width="341.72" height="87.66" rx="13.49"/><rect class="cls-1" x="360.25" width="88.03" height="87.66" rx="13.49"/><rect class="cls-1" x="467.64" width="88.03" height="87.66" rx="13.49"/><path class="cls-2" d="M36.17,50.77V39.34H33.53V36.41h6.29V50.77Z"/><path class="cls-2" d="M53.52,40.12a3.35,3.35,0,0,1-1.8,3,3.91,3.91,0,0,1,2.56,3.62c0,2.58-2.3,4.22-5.88,4.22s-5.88-1.61-5.88-4.15a4,4,0,0,1,2.72-3.69,3.64,3.64,0,0,1-2-3.08c0-2.29,2-3.75,5.12-3.75s5.14,1.5,5.14,3.86ZM46,46.41c0,1.2.86,1.88,2.44,1.88s2.46-.65,2.46-1.88S50,44.54,48.4,44.54,46,45.22,46,46.41Zm.37-6.09c0,1,.74,1.6,2.07,1.6s2.07-.57,2.07-1.6-.74-1.66-2.07-1.66-2.07.6-2.07,1.66Z"/><path class="cls-2" d="M60.35,38A17.36,17.36,0,1,1,43.9,26.24a17.21,17.21,0,0,1,5.57.92V23.29A21.05,21.05,0,1,0,65,43.6,20.84,20.84,0,0,0,64.21,38Z"/><path class="cls-2" d="M59.3,28.19v-4H56.39v4h-4V31.1h4v4H59.3v-4h4V28.19Z"/><text class="cls-3" transform="translate(85.42 30.66)">Buffalo energy drink is <tspan x="0" y="18.59">age-restricted for individuals </tspan><tspan x="0" y="37.17">over the age of </tspan><tspan x="121.3" y="37.17">16</tspan><tspan x="136.82" y="37.17">.</tspan></text><path class="cls-4" d="M405,35.45l3.28-1.9c-.26-.46-.5-.9-.75-1.33-1.46-2.52-2.91-5-4.39-7.57A5.91,5.91,0,0,0,401,22.37a15.36,15.36,0,0,0-1.63-.72h.4c4,0,8,0,12,0a3,3,0,0,1,2.8,1.52c.68,1.13,1.33,2.27,2,3.41l1,1.64,3.33-1.91.06.05-.69,1.45c-1.3,2.73-2.62,5.45-3.91,8.18a.57.57,0,0,1-.66.39l-10.2-.78-.43-.05Z"/><path class="cls-4" d="M384.88,39.68l-3.29-1.92v-.08l.49,0,10.24-.79a.44.44,0,0,1,.51.3c1.18,2.48,2.37,5,3.56,7.43.36.76.73,1.52,1,2.34-.14-.07-.28-.14-.41-.22-.84-.48-1.68-1-2.52-1.46-.28-.17-.44-.13-.6.15-1.62,2.81-3.26,5.6-4.87,8.4a6.06,6.06,0,0,0-1,2.93,18.23,18.23,0,0,0,.15,1.85s-.05,0-.08-.1L382,47.77a2.72,2.72,0,0,1-.12-2.75c.63-1.22,1.33-2.39,2-3.59C384.19,40.86,384.52,40.3,384.88,39.68Z"/><path class="cls-4" d="M411.21,47.66v.41c0,1,0,2,0,3,0,.3.1.39.4.39,3.14,0,6.29,0,9.43,0a14.57,14.57,0,0,0,2.53-.31,4,4,0,0,0,2-1.2l.2-.19.13,0L425.2,51c-1.81,3.14-3.64,6.26-5.42,9.42A3,3,0,0,1,417,62.08c-1.77,0-3.54,0-5.31,0-.39,0-.53.09-.52.5,0,1,0,2,0,2.92V66c-.15-.18-.23-.25-.29-.34-1.94-2.84-3.87-5.68-5.83-8.51a.6.6,0,0,1,0-.8c1.95-2.82,3.87-5.65,5.8-8.47l.21-.26Z"/><path class="cls-4" d="M398,37.56l-9.2-5.3c.19-.32.35-.62.52-.91,1.21-2.09,2.47-4.15,3.61-6.27,1.38-2.58,4.57-3,6.47-2.48a4.5,4.5,0,0,1,2.45,1.78c.68.95,1.26,2,1.88,3a.45.45,0,0,1,0,.36l-5.61,9.72A.83.83,0,0,1,398,37.56Z"/><path class="cls-4" d="M412.87,40.51l9.18-5.3a1.54,1.54,0,0,1,.17.24c1.32,2.27,2.64,4.53,3.93,6.82a6.56,6.56,0,0,1,.71,1.81,5.38,5.38,0,0,1-4.61,6.37,31.16,31.16,0,0,1-3.35.11.59.59,0,0,1-.41-.29c-.83-1.42-1.65-2.85-2.48-4.28l-3-5.22C413,40.7,412.93,40.63,412.87,40.51Z"/><path class="cls-4" d="M402.71,62.54h-8.1a6.12,6.12,0,0,1-1.35-.13,5.39,5.39,0,0,1-3.84-7.29,28.41,28.41,0,0,1,1.61-3,.61.61,0,0,1,.46-.19h10.86c.3,0,.39.08.39.38,0,3.32,0,6.63,0,9.95C402.74,62.31,402.72,62.4,402.71,62.54Z"/><path class="cls-2" d="M513.59,61.45c.41-2.61.81-5.23,1.22-7.84.62-4,1.23-8,1.87-12.07a.73.73,0,0,1,.49-.49c3-.16,6-.29,9-.43.1,0,.2,0,.37.05q-1.06,10.47-2.12,20.88l-.1,0q-1.68-6.76-3.38-13.53l-.24,0-7,13.47Z"/><path class="cls-2" d="M503.37,29.58h4.2c4.56,0,9.12,0,13.67,0a1.24,1.24,0,0,1,1.07.52A20.11,20.11,0,0,1,526,37.28c.2.67.36,1.36.55,2.11-.54.06-1,.12-1.41.14l-7.17.41c-1.14.06-1,.11-1.12-.9a10.91,10.91,0,0,0-1.6-4.34c-1-1.44-2.44-2-4-2.42-2.66-.79-5.28-1.67-7.91-2.52Z"/><path class="cls-2" d="M504.24,62.32c-1.13,0-2.27,0-3.4,0a.7.7,0,0,1-.85-.68c-.39-2.45-.81-4.89-1.23-7.33-.56-3.27-1.12-6.54-1.7-9.81-.09-.52-.33-1-.44-1.53a.61.61,0,0,1,.24-.52c.13-.1.36-.05.55-.05h13.67c.19,0,.43,0,.56,0s.32.4.27.5c-.7,1.3-.65,2.76-.9,4.15-.72,4-1.37,7.94-2.05,11.92-.16.91-.34,1.82-.47,2.73-.06.42-.25.58-.66.57Zm1.69-13c-.2,0-.41,0-.62,0-.6-.06-.84.19-.79.79,0,.42,0,.84,0,1.26,0,.86,0,.88.88.86,1.94,0,1.54.25,1.75-1.54C507.34,49.08,507.35,49.36,505.93,49.33Zm.18-3a8.5,8.5,0,0,0-1.13,0c-.16,0-.41.22-.42.34,0,.66,0,1.33.07,2l1.53.14h.25c.95,0,1,0,1.07-.95C507.69,46,507.78,46.32,506.11,46.3ZM504,50.81c0-.27,0-.54,0-.81.05-.49-.14-.7-.63-.68s-1.05,0-1.58,0-.52.18-.48.55.09.92.15,1.38c.12,1,.12,1,1.1,1C504,52.23,504,52.23,504,50.81Zm-1.52-4.53c-.3,0-.59,0-.88,0-.53,0-.71.17-.63.71.32,2.19-.08,1.76,2.07,1.8,1,0,1,0,1-1C504,46.3,504,46.3,502.44,46.28Zm-.2-2.74c-.32,0-.63,0-.95,0s-.67-.13-.72.37.27,1.74.54,1.82h.13c.75,0,1.51,0,2.26,0a.64.64,0,0,0,.44-.45c0-2,.31-1.7-1.51-1.74Zm4,0c-1.91,0-1.7-.37-1.71,1.6v.06c0,.37.18.53.54.52.71,0,1.42,0,2.13,0a.72.72,0,0,0,.55-.36c.53-1.51.31-1.81-1.26-1.8Zm2.68,5.76c-1.15,0-1.15,0-1.2,1.11l0,.44c-.09,1.43-.09,1.42,1.39,1.36.36,0,.54-.14.59-.49.08-.61.17-1.21.28-1.8s-.08-.64-.52-.62Zm-8.05,1.8h0c-.05-.42-.11-.83-.14-1.25s-.19-.56-.59-.55c-2,0-1.64-.21-1.43,1.61a.17.17,0,0,0,0,.07c.24,1.24.24,1.22,1.52,1.23.57,0,.76-.2.65-.74C500.88,51.38,500.88,51.25,500.87,51.13Zm3.66,3c0,1.38,0,1.38,1.35,1.35.11,0,.24,0,.31,0s.41-.26.45-.42a9.36,9.36,0,0,0,.18-1.75c0-.15-.24-.36-.42-.45a1.43,1.43,0,0,0-.55,0C504.36,52.8,504.54,52.69,504.53,54.11Zm4.85-7.82c-1.29,0-1.26-.11-1.32,1.2a5.4,5.4,0,0,1-.08.69c-.09.45.11.62.54.61,1.89,0,1.54.19,1.84-1.34C510.59,46.28,510.59,46.28,509.38,46.29ZM504,54.17c0-1.55.19-1.36-1.37-1.37h-.44c-.42,0-.55.2-.49.59s.13.92.16,1.38.27.71.8.69C504.18,55.43,503.94,55.56,504,54.17Zm-4.79-7.88v-.06l-1.08.2c.16.77.32,1.54.49,2.31l.05,0c.57,0,1.13,0,1.69,0,.09,0,.22-.29.22-.44,0-.46-.09-.92-.12-1.38s-.22-.65-.67-.62Zm-.42-2.75c-.21,0-.42,0-.62,0-.57,0-.7.22-.58.73.38,1.63.05,1.49,1.69,1.5,1,0,1,0,.88-1C500,43.54,500,43.54,498.75,43.54Zm10.75,2.22c1.21,0,1.21,0,1.37-1.08s.16-1.14-1-1.12-1.28,0-1.46,1.25c-.14.91-.12.94.78.95Zm-1,7c-1.06,0-1.06,0-1.13,1.07l0,.38c-.07,1.25.05,1.36,1.31,1.2h.07c.14-.13.37-.24.4-.39a12,12,0,0,0,.28-1.8c0-.14-.19-.35-.35-.43S508.66,52.8,508.47,52.8Zm-8.39,0c-1,0-1,0-.86,1,0,.19,0,.38.07.56.17,1.1.17,1.1,1.3,1.08h.13c.43,0,.62-.16.56-.6s-.07-.75-.13-1.12C501,52.8,501,52.8,500.08,52.8ZM505.54,56c-1,0-1,0-1,1v.38c0,1.11,0,1.11,1.11,1.08.45,0,.66-.17.69-.61s.08-.62.11-.93C506.52,56,506.52,56,505.54,56ZM504,57.26h0c0-.27,0-.54,0-.81s-.08-.38-.13-.38c-.56,0-1.11,0-1.67,0,0,.63,0,1.26.05,1.89a.72.72,0,0,0,.36.5c1,.32,1.4,0,1.4-1Zm-2.9,1.61c-.84,0-.91,0-.86.47.08.69.18,1.37.32,2s.7.37,1.09.39.44-.3.4-.61c-.05-.5-.16-1-.17-1.5S501.63,58.75,501.06,58.87Zm5.47,2.07c.07.33-.26.83.4.86.92,0,1.05,0,1.11-.7,0-.52.17-1,.25-1.54,0-.28.17-.6-.29-.68-.75-.14-1.22,0-1.29.45S506.59,60.41,506.53,60.94Zm-5.79-2.46c.93,0,1,0,.87-.85,0-.37-.13-.74-.15-1.12s-.21-.52-.59-.53c-1.29,0-1.29,0-1.07,1.24,0,.16.07.33.09.49C500,58.29,500.21,58.61,500.74,58.48Zm5.34,1.58c.07-1.23.07-1.21-1-1.2-.44,0-.6.19-.59.6s0,1,0,1.57.2.82.8.78c.41,0,.62-.15.65-.57S506,60.45,506.08,60.06ZM508,56c-.89,0-.89,0-1,.88,0,.21,0,.42-.05.63-.07,1,0,1,1,1,.37,0,.59-.14.64-.53s.12-.7.18-1.05C508.9,56,508.9,56,508,56Zm-4,4.36c0-.23,0-.46,0-.69.07-.58-.14-.87-.76-.78a1,1,0,0,1-.25,0c-.46,0-.65.14-.58.62a11.47,11.47,0,0,1,.16,1.55c0,.6.26.79.85.78s.59-.37.58-.79C504,60.8,504,60.57,504,60.34Z"/><path class="cls-2" d="M522.37,24.35a3.82,3.82,0,0,1-3.91,3.89,3.92,3.92,0,1,1,.12-7.84A3.81,3.81,0,0,1,522.37,24.35Z"/><path class="cls-2" d="M501.77,33.53c.43.31.83.61,1.24.88a3.38,3.38,0,0,0,4.54-.51c.38-.41.57-.41,1,0a5.35,5.35,0,0,0,1.39.77l.46.23a1.89,1.89,0,0,1-.26.46,8,8,0,0,0-2.5,3.48,6.06,6.06,0,0,0-.25,1c-.07.43-.27.48-.61.29a5.57,5.57,0,0,0-4.62-.31,3.46,3.46,0,0,1-3.35-.47c-.62-.48-.61-.74,0-1.19a6.5,6.5,0,0,0,2.78-4.26,1.09,1.09,0,0,1,.07-.24S501.69,33.63,501.77,33.53ZM499,39c.37.21.62.36.88.49a3.22,3.22,0,0,0,2.61-.25,5.08,5.08,0,0,1,2.73-.19c.48.1,1.09.48,1.41.31s.44-.89.68-1.34.63-1.06,1-1.67h-.5a12.62,12.62,0,0,1-1.74,0,8.5,8.5,0,0,1-3.48-1.53c-.41-.27-.6-.24-.74.28a6.78,6.78,0,0,1-2.23,3.36Zm10.23-3.69c-.93-1-1.12-1-2-.38a10.66,10.66,0,0,1-1,.47,3.68,3.68,0,0,0-.43.32A4.25,4.25,0,0,0,509.27,35.31Z"/></g></g></svg>