<svg xmlns="http://www.w3.org/2000/svg" viewBox="0 0 344.98 198.31"><defs><style>.cls-1{fill:#fff;}.cls-2{fill:#00b2d7;}</style></defs><title>Asset 31</title><g id="Layer_2" data-name="Layer 2"><g id="Layer_1-2" data-name="Layer 1"><path class="cls-1" d="M24.57,82.65,35.15,10.71H47.87l-13.6,88.2H13.61L0,10.71H14Z"/><path class="cls-1" d="M64.38,47.88h19v12.6h-19V86.31H88.31v12.6H50.52V10.71H88.31v12.6H64.38Z"/><path class="cls-1" d="M113.89,49.77h19.4v28c0,14.11-7,22.17-20.66,22.17S92,91.85,92,77.74V31.88c0-14.11,7-22.17,20.66-22.17s20.66,8.06,20.66,22.17v8.57h-13.1V31c0-6.3-2.77-8.69-7.18-8.69s-7.18,2.39-7.18,8.69V78.62c0,6.3,2.77,8.57,7.18,8.57s7.18-2.27,7.18-8.57V62.37h-6.3Z"/><path class="cls-1" d="M183.19,98.91h-14l-2.39-16h-17l-2.4,16H134.68l14.11-88.2h20.28Zm-31.63-28h13.36l-6.68-44.6Z"/><path class="cls-1" d="M198.18,35V98.91H185.7V10.71h17.39L217.33,63.5V10.71h12.34v88.2H215.44Z"/><path class="cls-1" d="M44.72,130.78v11.47c0,14.11-6.8,21.79-20.66,21.79H17.51v33.14H3.65V109H24.06C37.92,109,44.72,116.67,44.72,130.78Zm-27.21-9.2v29.86h6.55c4.41,0,6.8-2,6.8-8.31V129.9c0-6.3-2.39-8.32-6.8-8.32Z"/><path class="cls-1" d="M77,197.18c-.75-2.27-1.26-3.66-1.26-10.84V172.48c0-8.19-2.77-11.21-9.07-11.21H61.85v35.91H48V109H68.91c14.36,0,20.54,6.67,20.54,20.28v6.93c0,9.07-2.9,15-9.08,17.89,6.93,2.9,9.2,9.57,9.2,18.77v13.61c0,4.28.13,7.43,1.51,10.71Zm-15.12-75.6v27.09h5.42c5.17,0,8.32-2.27,8.32-9.32v-8.7c0-6.29-2.14-9.07-7.06-9.07Z"/><path class="cls-1" d="M93.73,130.15c0-14.11,7.43-22.17,21-22.17s21,8.06,21,22.17V176c0,14.11-7.43,22.17-21,22.17s-21-8.06-21-22.17Zm13.86,46.74c0,6.3,2.77,8.69,7.18,8.69s7.18-2.39,7.18-8.69V129.27c0-6.3-2.77-8.7-7.18-8.7s-7.18,2.4-7.18,8.7Z"/><path class="cls-1" d="M141,109h21.92c13.87,0,20.67,7.68,20.67,21.79v44.6c0,14.11-6.8,21.8-20.67,21.8H141Zm13.86,12.59v63h7.81c4.41,0,7.06-2.27,7.06-8.57V130.15c0-6.3-2.65-8.57-7.06-8.57Z"/><path class="cls-1" d="M201.82,109v68c0,6.3,2.77,8.56,7.19,8.56s7.18-2.26,7.18-8.56V109h13.1v67.15c0,14.11-7.06,22.17-20.66,22.17S188,190.25,188,176.14V109Z"/><path class="cls-1" d="M275.15,164.29V176c0,14.11-7.06,22.17-20.67,22.17s-20.66-8.06-20.66-22.17V130.15c0-14.11,7.06-22.17,20.66-22.17s20.67,8.06,20.67,22.17v8.57h-13.1v-9.45c0-6.3-2.78-8.7-7.19-8.7s-7.18,2.4-7.18,8.7v47.62c0,6.3,2.77,8.57,7.18,8.57s7.19-2.27,7.19-8.57v-12.6Z"/><path class="cls-1" d="M275.78,109h42.83v12.59H304.12v75.6H290.26v-75.6H275.78Z"/><path class="cls-2" d="M339.77,21.56a1.71,1.71,0,0,0-2-1.1c-7.45,1.6-41.67,10.23-53.76,36.14-10.29,22.08-1.07,44.91,2.9,53a.64.64,0,0,0,1.19-.1c13.36-44.61,36.11-64.44,36.11-64.44S307.19,72.37,293,111.9a.64.64,0,0,0,.73.85c8.6-1.74,31.86-9.34,43.61-29.69C351.46,58.63,342.15,28.33,339.77,21.56ZM247.5,31.77S257,60.89,277,97.68a.39.39,0,0,0,.72-.28c-3.19-11.52-4.79-27.22,2.4-42.64a52.14,52.14,0,0,1,7.16-11.23,2.88,2.88,0,0,0,.31-3.2c-14-26-43.87-38-50-40.25A1.36,1.36,0,0,0,236,.71c-3.58,6.65-22.69,44.7-8.28,75.62,12.13,26,39.83,34.8,49.81,37.22a.64.64,0,0,0,.67-1C248.16,67.07,247.5,31.77,247.5,31.77Z"/></g></g></svg>