<svg xmlns="http://www.w3.org/2000/svg" viewBox="0 0 182.05 173.64"><defs><style>.cls-1{fill:#fff;}</style></defs><title>Asset 191</title><g id="Layer_2" data-name="Layer 2"><g id="Layer_1-2" data-name="Layer 1"><path class="cls-1" d="M157.16,83.44c9.77-1.33,16.53-8.74,18.08-18.48H140.93Z"/><path class="cls-1" d="M6.82,65c1.54,9.74,8.3,17.15,18.07,18.48L41.13,65Z"/><polygon class="cls-1" points="66.56 145.34 75.87 130.27 52.71 90.04 74.76 64.96 47.39 64.96 31.36 83.44 35.29 95.61 57.24 132.01 49.92 144.21 64.79 170.38 71.37 152.81 66.56 145.34"/><path class="cls-1" d="M116.39,65l-3.78,6,16.73,19-23.16,40.23,9.31,15.07-6.79,10.53H81.89L70,173.64h45.38l16.72-29.43L124.81,132l21.95-36.4,4.09-12.18L134.63,65Z"/><path class="cls-1" d="M28.76,60.61H89l10-22.12H27.46A22.15,22.15,0,0,1,23.1,0a30.83,30.83,0,0,0,5.66,60.61Z"/><path class="cls-1" d="M159,0a22.15,22.15,0,0,1-4.36,38.49H132.41L119.12,60.61h34.17A30.83,30.83,0,0,0,159,0Z"/><polygon class="cls-1" points="103.2 38.49 71.71 107.91 91.08 107.47 67.9 171.58 119.08 92.66 95.63 93.19 128.01 38.49 103.2 38.49"/></g></g></svg>