<svg xmlns="http://www.w3.org/2000/svg" viewBox="0 0 275.41 246.81"><defs><style>.cls-1{fill:#00b1d6;}.cls-2{fill:#fff;}</style></defs><title>Asset 61</title><g id="Layer_2" data-name="Layer 2"><g id="Layer_1-2" data-name="Layer 1"><path class="cls-1" d="M185.3,60.05c7-1,11.89-6.29,13-13.3h-24.7Z"/><path class="cls-1" d="M77.1,46.75c1.12,7,6,12.34,13,13.3l11.68-13.3Z"/><polygon class="cls-1" points="120.09 104.59 126.8 93.75 110.13 64.8 126 46.75 106.3 46.75 94.76 60.05 97.6 68.81 113.39 95 108.12 103.78 118.82 122.61 123.56 109.97 120.09 104.59"/><path class="cls-1" d="M156,46.75l-2.72,4.35,12,13.7-16.67,29,6.7,10.84-4.89,7.59H131.13L122.59,125h32.66l12-21.18L162,95l15.79-26.19,2.94-8.76-11.66-13.3Z"/><path class="cls-1" d="M92.89,43.62h43.38l7.21-15.92H92A15.95,15.95,0,0,1,88.82,0a22.19,22.19,0,0,0,4.07,43.62Z"/><path class="cls-1" d="M186.58,0a15.94,15.94,0,0,1-3.13,27.7h-16l-9.57,15.92h24.59A22.19,22.19,0,0,0,186.58,0Z"/><polygon class="cls-2" points="146.46 27.7 123.8 77.66 137.74 77.34 121.06 123.48 157.89 66.68 141.02 67.06 164.32 27.7 146.46 27.7"/><path class="cls-2" d="M0,188l0-.1a10.67,10.67,0,0,0,2.57-1.53,27.73,27.73,0,0,1,2.46-1.76l.57-1.27c-.11-.28-.22-.56-.31-.84A11.52,11.52,0,0,1,5,181.07a1.15,1.15,0,0,0,.41-.29q1.69.67,5.16,1.77l.09,0L6,175.91l0-4.71,3.13-3.48c-1.87-.84-3-1.76-3.31-2.78a8.47,8.47,0,0,1-.22-3.08L6,161.6a10,10,0,0,1,1.59.58l.11-.07c-.1-.17-.58-1.22-1.44-3.14q-1.78-4,.44-5.94l-1.66,0-1.44,0a19.86,19.86,0,0,1-3.2,2L.31,155c0-.48.75-1.37,2.16-2.68A21.69,21.69,0,0,1,5.28,150c1.21-.11,2.49-.16,3.83-.17q1.26,0,3.81-.09c1.7-.05,3-.08,3.82-.09q14.36,0,16.47,6.39a7.73,7.73,0,0,1,.35,2.54c0,3.82-2,6.58-5.86,8.25q6.24,1.35,7.69,5.76a9.56,9.56,0,0,1,.45,3.12q-.11,7.78-7.41,10.3-4.08,1.39-14.14,1.42h.13a.58.58,0,0,1-.19,0h-.55l-2.48.13Zm14.65-4.48c2.25,1.12,3.44,1.68,3.55,1.68,3.39,0,5.56-.43,6.51-1.28a4,4,0,0,0,2.71-2.47,1.94,1.94,0,0,0-.28-.65l0,.06.11-.09a14,14,0,0,0,1.38.67l-1.21-1.39-.06.13a8.29,8.29,0,0,1,0-1.17c.77.35,2,.8,3.55,1.36,0-.07.06-.1.11-.1L28.12,177a8.69,8.69,0,0,0-.39-3q-1.68-5.34-10.69-5.32a8.75,8.75,0,0,0-2.65.27l-.8,9.1A12,12,0,0,0,14.65,183.55Zm-.2-17.46a24,24,0,0,0,2.85.16q10,0,10.13-7.1a5,5,0,0,0-.24-1.65q-.93-2.87-5.43-4.18a24.37,24.37,0,0,0-6.85-.89,3.23,3.23,0,0,0-.79.1l-.21.29a5.25,5.25,0,0,0,.6,1C14.45,158.18,14.42,162.28,14.45,166.09Z"/><path class="cls-2" d="M40.49,152.57l-.82-1.69q1.65-.36,1.77-.42A32,32,0,0,1,50.73,152c.26-.05.33-.36.2-.95l1-.58,8-.08.8,1.06-.8,1.21c-1.35,0-2.3.1-2.85.17a8.66,8.66,0,0,0-2.73.72q-.74,2.56,0,8.17l-3.18,2.7,2.81.13a53.77,53.77,0,0,0,.28,13.85c-.48.78-.94,1.65-1.4,2.6l.13.1,1.65-.69.13.07q1.89,5.13,8.4,5.11,11.43,0,11.6-12.62.1-7.45-.81-10.25l.55-.2c.59.13.83.2.72.2l.22-.26a13.94,13.94,0,0,1-1-5.47c0-2.05-.3-3.37-.75-4-.75-1-2.49-1.45-5.19-1.38l-.4-.06-.3-1.14,2.78-1.07,6.61,0a12.34,12.34,0,0,1,6.21,1.43l.06.71-4.74.84-1.33-.51-.1.13a8.64,8.64,0,0,1,1.6,2.46c-.19,2.14-.24,5.37-.17,9.67l.18,9.71q.27,14.76-17.68,14.8-12.29,0-15-8.18a17.06,17.06,0,0,1-.78-5.06l1.32-.88q-.48-1.14-.78-2.07a8.58,8.58,0,0,1-.51-2.37l1.19-2.21-1.61-.52-.23-2.59,3.91-6.6-3.11,3.64,0-2.4L46.92,158l-1.24-1.29a8.73,8.73,0,0,0-.31-2.3,1.61,1.61,0,0,0-.92-1.14Z"/><path class="cls-2" d="M121.33,160.34q-2.49-4.56-5-5.76-2.07-1-7.57-1a26.22,26.22,0,0,0-7.88,1.15l0,.26a2.23,2.23,0,0,0,.92.91,25.82,25.82,0,0,1-.68,4.48,24,24,0,0,0-.68,4.48l.14.22,1.53-.84a16.48,16.48,0,0,0,2.38,2.56h3.78a6.32,6.32,0,0,0,3.27-.85,2.84,2.84,0,0,0,1.69-2.47,2.4,2.4,0,0,0-.13-.68,4.44,4.44,0,0,0-2.3-2.24l4.38,1.58.59,1.82a8.54,8.54,0,0,1-3.24,4.06l2.09-.62.71.62-.93,4-3.59,2.61a4.64,4.64,0,0,0,1.7-3.17,1.85,1.85,0,0,0-1-1.63,3.68,3.68,0,0,0-2.06-.62,61.71,61.71,0,0,0-7.56.37q-.63,3.19-.62,15.48a9.84,9.84,0,0,1-.59,2c-.39,1.07-.62,1.79-.71,2.16,0,.22,0,.35.2.39a1.39,1.39,0,0,0,.47-.12,1.66,1.66,0,0,1,.41-.11l.12.06q-.07,4.13,1.14,5.75,1.44,1.9,5.59,2.26a28.49,28.49,0,0,0-5.82,2.05,16,16,0,0,1-5.89,1.61l-.78-.2c.16-.82,1.07-1.31,2.73-1.46a5.2,5.2,0,0,0-1.06-1.79A47.06,47.06,0,0,1,87,201.63l-.88-.71q4.24-.88,5.94-3.84a13.89,13.89,0,0,0,1.26-6.37c0-1.08,0-2.69,0-4.83l.16-.46,4.68-.91a23,23,0,0,1-4.68-1.16L95,181.66l0-.07H93.86l-.64-.48v-.65l.38-.33,3.16,1.23-2.87-2.82a36,36,0,0,1-.45-8.43l.15-6.62a25.39,25.39,0,0,1,4-3.13,29.49,29.49,0,0,0-4-.83l-.18-6-1.06-.2a4.48,4.48,0,0,0-2.39.92c-.9.61-1.35,1.21-1.35,1.82l0,.23q-.18-5.94,8.25-6,17.81,0,23-.34a16.37,16.37,0,0,0-1,2.71,17.13,17.13,0,0,0,.71,2.48C120,156.47,120.58,158.18,121.33,160.34Z"/><path class="cls-2" d="M155.52,160.27q-2.49-4.58-5-5.76c-1.37-.67-3.9-1-7.56-1a25.91,25.91,0,0,0-7.88,1.15l0,.26a2.33,2.33,0,0,0,.91.91,24.79,24.79,0,0,1-.68,4.47,25,25,0,0,0-.68,4.48l.14.23,1.54-.85a16.36,16.36,0,0,0,2.37,2.56h3.79a6.33,6.33,0,0,0,3.27-.86,2.83,2.83,0,0,0,1.68-2.47,2.17,2.17,0,0,0-.12-.68,4.43,4.43,0,0,0-2.3-2.23l4.37,1.58.6,1.82a8.58,8.58,0,0,1-3.24,4.06l2.08-.62.72.61-.94,4-3.58,2.6a4.6,4.6,0,0,0,1.69-3.17,1.83,1.83,0,0,0-1-1.63,3.72,3.72,0,0,0-2.06-.61,59.52,59.52,0,0,0-7.56.37q-.63,3.18-.62,15.47a10.4,10.4,0,0,1-.59,2,22,22,0,0,0-.71,2.17c0,.21,0,.34.19.39a1.38,1.38,0,0,0,.48-.12,1.3,1.3,0,0,1,.41-.11l.12.06q-.09,4.13,1.13,5.74,1.46,1.92,5.59,2.26a28.9,28.9,0,0,0-5.81,2.06,16,16,0,0,1-5.89,1.6l-.78-.19q.24-1.23,2.73-1.47a5.22,5.22,0,0,0-1.07-1.78,46.75,46.75,0,0,1-10.1,3.95l-.89-.71q4.26-.89,6-3.85a14,14,0,0,0,1.25-6.36c0-1.08,0-2.69,0-4.83l.15-.46,4.69-.92a22,22,0,0,1-4.68-1.16l1.56-1.69,0-.06h-1.16l-.64-.48v-.65l.37-.33,3.17,1.23-2.87-2.82a36.11,36.11,0,0,1-.45-8.44l.15-6.62a24.52,24.52,0,0,1,4-3.12,29.11,29.11,0,0,0-4-.84l-.19-6-1-.19a4.43,4.43,0,0,0-2.4.92c-.89.6-1.34,1.21-1.35,1.82l0,.22q-.16-5.94,8.26-5.95,17.8,0,23-.35a16.64,16.64,0,0,0-1,2.72,16.08,16.08,0,0,0,.71,2.48Q154.39,157,155.52,160.27Z"/><path class="cls-2" d="M145.71,195.28l1.26-2q3.78-1,5.84-5.82c0-.08.85-2.75,2.43-8l3.1-2.08-2.3-1,2.58-6.4,2.34-.16-.5-2.57c.18-.5.82-2.23,1.94-5.19a16.3,16.3,0,0,1,2.78-4.88l4.16-.53-4.77-1.51a11.43,11.43,0,0,0,3.34-5.85l2.57,2.62-.92-3.43q2,.28,8.65,17.21,6.82,17.47,8,18.32a33.47,33.47,0,0,0,4.52,2.65l0,.65q-.82,0-2.46-.09c-1.09-.07-1.9-.1-2.42-.1l-.94.27.43.77-.33.13q-9-.94-13.73-.94h-1.77l1.49-1.68L176,184.1l.33-.65a22.37,22.37,0,0,0-1.31-3.57l3.84-3.3-4.91.66-1.24-2.43a27.38,27.38,0,0,0-5.87-.8,15.64,15.64,0,0,0-4.83.78l-3,7.08a35.46,35.46,0,0,0-2.24,7.28l.42,1.07a1.39,1.39,0,0,0,.57.1,4.93,4.93,0,0,0,1.35-.27,5.24,5.24,0,0,1,1.35-.26,3,3,0,0,1,1.89.87l-.41.72h-.28a15.41,15.41,0,0,0-3.72.72,11.32,11.32,0,0,1-3.77.59,5.23,5.23,0,0,1,1.5,1,33.63,33.63,0,0,1-4.44,1,26.86,26.86,0,0,1-4.63.57Zm17.56-24.09a6.9,6.9,0,0,0,1.89.26,40.69,40.69,0,0,0,5.85-1.12q-.76-2.6-3.21-10.3Z"/><path class="cls-2" d="M198.94,183a9.25,9.25,0,0,0-2.56-.52,23.68,23.68,0,0,0,1.33-7.5q.07-1.14.22-7.66h2.15l-2.8-3.31c.06-2.81.11-4.45.16-4.93.28-2.55.93-3.83,1.95-3.83a1.84,1.84,0,0,1,.47.06l-1.33-1.75a21.14,21.14,0,0,1-6.68-1.83,2.17,2.17,0,0,1,.47,0A23.61,23.61,0,0,1,195,152l.18-.07c-.77-.41-1.89-1.08-3.35-2l.57-.13h-.07q9.24.47,14.35.45a29.62,29.62,0,0,0,5-.59l1.25.68.58,1.45c-2.38.38-3.8.63-4.26.76-2,.52-3,1.22-2.9,2.08l-1.89,2.67,3-.92A24.27,24.27,0,0,0,204,158.9l-.06,2L205,159l1.19.9-.46,22.36.29,1.14,4-.27-.31,1.76a23,23,0,0,1,5.47-1.35,46.11,46.11,0,0,0,6.34-1.37c2-.72,3.06-1.69,3.08-2.9a8.79,8.79,0,0,0-.46-1.81c-.2-.59-.44-1.3-.74-2.14l2.89,1.61a20.53,20.53,0,0,1,1.56,3.41,7.66,7.66,0,0,1,.43,2.56,17.14,17.14,0,0,1-.54,4.28l-2,.14c-1,.07-2.12.1-3.35.1-1.79,0-4.52-.11-8.18-.34s-6.4-.34-8.22-.34c-.71,0-1.79,0-3.25-.05s-2.54-.06-3.24-.06q-8.16,0-12.06,4.15.1-3.65,2.55-5.23a14.1,14.1,0,0,1,4.71-1.43A14.8,14.8,0,0,0,198.94,183Z"/><path class="cls-2" d="M232.59,169.26c-.16-.76-.34-1.87-.55-3.34a7.7,7.7,0,0,1,1.61-.1q1.18,0,3.27.09a17.34,17.34,0,0,0-4.51-2.2A17.85,17.85,0,0,1,240,153.08a24.55,24.55,0,0,1,13.93-4q9.24,0,15.28,4.94a16.39,16.39,0,0,1,5.34,7.64,18.83,18.83,0,0,1,.87,6.2,19.53,19.53,0,0,1-6.35,14.65q-6.3,5.89-16,5.91a22.43,22.43,0,0,1-9.58-2.16,21.11,21.11,0,0,1-8.18-6.4,30.33,30.33,0,0,0,3.85-.63c-1.64-.3-3.33-.68-5.05-1.16a7.62,7.62,0,0,1-.68-1.55A23.19,23.19,0,0,1,232.59,169.26Zm8.2-5.41A25.15,25.15,0,0,0,241.9,172a18.14,18.14,0,0,0,1,2.5c-.84.91-1.68,1.91-2.52,3q1,.75,4.47.93a22.83,22.83,0,0,0,3.74,4.54,8.71,8.71,0,0,0,5.66,1.93,12.47,12.47,0,0,0,8.86-3.17,11,11,0,0,0,3.36-8.15,22.62,22.62,0,0,0-.7-5.58c.44,0,1.1-.07,2-.07s2,0,3.4.06q-5.79-1.65-6.2-3.07a2.1,2.1,0,0,0,.7-1,17.55,17.55,0,0,0-1.54-1.26l3.51-.53c-1.57-.77-3.23-1.69-5-2.74q-4.14-6.69-9.67-6.67Q240.95,152.79,240.79,163.85Z"/><path class="cls-1" d="M75,226H90.14v3.24H78.59v5.25H88.82v3.24H78.59v5.45H90.28v3.24H75Z"/><path class="cls-1" d="M94.86,226h3.32l10.91,14.12V226h3.56v20.42h-3L98.42,231.93v14.53H94.86Z"/><path class="cls-1" d="M118.19,226H133.3v3.24H121.75v5.25H132v3.24H121.75v5.45h11.7v3.24H118.19Z"/><path class="cls-1" d="M138,226h9.1a10,10,0,0,1,3.41.54,6.89,6.89,0,0,1,2.48,1.5,6,6,0,0,1,1.25,2,6.64,6.64,0,0,1,.44,2.45v.06a6.46,6.46,0,0,1-.37,2.26,5.85,5.85,0,0,1-1,1.78,6.24,6.24,0,0,1-1.53,1.31,7.53,7.53,0,0,1-2,.83l5.51,7.73h-4.23l-5-7.12h-4.51v7.12H138Zm8.82,10.12a4.7,4.7,0,0,0,3.07-.92,3,3,0,0,0,1.14-2.5v-.06a3,3,0,0,0-1.11-2.54,5,5,0,0,0-3.13-.86h-5.24v6.88Z"/><path class="cls-1" d="M169.09,246.81a11.43,11.43,0,0,1-4.35-.8,10.06,10.06,0,0,1-3.34-2.22,9.82,9.82,0,0,1-2.14-3.33,11,11,0,0,1-.76-4.15v-.06a10.66,10.66,0,0,1,.78-4.05,10.29,10.29,0,0,1,5.54-5.66,10.36,10.36,0,0,1,4.24-.85,15,15,0,0,1,2.43.19,11.79,11.79,0,0,1,2,.54,10.34,10.34,0,0,1,1.77.86,13.52,13.52,0,0,1,1.61,1.18l-2.27,2.72a12.63,12.63,0,0,0-1.2-.91,6.82,6.82,0,0,0-1.28-.68,7.89,7.89,0,0,0-1.47-.44,8.89,8.89,0,0,0-1.77-.16,5.93,5.93,0,0,0-2.61.58,6.88,6.88,0,0,0-2.1,1.57,7.27,7.27,0,0,0-1.4,2.29,7.62,7.62,0,0,0-.51,2.78v0a8.42,8.42,0,0,0,.5,2.93,6.53,6.53,0,0,0,3.59,3.83,7,7,0,0,0,2.84.55,8.61,8.61,0,0,0,2.72-.42,7.8,7.8,0,0,0,2.19-1.13v-3.85h-5.22v-3.12h8.69v8.58a13.56,13.56,0,0,1-1.67,1.22,13.82,13.82,0,0,1-2,1,12.22,12.22,0,0,1-2.29.68A12.49,12.49,0,0,1,169.09,246.81Z"/><path class="cls-1" d="M188.57,238.41,180.46,226h4.23l5.72,9,5.77-9h4.12l-8.11,12.28v8.14h-3.62Z"/></g></g></svg>