<svg xmlns="http://www.w3.org/2000/svg" viewBox="0 0 242.86 83.14"><defs><style>.cls-1{fill:#fff;}.cls-2{fill:#00b2d7;}</style></defs><title>Asset 21</title><g id="Layer_2" data-name="Layer 2"><g id="Layer_1-2" data-name="Layer 1"><path class="cls-1" d="M0,34.83l0-.08A9.37,9.37,0,0,0,2.3,33.4a24.36,24.36,0,0,1,2.17-1.55L5,30.73A7.61,7.61,0,0,1,4.7,30a10.85,10.85,0,0,1-.33-1.28,1.2,1.2,0,0,0,.37-.26c1,.4,2.51.92,4.54,1.56l.08,0-4-5.82,0-4.15,2.75-3.07c-1.64-.74-2.62-1.56-2.91-2.46A7.44,7.44,0,0,1,5,11.76l.32-.23A9,9,0,0,1,6.7,12L6.8,12c-.09-.15-.51-1.08-1.27-2.77-1-2.35-.92-4.09.39-5.24L4.45,4,3.18,4A18.63,18.63,0,0,1,.36,5.76L.27,5.67c0-.42.66-1.2,1.91-2.36a19.8,19.8,0,0,1,2.47-2Q6.25,1.16,8,1.16c.74,0,1.86,0,3.36-.08S14,1,14.76,1Q27.42,1,29.28,6.64a6.48,6.48,0,0,1,.31,2.23q0,5.07-5.16,7.28c3.67.79,5.93,2.49,6.78,5.08A8.46,8.46,0,0,1,31.6,24q-.09,6.86-6.53,9.08-3.6,1.24-12.47,1.26h.12l-.17,0h-.48l-2.19.12Zm12.92-3.94a32.44,32.44,0,0,0,3.13,1.47c3,0,4.9-.38,5.74-1.12a3.54,3.54,0,0,0,2.39-2.18c-.12-.37-.2-.56-.25-.58v.06l.09-.08a11.89,11.89,0,0,0,1.22.59l-1.07-1.22-.05.11a10.28,10.28,0,0,1,0-1c.69.3,1.73.7,3.14,1.2q0-.09.09-.09l-2.5-2.93a7.8,7.8,0,0,0-.35-2.63Q23,17.75,15,17.77a7.64,7.64,0,0,0-2.33.24L12,26A10.55,10.55,0,0,0,12.92,30.89Zm-.18-15.4a22.75,22.75,0,0,0,2.51.14q8.85,0,8.94-6.26A4.37,4.37,0,0,0,24,7.91q-.82-2.52-4.79-3.68a21.43,21.43,0,0,0-6-.79,2.84,2.84,0,0,0-.69.09l-.19.25a4.51,4.51,0,0,0,.52.86C12.74,8.52,12.72,12.13,12.74,15.49Z"/><path class="cls-1" d="M35.71,3.56,35,2.08c1-.22,1.49-.34,1.56-.38a28.64,28.64,0,0,1,8.19,1.39c.23,0,.29-.32.18-.83l.89-.52,7.05-.07.7.94-.71,1.06c-1.19,0-2,.09-2.51.15a7.89,7.89,0,0,0-2.41.63q-.64,2.26,0,7.21l-2.8,2.39,2.47.1a47.72,47.72,0,0,0,.25,12.22c-.41.69-.83,1.45-1.23,2.29l.12.09,1.45-.6.11.05q1.66,4.53,7.41,4.51Q65.8,32.68,66,21.58c.07-4.38-.17-7.4-.71-9l.49-.17c.51.11.72.17.62.17l.2-.23a12.22,12.22,0,0,1-.92-4.82A6.9,6.9,0,0,0,65,4c-.67-.88-2.2-1.28-4.59-1.22L60,2.73l-.26-1L62.22.79l5.83,0A10.64,10.64,0,0,1,73.52,2l.06.62-4.18.75-1.18-.46L68.14,3a7.59,7.59,0,0,1,1.41,2.17Q69.29,8,69.4,13.74l.15,8.55q.24,13-15.58,13.06-10.83,0-13.21-7.22a14.86,14.86,0,0,1-.68-4.46l1.16-.77q-.42-1-.69-1.83A7.21,7.21,0,0,1,40.11,19l1-1.95-1.41-.46-.21-2.28L43,8.47l-2.74,3.21,0-2.12,1.11-1.2-1.1-1.14a7,7,0,0,0-.28-2,1.36,1.36,0,0,0-.81-1Z"/><path class="cls-1" d="M107,10.42q-2.19-4-4.38-5.08c-1.21-.59-3.44-.88-6.66-.88a23.21,23.21,0,0,0-7,1v.23a1.92,1.92,0,0,0,.8.8,22,22,0,0,1-.6,4,22,22,0,0,0-.6,3.95l.13.2,1.35-.75a15.14,15.14,0,0,0,2.09,2.26h3.34a5.53,5.53,0,0,0,2.89-.75,2.49,2.49,0,0,0,1.48-2.18,1.91,1.91,0,0,0-.11-.6,3.9,3.9,0,0,0-2-2l3.86,1.4.53,1.6a7.5,7.5,0,0,1-2.86,3.58l1.84-.55.63.55-.82,3.55L97.74,23a4.13,4.13,0,0,0,1.49-2.79,1.63,1.63,0,0,0-.85-1.44,3.28,3.28,0,0,0-1.82-.54,51,51,0,0,0-6.67.33q-.56,2.81-.55,13.64A7.53,7.53,0,0,1,88.82,34c-.34.95-.55,1.59-.62,1.91s0,.31.17.34a1.23,1.23,0,0,0,.42-.1,1.69,1.69,0,0,1,.36-.1l.11.06q-.08,3.63,1,5.06c.85,1.13,2.49,1.79,4.93,2A25.16,25.16,0,0,0,90.06,45a14,14,0,0,1-5.19,1.41l-.69-.17q.21-1.08,2.4-1.29a4.54,4.54,0,0,0-.93-1.57,41.71,41.71,0,0,1-8.92,3.48L76,46.2a7.39,7.39,0,0,0,5.24-3.39,12.38,12.38,0,0,0,1.11-5.61c0-1,0-2.37,0-4.26l.14-.4,4.13-.81a20.42,20.42,0,0,1-4.13-1l1.38-1.5,0-.05h-1l-.57-.43v-.57l.32-.29L85.32,29l-2.53-2.48a31.25,31.25,0,0,1-.4-7.44l.13-5.84A22.06,22.06,0,0,1,86,10.44a24.68,24.68,0,0,0-3.49-.74l-.16-5.26-.93-.17a3.9,3.9,0,0,0-2.11.8c-.79.54-1.19,1.07-1.19,1.61l0,.2Q78,1.65,85.44,1.62q15.7,0,20.25-.3a14.53,14.53,0,0,0-.87,2.4,14.52,14.52,0,0,0,.63,2.18C105.81,7,106.33,8.52,107,10.42Z"/><path class="cls-1" d="M137.14,10.36c-1.46-2.69-2.92-4.38-4.38-5.09q-1.83-.88-6.67-.87a22.83,22.83,0,0,0-7,1v.23a1.89,1.89,0,0,0,.8.79,22.13,22.13,0,0,1-.6,4,21.92,21.92,0,0,0-.6,3.95l.12.2,1.36-.75a14.14,14.14,0,0,0,2.09,2.25h3.34a5.58,5.58,0,0,0,2.89-.75A2.5,2.5,0,0,0,130,13.12a1.91,1.91,0,0,0-.11-.6,3.9,3.9,0,0,0-2-2l3.86,1.39.53,1.6a7.59,7.59,0,0,1-2.86,3.59l1.83-.55.63.54L131,20.67,127.88,23a4,4,0,0,0,1.49-2.8,1.59,1.59,0,0,0-.85-1.43,3.26,3.26,0,0,0-1.81-.55,54.7,54.7,0,0,0-6.67.33q-.56,2.81-.55,13.65a8.28,8.28,0,0,1-.52,1.76,19.27,19.27,0,0,0-.62,1.91c0,.19,0,.3.17.34a1.23,1.23,0,0,0,.42-.1,1.23,1.23,0,0,1,.36-.1l.11.06q-.07,3.63,1,5.06c.85,1.12,2.49,1.79,4.92,2a25.79,25.79,0,0,0-5.12,1.81,14,14,0,0,1-5.2,1.42l-.68-.17c.14-.73.94-1.16,2.4-1.3a4.52,4.52,0,0,0-.94-1.57,40.89,40.89,0,0,1-8.91,3.48l-.78-.62a7.35,7.35,0,0,0,5.24-3.39,12.12,12.12,0,0,0,1.11-5.61c0-1,0-2.38,0-4.27l.14-.4,4.13-.81a19.77,19.77,0,0,1-4.13-1L114,29.15v-.06h-1l-.56-.43v-.58l.33-.28,2.79,1.08-2.53-2.48a31.49,31.49,0,0,1-.39-7.44l.13-5.84a22,22,0,0,1,3.49-2.76,27,27,0,0,0-3.49-.73l-.17-5.27-.92-.17a3.87,3.87,0,0,0-2.12.81c-.79.53-1.18,1.07-1.19,1.6l0,.2q-.15-5.23,7.28-5.25,15.71,0,20.25-.3A14.62,14.62,0,0,0,135,3.65a14.82,14.82,0,0,0,.63,2.19Q136.14,7.49,137.14,10.36Z"/><path class="cls-1" d="M128.49,41.22l1.11-1.74q3.33-.93,5.15-5.14c0-.07.75-2.42,2.14-7l2.74-1.84-2-.85L139.88,19l2.05-.14-.44-2.26q.24-.66,1.72-4.59a14.48,14.48,0,0,1,2.44-4.29l3.67-.47-4.2-1.33A10.21,10.21,0,0,0,148.07.72L150.33,3l-.81-3q1.77.26,7.63,15.18,6,15.41,7,16.15a28.49,28.49,0,0,0,4,2.34l0,.57c-.48,0-1.2,0-2.16-.08s-1.67-.08-2.14-.08l-.82.23.37.69-.29.11A120.36,120.36,0,0,0,151,34.28h-1.56l1.32-1.48,4.47-1.43.29-.57a20.72,20.72,0,0,0-1.15-3.16l3.38-2.9-4.33.58-1.1-2.15a24.92,24.92,0,0,0-5.17-.7,13.75,13.75,0,0,0-4.26.69l-2.62,6.24a32.67,32.67,0,0,0-2,6.42l.37,1a1.52,1.52,0,0,0,.51.08,4.63,4.63,0,0,0,1.19-.23,4.63,4.63,0,0,1,1.19-.23,2.6,2.6,0,0,1,1.67.77l-.37.63h-.24a13.65,13.65,0,0,0-3.28.63A10.24,10.24,0,0,1,136,39a4.68,4.68,0,0,1,1.32.91,28.68,28.68,0,0,1-3.92.9,24.29,24.29,0,0,1-4.08.49ZM144,20a6.17,6.17,0,0,0,1.67.22,36.08,36.08,0,0,0,5.16-1c-.45-1.53-1.4-4.56-2.83-9.09Z"/><path class="cls-1" d="M175.43,30.42a8.78,8.78,0,0,0-2.26-.45,20.73,20.73,0,0,0,1.17-6.61c0-.67.11-2.92.19-6.76h1.9L174,13.68c.05-2.48.09-3.93.14-4.35.24-2.25.81-3.37,1.72-3.38a1.45,1.45,0,0,1,.41.06l-1.17-1.54a18.63,18.63,0,0,1-5.89-1.62,2.37,2.37,0,0,1,.41,0A20.14,20.14,0,0,1,172,3l.16-.06c-.68-.36-1.66-1-3-1.76l.51-.12h-.06q8.15.42,12.65.4A25.6,25.6,0,0,0,186.72,1l1.1.6.51,1.28c-2.1.33-3.35.56-3.76.67-1.79.46-2.64,1.08-2.55,1.84l-1.67,2.35L183,6.91a20.88,20.88,0,0,0-3.11,2.24l-.05,1.77,1-1.66,1.05.8-.41,19.71.26,1,3.56-.24L185,32.09a20.5,20.5,0,0,1,4.82-1.18,40.49,40.49,0,0,0,5.59-1.22c1.8-.63,2.7-1.48,2.71-2.55a6.85,6.85,0,0,0-.4-1.6c-.17-.52-.39-1.15-.65-1.89l2.54,1.43a16.09,16.09,0,0,1,1.38,3,6.56,6.56,0,0,1,.38,2.26,15.59,15.59,0,0,1-.47,3.78l-1.8.11c-.89.06-1.87.09-3,.1-1.59,0-4-.1-7.22-.3s-5.64-.31-7.25-.3c-.62,0-1.57,0-2.86,0s-2.24-.06-2.86,0q-7.2,0-10.63,3.65a5.29,5.29,0,0,1,2.25-4.61,12.3,12.3,0,0,1,4.15-1.25A13,13,0,0,0,175.43,30.42Z"/><path class="cls-1" d="M205.1,18.28q-.21-1-.48-2.94a6.77,6.77,0,0,1,1.41-.09c.7,0,1.67,0,2.89.08a15.3,15.3,0,0,0-4-1.94A15.71,15.71,0,0,1,211.62,4,21.49,21.49,0,0,1,223.9.53q8.16,0,13.47,4.35a14.39,14.39,0,0,1,4.71,6.74,16.37,16.37,0,0,1,.77,5.46A17.22,17.22,0,0,1,237.25,30a21,21,0,0,1-22.55,3.31,18.58,18.58,0,0,1-7.21-5.65,25.67,25.67,0,0,0,3.4-.55c-1.45-.26-2.94-.6-4.46-1a7.53,7.53,0,0,1-.6-1.37A20.6,20.6,0,0,1,205.1,18.28Zm7.23-4.76a21.94,21.94,0,0,0,1,7.2,17,17,0,0,0,.9,2.21c-.74.8-1.48,1.69-2.22,2.66.58.44,1.9.71,3.94.82a19.67,19.67,0,0,0,3.3,4,7.67,7.67,0,0,0,5,1.71A11,11,0,0,0,232,29.33a9.71,9.71,0,0,0,3-7.19,20.3,20.3,0,0,0-.62-4.92c.39,0,1-.06,1.75-.06s1.8,0,3,.05q-5.12-1.46-5.46-2.71a2,2,0,0,0,.61-.89,14.78,14.78,0,0,0-1.36-1.11L236,12q-2.09-1-4.38-2.42Q228,3.73,223.12,3.73,212.47,3.76,212.33,13.52Z"/><path class="cls-2" d="M55.4,61.24H71.33v3.42H59.15v5.53H69.94V73.6H59.15v5.75H71.48v3.42H55.4Z"/><path class="cls-2" d="M76.31,61.24H79.8L91.31,76.13V61.24h3.75V82.77H91.9L80.06,67.46V82.77H76.31Z"/><path class="cls-2" d="M100.9,61.24h15.93v3.42H104.66v5.53h10.79V73.6H104.66v5.75H117v3.42H100.9Z"/><path class="cls-2" d="M121.81,61.24h9.6a10.44,10.44,0,0,1,3.59.57,7.22,7.22,0,0,1,2.62,1.59,6.27,6.27,0,0,1,1.32,2.06A6.93,6.93,0,0,1,139.4,68v.06a7.07,7.07,0,0,1-.38,2.38A6.09,6.09,0,0,1,138,72.36a6.33,6.33,0,0,1-1.61,1.38,7.83,7.83,0,0,1-2.07.88l5.81,8.15h-4.46l-5.31-7.5h-4.75v7.5h-3.75Zm9.31,10.67a5,5,0,0,0,3.23-1,3.2,3.2,0,0,0,1.21-2.64v-.06a3.16,3.16,0,0,0-1.18-2.67,5.25,5.25,0,0,0-3.3-.91h-5.52v7.25Z"/><path class="cls-2" d="M154.56,83.14a11.83,11.83,0,0,1-4.58-.85A10.14,10.14,0,0,1,146.46,80a10.29,10.29,0,0,1-2.26-3.5,11.61,11.61,0,0,1-.8-4.38V72a11.28,11.28,0,0,1,.82-4.28,11,11,0,0,1,10.31-6.85,14.5,14.5,0,0,1,2.57.2,12.05,12.05,0,0,1,2.13.56,10.69,10.69,0,0,1,1.86.91,13.32,13.32,0,0,1,1.71,1.25l-2.4,2.86a14,14,0,0,0-1.26-1,8,8,0,0,0-1.35-.72,8.41,8.41,0,0,0-1.56-.46,9.66,9.66,0,0,0-1.86-.17,6.26,6.26,0,0,0-2.75.62,7.07,7.07,0,0,0-2.21,1.65A7.56,7.56,0,0,0,147.93,69a8,8,0,0,0-.54,2.93V72a8.78,8.78,0,0,0,.53,3.08,6.92,6.92,0,0,0,1.48,2.44,7.2,7.2,0,0,0,2.3,1.6,7.4,7.4,0,0,0,3,.58,9.16,9.16,0,0,0,2.86-.44,8.31,8.31,0,0,0,2.32-1.19V74h-5.51V70.75h9.17v9a17.54,17.54,0,0,1-1.77,1.29,12.83,12.83,0,0,1-2.09,1.07,13.41,13.41,0,0,1-2.42.73A13.89,13.89,0,0,1,154.56,83.14Z"/><path class="cls-2" d="M175.1,74.28l-8.55-13H171l6,9.54,6.08-9.54h4.34l-8.55,12.95v8.58H175.1Z"/></g></g></svg>