<svg viewBox="0 0 182.05 173.64" xmlns="http://www.w3.org/2000/svg"><path d="m157.16 83.44c9.77-1.33 16.53-8.74 18.08-18.48h-34.31z"/><path d="m6.82 65c1.54 9.74 8.3 17.15 18.07 18.48l16.24-18.48z"/><path d="m66.56 145.34 9.31-15.07-23.16-40.23 22.05-25.08h-27.37l-16.03 18.48 3.93 12.17 21.95 36.4-7.32 12.2 14.87 26.17 6.58-17.57z"/><path d="m116.39 65-3.78 6 16.73 19-23.16 40.23 9.31 15.07-6.79 10.53h-26.81l-11.89 17.81h45.38l16.72-29.43-7.29-12.21 21.95-36.4 4.09-12.18-16.22-18.42z"/><path d="m28.76 60.61h60.24l10-22.12h-71.54a22.15 22.15 0 0 1 -4.36-38.49 30.83 30.83 0 0 0 5.66 60.61z"/><path d="m159 0a22.15 22.15 0 0 1 -4.36 38.49h-22.23l-13.29 22.12h34.17a30.83 30.83 0 0 0 5.71-60.61z"/><path d="m103.2 38.49-31.49 69.42 19.37-.44-23.18 64.11 51.18-78.92-23.45.53 32.38-54.7z"/></svg>