<svg xmlns="http://www.w3.org/2000/svg" viewBox="0 0 327.31 188.48"><defs><style>.cls-1{fill:#fff;}.cls-2{fill:#00b2d7;}</style></defs><title>Asset 11</title><g id="Layer_2" data-name="Layer 2"><g id="Layer_1-2" data-name="Layer 1"><path class="cls-1" d="M1.14,1H15V76.6H37.8V89.2H1.14Z"/><path class="cls-1" d="M38.93,22.17C38.93,8.06,46.36,0,60,0S81,8.06,81,22.17V68c0,14.11-7.44,22.18-21,22.18s-21-8.07-21-22.18ZM52.79,68.92c0,6.29,2.77,8.69,7.18,8.69s7.18-2.4,7.18-8.69V21.29c0-6.3-2.77-8.69-7.18-8.69S52.79,15,52.79,21.29Z"/><path class="cls-1" d="M116.91,42.21l-5,47h-19L83,1H96.5l7.44,69.54L110.61,1H124l6.93,70.05,7.18-70h12.09L140.35,89.2H122Z"/><path class="cls-1" d="M41.32,154.59v11.72c0,14.1-7,22.17-20.66,22.17S0,180.41,0,166.31V120.44c0-14.11,7.05-22.17,20.66-22.17s20.66,8.06,20.66,22.17V129H28.22v-9.45c0-6.3-2.77-8.69-7.18-8.69s-7.18,2.39-7.18,8.69v47.63c0,6.29,2.77,8.56,7.18,8.56s7.18-2.27,7.18-8.56v-12.6Z"/><path class="cls-1" d="M90.84,187.47h-14l-2.39-16h-17l-2.4,16H42.33L56.44,99.28H76.72Zm-31.63-28H72.57l-6.68-44.6Z"/><path class="cls-1" d="M93.48,99.28h13.86v75.59h22.8v12.6H93.48Z"/><path class="cls-1" d="M131.27,120.44c0-14.11,7.44-22.17,21-22.17s21,8.06,21,22.17v45.87c0,14.1-7.43,22.17-21,22.17s-21-8.07-21-22.17Zm13.86,46.75c0,6.29,2.77,8.69,7.18,8.69s7.18-2.4,7.18-8.69V119.56c0-6.3-2.77-8.69-7.18-8.69s-7.18,2.39-7.18,8.69Z"/><path class="cls-1" d="M207.49,187.47c-.75-2.27-1.26-3.65-1.26-10.83V162.78c0-8.19-2.77-11.22-9.07-11.22h-4.79v35.91H178.52V99.28h20.91c14.36,0,20.54,6.68,20.54,20.28v6.93c0,9.07-2.9,15-9.08,17.89,6.93,2.9,9.2,9.58,9.2,18.77v13.61c0,4.29.13,7.43,1.51,10.71Zm-15.12-75.59V139h5.42c5.17,0,8.32-2.26,8.32-9.32V121c0-6.3-2.14-9.07-7.06-9.07Z"/><path class="cls-1" d="M225.38,99.28h13.86v88.19H225.38Z"/><path class="cls-1" d="M259.4,136.45h19V149h-19v25.83h23.94v12.6h-37.8V99.28h37.8v12.6H259.4Z"/><path class="cls-1" d="M306.77,98.27c13.48,0,20.41,8.06,20.41,22.17v2.77H314.07v-3.65c0-6.3-2.51-8.69-6.92-8.69s-6.93,2.39-6.93,8.69c0,18.15,27.09,21.55,27.09,46.75,0,14.1-7.06,22.17-20.67,22.17S286,180.41,286,166.31v-5.42h13.1v6.3c0,6.29,2.77,8.56,7.18,8.56s7.19-2.27,7.19-8.56c0-18.15-27.09-21.55-27.09-46.75C286.36,106.33,293.29,98.27,306.77,98.27Z"/><path class="cls-2" d="M239.77,15.28C224,9.77,167-6.32,165,12l-6.86,54.56c-.84,6.87.92,14.33,7.78,16.09,15.47,3.84,24.84,4.61,46.22,12s29.2,12.66,43.7,19.27c6.47,2.87,12.48-1.88,16.09-7.78l28.79-46.93C310.22,43.55,255.59,20.79,239.77,15.28ZM178.25,28.4a1.81,1.81,0,0,1-1.74-2.16l1-12.72a2.33,2.33,0,0,1,2.16-1.74A1.82,1.82,0,0,1,181.41,14l-1,12.72A2,2,0,0,1,178.25,28.4Zm13.94-14.12c0-.93,1.14-1.48,2.07-1.46A2,2,0,0,1,196,15l-1.93,12.7a1.94,1.94,0,0,1-2.34,1.37c-.93,0-1.57-.86-1.46-2.07Zm-8.3,65c-4.73-.71-6.44-4.73-5.27-9l8.43-33.17c1-3.7,6-2.89,5.85,1.1l-1.57,34C191.36,76.54,188.07,79.75,183.89,79.23Zm21.55-47.58a2,2,0,0,1-1.74-2.16l2.77-12.42a2.24,2.24,0,0,1,2.44-1.64,2.14,2.14,0,0,1,1.36,2.34L207.5,30.19A1.6,1.6,0,0,1,205.44,31.65Zm13.06,3.61a2,2,0,0,1-1.37-2.34l3.42-12.5a2.53,2.53,0,0,1,2.34-1.37,2,2,0,0,1,1.27,2.62L220.84,33.9A2,2,0,0,1,218.5,35.26ZM234,38.16a2,2,0,0,1-2.62,1.27,1.78,1.78,0,0,1-1-2.52L234.53,25a1.78,1.78,0,0,1,2.34-1.36,2,2,0,0,1,1.27,2.62Zm12.57,5A1.91,1.91,0,0,1,243,41.63L248,30a2,2,0,0,1,2.62-1.27,2.51,2.51,0,0,1,1,2.52Zm18.21-5.79-5.55,11.45c-.57.73-1.69,1.28-2.42.71a1.65,1.65,0,0,1-1-2.52l5.54-11.46a2.15,2.15,0,0,1,2.52-1A2,2,0,0,1,264.76,37.37Zm12.92,6.68L271.3,55.21a1.56,1.56,0,0,1-2.42.71,1.94,1.94,0,0,1-1-2.52l6.38-11.17a2,2,0,0,1,2.7-.61A1.67,1.67,0,0,1,277.68,44.05Zm12,8.52-7.11,10.59a1.82,1.82,0,0,1-2.71.62,2.33,2.33,0,0,1-.61-2.7l7.11-10.6a1.82,1.82,0,0,1,2.71-.61A2,2,0,0,1,289.65,52.57Z"/></g></g></svg>