<svg xmlns="http://www.w3.org/2000/svg" viewBox="0 0 234.09 35.4"><defs><style>.cls-1{fill:#e10a17;}.cls-2{fill:#fff;}</style></defs><title>Asset 31</title><g id="Layer_2" data-name="Layer 2"><g id="Layer_1-2" data-name="Layer 1"><rect class="cls-1" width="53.09" height="35.4"/><polygon class="cls-2" points="29.86 14.38 29.86 6.64 23.23 6.64 23.23 14.38 15.48 14.38 15.48 21.02 23.23 21.02 23.23 28.76 29.86 28.76 29.86 21.02 37.61 21.02 37.61 14.38 29.86 14.38"/><path class="cls-2" d="M70.6,8.66A2.94,2.94,0,0,1,69.65,11a4.12,4.12,0,0,1-2.73.81h-.86v3.37h-2V5.7h3a4,4,0,0,1,2.62.75A2.69,2.69,0,0,1,70.6,8.66Zm-4.54,1.51h.66a2.18,2.18,0,0,0,1.39-.37,1.27,1.27,0,0,0,.46-1.07,1.32,1.32,0,0,0-.38-1A1.81,1.81,0,0,0,67,7.35h-.91Z"/><path class="cls-2" d="M80.61,10.44a5.15,5.15,0,0,1-1.17,3.62,5.08,5.08,0,0,1-6.7,0,5.19,5.19,0,0,1-1.17-3.64A5.12,5.12,0,0,1,72.75,6.8a4.39,4.39,0,0,1,3.36-1.25,4.31,4.31,0,0,1,3.34,1.26A5.14,5.14,0,0,1,80.61,10.44Zm-6.93,0a4,4,0,0,0,.61,2.39,2.1,2.1,0,0,0,1.8.81c1.61,0,2.41-1.07,2.41-3.2s-.8-3.21-2.39-3.21A2.15,2.15,0,0,0,74.29,8,4,4,0,0,0,73.68,10.44Z"/><path class="cls-2" d="M91.42,15.19H89.13l-1.28-5c0-.18-.13-.55-.25-1.1A11,11,0,0,1,87.41,8c0,.23-.1.61-.2,1.12S87,10,87,10.22l-1.28,5H83.41L81,5.7h2l1.21,5.18c.21,1,.36,1.79.46,2.49,0-.25.09-.63.18-1.15s.18-.92.26-1.2L86.46,5.7h1.91L89.75,11c.06.24.14.6.23,1.09s.16.91.2,1.26q.07-.51.21-1.26c.1-.51.18-.92.26-1.23L91.86,5.7h2Z"/><path class="cls-2" d="M100.1,15.19H94.63V5.7h5.47V7.35H96.65V9.44h3.21v1.64H96.65v2.45h3.45Z"/><path class="cls-2" d="M103.7,11.55v3.64h-2V5.7h2.77a4.72,4.72,0,0,1,2.86.71,2.51,2.51,0,0,1,.93,2.14,2.53,2.53,0,0,1-.46,1.49,3.1,3.1,0,0,1-1.31,1q2.15,3.19,2.8,4.13H107l-2.26-3.64Zm0-1.63h.64a2.49,2.49,0,0,0,1.41-.32,1.13,1.13,0,0,0,.46-1,1,1,0,0,0-.47-1,2.81,2.81,0,0,0-1.43-.29h-.61Z"/><path class="cls-2" d="M115.53,15.19h-5.47V5.7h5.47V7.35h-3.46V9.44h3.22v1.64h-3.22v2.45h3.46Z"/><path class="cls-2" d="M125,10.36A4.67,4.67,0,0,1,123.65,14a5.43,5.43,0,0,1-3.85,1.24h-2.69V5.7h3a5,5,0,0,1,3.61,1.23A4.5,4.5,0,0,1,125,10.36Zm-2.09.05q0-3.06-2.7-3.06h-1.07v6.18H120Q122.89,13.53,122.89,10.41Z"/><path class="cls-2" d="M129.61,15.19V5.7h2v9.49Z"/><path class="cls-2" d="M142,15.19h-2.56L135.34,8h-.05c.08,1.27.12,2.18.12,2.72v4.46h-1.8V5.7h2.54l4.12,7.11h0c-.07-1.23-.1-2.1-.1-2.62V5.7H142Z"/><path class="cls-2" d="M152.11,12.16a2.46,2.46,0,0,1-.92,2,4,4,0,0,1-2.58.74,6,6,0,0,1-2.68-.57V12.48a9.92,9.92,0,0,0,1.62.6,4.74,4.74,0,0,0,1.22.18,1.75,1.75,0,0,0,1-.25.88.88,0,0,0,.35-.76.78.78,0,0,0-.16-.49,1.53,1.53,0,0,0-.45-.42,11.78,11.78,0,0,0-1.23-.64A6.21,6.21,0,0,1,147,9.91,2.81,2.81,0,0,1,146.3,9,2.41,2.41,0,0,1,146,7.86a2.46,2.46,0,0,1,.85-2,3.56,3.56,0,0,1,2.36-.72,5.45,5.45,0,0,1,1.41.18,10.33,10.33,0,0,1,1.41.49l-.65,1.57A9.24,9.24,0,0,0,150.16,7a4.11,4.11,0,0,0-1-.12,1.26,1.26,0,0,0-.87.27.87.87,0,0,0-.31.69.78.78,0,0,0,.13.46,1.31,1.31,0,0,0,.39.39,12.42,12.42,0,0,0,1.28.66,5.16,5.16,0,0,1,1.82,1.28A2.47,2.47,0,0,1,152.11,12.16Z"/><path class="cls-2" d="M162.68,14.79h-2.29l-1.29-5c0-.18-.13-.55-.24-1.1s-.18-.93-.2-1.12c0,.23-.09.61-.19,1.12s-.19.89-.24,1.11l-1.28,5h-2.29L152.24,5.3h2l1.21,5.18c.22,1,.37,1.79.46,2.49,0-.25.09-.63.18-1.15a11.51,11.51,0,0,1,.27-1.2l1.38-5.32h1.9L161,10.62c.07.24.14.6.23,1.09s.16.91.21,1.26q.06-.51.21-1.26c.09-.51.18-.92.26-1.23l1.2-5.18h2Z"/><path class="cls-2" d="M165.89,14.79V5.3h2v9.49Z"/><path class="cls-2" d="M173.55,14.79h-2V7H169V5.3h7.17V7h-2.58Z"/><path class="cls-2" d="M183.38,14.79h-7.06v-1.3L180.87,7h-4.43V5.3h6.82V6.6l-4.55,6.53h4.67Z"/><path class="cls-2" d="M190,14.79h-5.47V5.3H190V7h-3.45V9h3.21v1.65h-3.21v2.45H190Z"/><path class="cls-2" d="M193.55,11.15v3.64h-2V5.3h2.77a4.8,4.8,0,0,1,2.86.7,2.52,2.52,0,0,1,.93,2.14,2.48,2.48,0,0,1-.46,1.49,3,3,0,0,1-1.31,1q2.14,3.19,2.8,4.13h-2.24l-2.26-3.64Zm0-1.64h.65a2.5,2.5,0,0,0,1.41-.31,1.14,1.14,0,0,0,.46-1,1,1,0,0,0-.47-1A2.71,2.71,0,0,0,194.17,7h-.62Z"/><path class="cls-2" d="M199.92,14.79V5.3h2v7.83h3.85v1.66Z"/><path class="cls-2" d="M212.84,14.79l-.68-2.26h-3.47L208,14.79h-2.17l3.35-9.53h2.46L215,14.79Zm-1.17-3.95c-.63-2-1-3.2-1.07-3.47s-.14-.48-.17-.63c-.14.55-.55,1.92-1.23,4.1Z"/><path class="cls-2" d="M224.23,14.79h-2.56l-4.13-7.18h-.06c.08,1.27.13,2.17.13,2.72v4.46h-1.8V5.3h2.54l4.12,7.11h0c-.06-1.23-.09-2.11-.09-2.62V5.3h1.81Z"/><path class="cls-2" d="M234.09,10a4.69,4.69,0,0,1-1.33,3.59,5.43,5.43,0,0,1-3.85,1.24h-2.69V5.3h3a5,5,0,0,1,3.61,1.23A4.54,4.54,0,0,1,234.09,10ZM232,10Q232,7,229.3,7h-1.07v6.18h.86Q232,13.13,232,10Z"/><path class="cls-2" d="M67.44,28.24l-2.29-7.45h-.06q.12,2.28.12,3v4.42H63.42V18.75h2.74L68.4,26h0l2.38-7.26h2.74v9.49H71.69V23.75c0-.22,0-.46,0-.74s0-1,.08-2.2h0l-2.45,7.43Z"/><path class="cls-2" d="M81.36,28.24,80.68,26H77.22l-.69,2.26H74.36l3.35-9.53h2.46l3.36,9.53ZM80.2,24.29c-.64-2.05-1-3.2-1.08-3.47s-.14-.48-.17-.64q-.21.84-1.23,4.11Z"/><path class="cls-2" d="M92.2,23.4A4.67,4.67,0,0,1,90.87,27,5.44,5.44,0,0,1,87,28.24H84.33V18.75h3A5.06,5.06,0,0,1,90.92,20,4.5,4.5,0,0,1,92.2,23.4Zm-2.09.05c0-2-.9-3.05-2.7-3.05H86.34v6.18h.86Q90.11,26.58,90.11,23.45Z"/><path class="cls-2" d="M99.24,28.24H93.77V18.75h5.47V20.4H95.78v2.08H99v1.65H95.78v2.45h3.46Z"/><path class="cls-2" d="M103.87,28.24V18.75h2v9.49Z"/><path class="cls-2" d="M116.3,28.24h-2.56l-4.13-7.18h-.06c.08,1.27.13,2.17.13,2.71v4.47h-1.8V18.75h2.54l4.12,7.11h0c-.06-1.24-.09-2.11-.09-2.62V18.75h1.81Z"/><path class="cls-2" d="M126.81,28.24h-5.47V18.75h5.47V20.4h-3.45v2.08h3.21v1.65h-3.21v2.45h3.45Z"/><path class="cls-2" d="M136.12,18.75v6.14a3.57,3.57,0,0,1-.47,1.84A3.1,3.1,0,0,1,134.29,28a4.93,4.93,0,0,1-2.11.42,4,4,0,0,1-2.84-.94,3.3,3.3,0,0,1-1-2.57V18.75h2v5.81a2.46,2.46,0,0,0,.44,1.61,1.85,1.85,0,0,0,1.46.51,1.8,1.8,0,0,0,1.44-.52,2.47,2.47,0,0,0,.44-1.62V18.75Z"/></g></g></svg>