<svg xmlns="http://www.w3.org/2000/svg" viewBox="0 0 350.18 90.11"><defs><style>.cls-1{fill:#e10a17;}.cls-2{fill:#fff;}</style></defs><title>Asset 11</title><g id="Layer_2" data-name="Layer 2"><g id="Layer_1-2" data-name="Layer 1"><rect class="cls-1" width="135.17" height="90.11"/><polygon class="cls-2" points="76.03 36.61 76.03 16.9 59.14 16.9 59.14 36.61 39.42 36.61 39.42 53.51 59.14 53.51 59.14 73.22 76.03 73.22 76.03 53.51 95.75 53.51 95.75 36.61 76.03 36.61"/><path class="cls-2" d="M164.36,11.15a6.65,6.65,0,0,1-2.19,5.37,9.37,9.37,0,0,1-6.25,1.87h-2v7.74h-4.61V4.36h6.95a9.21,9.21,0,0,1,6,1.71A6.19,6.19,0,0,1,164.36,11.15ZM153.94,14.6h1.52a5.08,5.08,0,0,0,3.19-.84,2.94,2.94,0,0,0,1-2.45,3,3,0,0,0-.88-2.39A4.14,4.14,0,0,0,156,8.14h-2.1Z"/><path class="cls-2" d="M187.32,15.22c0,3.6-.9,6.37-2.68,8.3s-4.35,2.91-7.69,2.91-5.89-1-7.68-2.91-2.68-4.71-2.68-8.33.9-6.4,2.69-8.31S173.64,4,177,4s5.91,1,7.68,2.89S187.32,11.6,187.32,15.22Zm-15.89,0a9.1,9.1,0,0,0,1.38,5.49A4.87,4.87,0,0,0,177,22.56q5.53,0,5.53-7.34T177,7.86a4.89,4.89,0,0,0-4.15,1.85A9.1,9.1,0,0,0,171.43,15.22Z"/><path class="cls-2" d="M212.12,26.13h-5.26l-3-11.44c-.11-.4-.29-1.24-.56-2.52s-.41-2.13-.45-2.57q-.09.81-.45,2.58c-.24,1.19-.42,2-.55,2.54L199,26.13h-5.24L188.17,4.36h4.54l2.79,11.88q.74,3.3,1.06,5.7c.06-.56.19-1.44.4-2.62s.42-2.11.61-2.77l3.17-12.19h4.36l3.17,12.19c.14.55.32,1.38.52,2.51s.37,2.08.48,2.88c.1-.77.26-1.74.48-2.89s.41-2.09.59-2.81l2.77-11.88h4.54Z"/><path class="cls-2" d="M232,26.13H219.48V4.36H232V8.14h-7.92v4.78h7.37V16.7h-7.37v5.62H232Z"/><path class="cls-2" d="M240.26,17.78v8.35h-4.62V4.36H242q4.44,0,6.57,1.62a5.75,5.75,0,0,1,2.13,4.9,5.76,5.76,0,0,1-1.06,3.42,6.89,6.89,0,0,1-3,2.34q4.91,7.35,6.4,9.49h-5.12l-5.2-8.35Zm0-3.76h1.48a5.65,5.65,0,0,0,3.23-.73A2.59,2.59,0,0,0,246,11,2.37,2.37,0,0,0,245,8.8a6.43,6.43,0,0,0-3.3-.66h-1.39Z"/><path class="cls-2" d="M267.39,26.13H254.85V4.36h12.54V8.14h-7.92v4.78h7.37V16.7h-7.37v5.62h7.92Z"/><path class="cls-2" d="M289.08,15q0,5.37-3.06,8.23c-2,1.9-5,2.86-8.84,2.86H271V4.36h6.83q5.32,0,8.28,2.82C288.09,9.05,289.08,11.67,289.08,15Zm-4.8.12q0-7-6.19-7h-2.46V22.32h2Q284.28,22.32,284.28,15.16Z"/><path class="cls-2" d="M299.68,26.13V4.36h4.61V26.13Z"/><path class="cls-2" d="M328.17,26.13H322.3L312.83,9.66h-.13c.19,2.91.28,5,.28,6.23V26.13h-4.12V4.36h5.82l9.45,16.3h.11q-.23-4.23-.22-6V4.36h4.15Z"/><path class="cls-2" d="M162.18,48a5.62,5.62,0,0,1-2.13,4.65,9.21,9.21,0,0,1-5.9,1.7A13.88,13.88,0,0,1,148,53.07V48.78a24.91,24.91,0,0,0,3.73,1.38,10.89,10.89,0,0,0,2.79.41,4,4,0,0,0,2.33-.58,2,2,0,0,0,.81-1.73,1.89,1.89,0,0,0-.36-1.14,4.14,4.14,0,0,0-1-1,26.9,26.9,0,0,0-2.82-1.48,12.89,12.89,0,0,1-3-1.8,6.43,6.43,0,0,1-1.59-2,5.67,5.67,0,0,1-.6-2.68,5.62,5.62,0,0,1,2-4.54A8.13,8.13,0,0,1,155.61,32a12.73,12.73,0,0,1,3.24.4,23.06,23.06,0,0,1,3.22,1.13l-1.49,3.59a21.44,21.44,0,0,0-2.88-1,9.68,9.68,0,0,0-2.24-.28,3,3,0,0,0-2,.61,2,2,0,0,0-.7,1.59,2.05,2.05,0,0,0,.28,1.07,3.15,3.15,0,0,0,.9.88,28.92,28.92,0,0,0,2.93,1.52A11.59,11.59,0,0,1,161,44.44,5.69,5.69,0,0,1,162.18,48Z"/><path class="cls-2" d="M186.41,54.08h-5.26l-3-11.43c-.1-.41-.29-1.25-.55-2.53s-.42-2.13-.46-2.57c-.06.54-.21,1.4-.44,2.59s-.43,2-.55,2.54l-2.94,11.4H168l-5.55-21.77H167l2.78,11.88q.74,3.3,1.06,5.71c.06-.57.2-1.45.41-2.63a27.4,27.4,0,0,1,.6-2.76L175,32.31h4.37l3.17,12.2c.14.54.31,1.38.52,2.5s.37,2.08.47,2.89c.1-.78.26-1.74.48-2.9s.42-2.09.6-2.81l2.77-11.88H192Z"/><path class="cls-2" d="M193.77,54.08V32.31h4.62V54.08Z"/><path class="cls-2" d="M211.35,54.08h-4.62V36.15h-5.91V32.31h16.44v3.84h-5.91Z"/><path class="cls-2" d="M233.88,54.08h-16.2v-3l10.44-15H218V32.31H233.6v3l-10.42,15h10.7Z"/><path class="cls-2" d="M249,54.08H236.44V32.31H249v3.78h-7.92v4.78h7.37v3.78h-7.37v5.62H249Z"/><path class="cls-2" d="M257.21,45.73v8.35H252.6V32.31h6.34q4.44,0,6.57,1.62a5.76,5.76,0,0,1,2.13,4.9,5.76,5.76,0,0,1-1.06,3.42,7,7,0,0,1-3,2.35q4.91,7.34,6.4,9.48h-5.12l-5.2-8.35Zm0-3.75h1.49a5.73,5.73,0,0,0,3.23-.73A2.62,2.62,0,0,0,263,39a2.38,2.38,0,0,0-1.07-2.2,6.43,6.43,0,0,0-3.3-.66h-1.4Z"/><path class="cls-2" d="M271.81,54.08V32.31h4.62v18h8.83v3.81Z"/><path class="cls-2" d="M301.45,54.08l-1.58-5.18h-7.93l-1.58,5.18h-5l7.68-21.86h5.64l7.71,21.86Zm-2.68-9c-1.46-4.7-2.28-7.35-2.46-8s-.32-1.1-.4-1.46q-.48,1.9-2.81,9.43Z"/><path class="cls-2" d="M327.56,54.08h-5.87l-9.47-16.47h-.13q.29,4.37.28,6.23V54.08h-4.12V32.31h5.82l9.46,16.3h.1q-.22-4.23-.22-6V32.31h4.15Z"/><path class="cls-2" d="M350.18,43q0,5.37-3.06,8.23t-8.83,2.86h-6.17V32.31H339q5.32,0,8.28,2.82T350.18,43Zm-4.79.12q0-7-6.19-7h-2.46V50.27h2Q345.4,50.27,345.39,43.11Z"/><path class="cls-2" d="M158.54,82,153.3,65h-.13c.19,3.48.28,5.79.28,7V82h-4.12V60.26h6.28l5.15,16.65h.09l5.46-16.65h6.29V82h-4.3V71.73c0-.49,0-1,0-1.69s.08-2.32.2-5.06h-.14l-5.61,17Z"/><path class="cls-2" d="M190.49,82l-1.58-5.18H181L179.4,82h-5l7.69-21.86h5.64L195.46,82Zm-2.68-9c-1.46-4.7-2.28-7.35-2.47-8s-.31-1.1-.39-1.46q-.49,1.9-2.81,9.43Z"/><path class="cls-2" d="M215.35,70.94c0,3.58-1,6.33-3.06,8.23s-5,2.86-8.84,2.86h-6.17V60.26h6.84q5.32,0,8.28,2.82C214.36,65,215.35,67.57,215.35,70.94Zm-4.8.12q0-7-6.19-7H201.9V78.22h2Q210.56,78.22,210.55,71.06Z"/><path class="cls-2" d="M231.48,82H218.94V60.26h12.54V64h-7.92v4.78h7.37v3.79h-7.37v5.61h7.92Z"/><path class="cls-2" d="M242.11,82V60.26h4.62V82Z"/><path class="cls-2" d="M270.6,82h-5.87l-9.46-16.47h-.14q.28,4.36.28,6.23V82h-4.12V60.26h5.82l9.46,16.31h.1q-.23-4.25-.22-6V60.26h4.15Z"/><path class="cls-2" d="M294.71,82H282.17V60.26h12.54V64h-7.92v4.78h7.37v3.79h-7.37v5.61h7.92Z"/><path class="cls-2" d="M316.05,60.26V74.35A8.11,8.11,0,0,1,315,78.58a7.05,7.05,0,0,1-3.12,2.78,11.09,11.09,0,0,1-4.82,1,9.25,9.25,0,0,1-6.52-2.15,7.65,7.65,0,0,1-2.33-5.89v-14h4.61V73.59a5.53,5.53,0,0,0,1,3.69,4.18,4.18,0,0,0,3.35,1.18,4.11,4.11,0,0,0,3.28-1.19,5.59,5.59,0,0,0,1-3.71V60.26Z"/></g></g></svg>