<svg xmlns="http://www.w3.org/2000/svg" viewBox="0 0 307.35 192.37"><defs><style>.cls-1{fill:#fff;}.cls-2,.cls-3{fill:#00b2d7;}.cls-3{opacity:0.31;}</style></defs><title>Asset 21</title><g id="Layer_2" data-name="Layer 2"><g id="Layer_1-2" data-name="Layer 1"><path class="cls-1" d="M0,0H42.83V12.6H28.35V88.19H14.49V12.6H0Z"/><path class="cls-1" d="M85.17,88.19h-14l-2.39-16h-17l-2.4,16H36.66L50.77,0H71.06Zm-31.63-28H66.9l-6.68-44.6Z"/><path class="cls-1" d="M101,0V68c0,6.3,2.77,8.57,7.18,8.57s7.18-2.27,7.18-8.57V0h13.1V67.15c0,14.11-7,22.18-20.66,22.18S87.18,81.26,87.18,67.15V0Z"/><path class="cls-1" d="M163.15,88.19c-.76-2.27-1.26-3.65-1.26-10.83V63.5c0-8.19-2.77-11.21-9.07-11.21H148v35.9H134.17V0h20.92c14.36,0,20.53,6.68,20.53,20.28v6.93c0,9.07-2.9,15-9.07,17.89,6.93,2.9,9.2,9.58,9.2,18.77V77.48c0,4.29.12,7.44,1.51,10.71ZM148,12.6V39.68h5.42c5.16,0,8.31-2.26,8.31-9.32V21.67c0-6.3-2.14-9.07-7-9.07Z"/><path class="cls-1" d="M181,0H194.9V88.19H181Z"/><path class="cls-1" d="M213.54,24.32V88.19H201.07V0h17.38l14.24,52.79V0H245V88.19H230.8Z"/><path class="cls-1" d="M265.07,37.17h19V49.76h-19V75.59H289v12.6h-37.8V0H289V12.6H265.07Z"/><path class="cls-1" d="M17.89,137.45H35.78v12.6H17.89v36.41H4V98.27H40.69v12.6H17.89Z"/><path class="cls-1" d="M72.57,186.46c-.76-2.27-1.27-3.65-1.27-10.83V161.77c0-8.19-2.77-11.21-9.06-11.21H57.45v35.9H43.59V98.27H64.5C78.86,98.27,85,105,85,118.55v6.94c0,9.06-2.9,15-9.08,17.88,6.94,2.9,9.2,9.58,9.2,18.78v13.6c0,4.29.13,7.44,1.52,10.71ZM57.45,110.87V138h5.41c5.17,0,8.32-2.27,8.32-9.33v-8.69c0-6.3-2.14-9.07-7.06-9.07Z"/><path class="cls-1" d="M104.31,135.44h19V148h-19v25.82h23.94v12.6H90.45V98.27h37.8v12.6H104.31Z"/><path class="cls-1" d="M146.89,135.44h19V148h-19v25.82h23.94v12.6H133V98.27h37.79v12.6H146.89Z"/><path class="cls-2" d="M271.74,144.17c7,2.14,13.92-.8,18-6.92L266.47,126.6Z"/><path class="cls-2" d="M175.52,84.94c-2,7.09.3,14.21,6.52,18.15l16.75-7.49Z"/><polygon class="cls-2" points="191.07 158.01 202.07 150.68 198.86 116.21 221.6 106.05 203.04 97.54 186.43 105.1 185.31 114.58 188.89 146.08 180.14 152.07 182.1 174.44 192.02 164.57 191.07 158.01"/><path class="cls-2" d="M249.83,119l-4.44,2.92L250.82,140l-28.2,20.08,1.64,13.12-7.88,5-18.18-8.33-13.56,8.37,30.77,14.09,20.48-14.77-1.17-10.54L260.9,149.2l6.56-7-5.26-17.57Z"/><path class="cls-2" d="M191.76,88.81l10.39,4.76.43.19,4,1.83L231,106.79l.8.36.82.38L246.3,95.64l-19.93-9.12-4-1.83L209,78.57,197.74,73.4a16.52,16.52,0,0,1,9-27.45,23,23,0,0,0-15,42.86Z"/><path class="cls-2" d="M298.87,88.14A16.52,16.52,0,0,1,284,112.89l-15-6.89L253,116.87,261,120.5l4.27,2,2.66,1.22,8.32,3.8a23,23,0,0,0,22.66-39.34Z"/><polygon class="cls-2" points="249.11 96.93 206.19 134.23 219.46 139.94 183.83 176.22 243.05 138.59 226.99 131.67 265.93 104.63 249.11 96.93"/><path class="cls-3" d="M182,103.09l16.75-7.49L175.52,84.94C173.55,92,175.82,99.15,182,103.09Z"/><path class="cls-3" d="M221.6,106,203,97.54l-16.61,7.56-1.12,9.48L187,129.31q6.48.52,13.15.62l-1.28-13.72Z"/><path class="cls-2" d="M245.39,121.9l1.42,4.74c4.93-.71,9.81-1.5,14.6-2.36L249.83,119Z"/><path class="cls-3" d="M222.4,84.69,209,78.57,197.74,73.4a16.52,16.52,0,0,1,9-27.45,23,23,0,0,0-15,42.86l10.39,4.76.43.19,4,1.83L231,106.79l.8.36.82.38L246.3,95.64l-19.93-9.12Z"/><path class="cls-2" d="M298.87,88.14A16.52,16.52,0,0,1,284,112.89l-15-6.89L253,116.87,261,120.5l4.27,2,1.72.79c14.18-2.74,27.45-6,38.9-9.13A23,23,0,0,0,298.87,88.14Z"/><path class="cls-2" d="M265.93,104.63l-16.82-7.7-37.6,32.67c6.57-.4,14.25-1,20.77-1.6Z"/></g></g></svg>