<svg viewBox="0 0 307.35 192.37" xmlns="http://www.w3.org/2000/svg"><path d="m0 0h42.83v12.6h-14.48v75.59h-13.86v-75.59h-14.49z" fill="#fff"/><path d="m85.17 88.19h-14l-2.39-16h-17l-2.4 16h-12.72l14.11-88.19h20.29zm-31.63-28h13.36l-6.68-44.6z" fill="#fff"/><path d="m101 0v68c0 6.3 2.77 8.57 7.18 8.57s7.18-2.27 7.18-8.57v-68h13.1v67.15c0 14.11-7 22.18-20.66 22.18s-20.62-8.07-20.62-22.18v-67.15z" fill="#fff"/><path d="m163.15 88.19c-.76-2.27-1.26-3.65-1.26-10.83v-13.86c0-8.19-2.77-11.21-9.07-11.21h-4.82v35.9h-13.83v-88.19h20.92c14.36 0 20.53 6.68 20.53 20.28v6.93c0 9.07-2.9 15-9.07 17.89 6.93 2.9 9.2 9.58 9.2 18.77v13.61c0 4.29.12 7.44 1.51 10.71zm-15.15-75.59v27.08h5.42c5.16 0 8.31-2.26 8.31-9.32v-8.69c0-6.3-2.14-9.07-7-9.07z" fill="#fff"/><path d="m181 0h13.9v88.19h-13.9z" fill="#fff"/><path d="m213.54 24.32v63.87h-12.47v-88.19h17.38l14.24 52.79v-52.79h12.31v88.19h-14.2z" fill="#fff"/><path d="m265.07 37.17h19v12.59h-19v25.83h23.93v12.6h-37.8v-88.19h37.8v12.6h-23.93z" fill="#fff"/><path d="m17.89 137.45h17.89v12.6h-17.89v36.41h-13.89v-88.19h36.69v12.6h-22.8z" fill="#fff"/><path d="m72.57 186.46c-.76-2.27-1.27-3.65-1.27-10.83v-13.86c0-8.19-2.77-11.21-9.06-11.21h-4.79v35.9h-13.86v-88.19h20.91c14.36 0 20.5 6.73 20.5 20.28v6.94c0 9.06-2.9 15-9.08 17.88 6.94 2.9 9.2 9.58 9.2 18.78v13.6c0 4.29.13 7.44 1.52 10.71zm-15.12-75.59v27.13h5.41c5.17 0 8.32-2.27 8.32-9.33v-8.69c0-6.3-2.14-9.07-7.06-9.07z" fill="#fff"/><path d="m104.31 135.44h19v12.56h-19v25.82h23.94v12.6h-37.8v-88.15h37.8v12.6h-23.94z" fill="#fff"/><path d="m146.89 135.44h19v12.56h-19v25.82h23.94v12.6h-37.83v-88.15h37.79v12.6h-23.9z" fill="#fff"/><g fill="#00b2d7"><path d="m271.74 144.17c7 2.14 13.92-.8 18-6.92l-23.27-10.65z"/><path d="m175.52 84.94c-2 7.09.3 14.21 6.52 18.15l16.75-7.49z"/><path d="m191.07 158.01 11-7.33-3.21-34.47 22.74-10.16-18.56-8.51-16.61 7.56-1.12 9.48 3.58 31.5-8.75 5.99 1.96 22.37 9.92-9.87z"/><path d="m249.83 119-4.44 2.92 5.43 18.08-28.2 20.08 1.64 13.12-7.88 5-18.18-8.33-13.56 8.37 30.77 14.09 20.48-14.77-1.17-10.54 26.18-17.82 6.56-7-5.26-17.57z"/><path d="m191.76 88.81 10.39 4.76.43.19 4 1.83 24.42 11.2.8.36.82.38 13.68-11.89-19.93-9.12-4-1.83-13.37-6.12-11.26-5.17a16.52 16.52 0 0 1 9-27.45 23 23 0 0 0 -15 42.86z"/><path d="m298.87 88.14a16.52 16.52 0 0 1 -14.87 24.75l-15-6.89-16 10.87 8 3.63 4.27 2 2.66 1.22 8.32 3.8a23 23 0 0 0 22.66-39.34z"/><path d="m249.11 96.93-42.92 37.3 13.27 5.71-35.63 36.28 59.22-37.63-16.06-6.92 38.94-27.04z"/><path d="m182 103.09 16.75-7.49-23.23-10.66c-1.97 7.06.3 14.21 6.48 18.15z" opacity=".31"/><path d="m221.6 106-18.6-8.46-16.61 7.56-1.12 9.48 1.73 14.73q6.48.52 13.15.62l-1.28-13.72z" opacity=".31"/><path d="m245.39 121.9 1.42 4.74c4.93-.71 9.81-1.5 14.6-2.36l-11.58-5.28z"/><path d="m222.4 84.69-13.4-6.12-11.26-5.17a16.52 16.52 0 0 1 9-27.45 23 23 0 0 0 -15 42.86l10.39 4.76.43.19 4 1.83 24.44 11.2.8.36.82.38 13.68-11.89-19.93-9.12z" opacity=".31"/><path d="m298.87 88.14a16.52 16.52 0 0 1 -14.87 24.75l-15-6.89-16 10.87 8 3.63 4.27 2 1.72.79c14.18-2.74 27.45-6 38.9-9.13a23 23 0 0 0 -7.02-26.02z"/><path d="m265.93 104.63-16.82-7.7-37.6 32.67c6.57-.4 14.25-1 20.77-1.6z"/></g></svg>