<svg xmlns="http://www.w3.org/2000/svg" viewBox="0 0 201.43 194.76"><defs><style>.cls-1{fill:#fff;}.cls-2{fill:#00b2d7;}</style></defs><title>Asset 41</title><g id="Layer_2" data-name="Layer 2"><g id="Layer_1-2" data-name="Layer 1"><path class="cls-1" d="M.12,2.52H21.5C35,2.52,41.64,10,41.64,23.77V67.25C41.64,81,35,88.5,21.5,88.5H.12ZM13.63,14.8V76.22h7.62c4.3,0,6.88-2.21,6.88-8.35V23.15c0-6.14-2.58-8.35-6.88-8.35Z"/><path class="cls-1" d="M49.13,23.15c0-13.75,7.25-21.61,20.51-21.61S90.15,9.4,90.15,23.15V67.87c0,13.75-7.24,21.61-20.51,21.61S49.13,81.62,49.13,67.87ZM62.64,68.73c0,6.14,2.7,8.47,7,8.47s7-2.33,7-8.47V22.29c0-6.14-2.7-8.47-7-8.47s-7,2.33-7,8.47Z"/><path class="cls-1" d="M28.74,168.84l9.22-61H56.75v86H44V132.11l-9.33,61.67H21.86L11.79,133v60.81H0v-86H18.79Z"/><path class="cls-1" d="M65.46,128.43c0-13.76,7.25-21.62,20.52-21.62s20.51,7.86,20.51,21.62v44.71c0,13.76-7.25,21.62-20.51,21.62s-20.52-7.86-20.52-21.62ZM79,174c0,6.14,2.71,8.48,7,8.48s7-2.34,7-8.48V127.57c0-6.14-2.7-8.47-7-8.47s-7,2.33-7,8.47Z"/><path class="cls-1" d="M143.46,193.78c-.74-2.21-1.23-3.56-1.23-10.56V169.7c0-8-2.7-10.93-8.85-10.93h-4.66v35H115.21v-86H135.6c14,0,20,6.51,20,19.78v6.76c0,8.84-2.83,14.61-8.85,17.44,6.76,2.83,9,9.33,9,18.3v13.27c0,4.17.12,7.24,1.48,10.44Zm-14.74-73.7v26.41H134c5,0,8.11-2.22,8.11-9.09v-8.48c0-6.14-2.09-8.84-6.88-8.84Z"/><path class="cls-1" d="M178.09,144h18.55v12.28H178.09V181.5h23.34v12.28H164.58v-86h36.85v12.29H178.09Z"/><polygon class="cls-2" points="147.61 0 109.68 83.62 133.01 83.09 105.09 160.3 166.74 65.24 138.5 65.88 177.5 0 147.61 0"/></g></g></svg>